Aleo-Hairline Italic.ufo
<glyph name="exclam" format="2">
	<advance width="241"/>
	<unicode hex="0021"/>
	<note>
		exclam
	</note>
	<outline>
		<contour>
			<point x="171.867" y="700" type="line"/>
			<point x="136.751" y="414" type="line" smooth="yes"/>
			<point x="132.576" y="380"/>
			<point x="121.929" y="277"/>
			<point x="118.141" y="238" type="curve"/>
			<point x="126.141" y="238" type="line"/>
			<point x="131.07" y="270"/>
			<point x="147.435" y="387"/>
			<point x="150.751" y="414" type="curve" smooth="yes"/>
			<point x="185.867" y="700" type="line"/>
			<point x="171.867" y="700" type="line"/>
		</contour>
		<contour>
			<point x="61.865" y="24" type="curve"/>
			<point x="61.865" y="24" type="line"/>
			<point x="59.777" y="7"/>
			<point x="72.936" y="-8"/>
			<point x="89.936" y="-8" type="curve" smooth="yes"/>
			<point x="108.936" y="-8"/>
			<point x="124.777" y="7"/>
			<point x="126.865" y="24" type="curve" smooth="yes"/>
			<point x="129.198" y="43"/>
			<point x="116.917" y="57"/>
			<point x="97.917" y="57" type="curve" smooth="yes"/>
			<point x="80.917" y="57"/>
			<point x="64.198" y="43"/>
		</contour>
	</outline>
</glyph>
<glyph name="quotedbl" format="2">
	<advance width="277"/>
	<unicode hex="0022"/>
	<note>
		quotedbl
	</note>
	<outline>
		<contour>
			<point x="125.867" y="700" type="line"/>
			<point x="107.818" y="553" type="line"/>
			<point x="99.486" y="477" type="line" smooth="yes"/>
			<point x="99.118" y="474"/>
			<point x="99.995" y="473"/>
			<point x="102.995" y="473" type="curve" smooth="yes"/>
			<point x="105.995" y="473"/>
			<point x="107.118" y="474"/>
			<point x="107.486" y="477" type="curve" smooth="yes"/>
			<point x="117.818" y="553" type="line"/>
			<point x="135.867" y="700" type="line"/>
			<point x="125.867" y="700" type="line"/>
		</contour>
		<contour>
			<point x="252.867" y="700" type="line"/>
			<point x="234.818" y="553" type="line"/>
			<point x="226.486" y="477" type="line" smooth="yes"/>
			<point x="226.118" y="474"/>
			<point x="226.995" y="473"/>
			<point x="229.995" y="473" type="curve" smooth="yes"/>
			<point x="232.995" y="473"/>
			<point x="234.118" y="474"/>
			<point x="234.486" y="477" type="curve" smooth="yes"/>
			<point x="244.818" y="553" type="line"/>
			<point x="262.867" y="700" type="line"/>
			<point x="252.867" y="700" type="line"/>
		</contour>
	</outline>
</glyph>
<glyph name="numbersign" format="2">
	<advance width="552"/>
	<unicode hex="0023"/>
	<note>
		numbersign
	</note>
	<outline>
		<contour>
			<point x="70.918" y="0" type="line"/>
			<point x="75.918" y="0" type="line" smooth="yes"/>
			<point x="80.918" y="0"/>
			<point x="83.286" y="3"/>
			<point x="84.9" y="8" type="curve" smooth="yes"/>
			<point x="162.158" y="230" type="line"/>
			<point x="333.158" y="230" type="line"/>
			<point x="255.409" y="4" type="line" smooth="yes"/>
			<point x="254.041" y="1"/>
			<point x="255.918" y="0"/>
			<point x="257.918" y="0" type="curve" smooth="yes"/>
			<point x="263.918" y="0" type="line"/>
			<point x="344.158" y="230" type="line"/>
			<point x="484.158" y="230" type="line"/>
			<point x="484.527" y="233" type="line" smooth="yes"/>
			<point x="485.018" y="237"/>
			<point x="483.263" y="239"/>
			<point x="478.263" y="239" type="curve" smooth="yes"/>
			<point x="346.263" y="239" type="line"/>
			<point x="422.521" y="461" type="line"/>
			<point x="533.521" y="461" type="line" smooth="yes"/>
			<point x="538.521" y="461"/>
			<point x="540.767" y="463"/>
			<point x="541.258" y="467" type="curve" smooth="yes"/>
			<point x="541.627" y="470" type="line"/>
			<point x="424.627" y="470" type="line"/>
			<point x="500.639" y="690" type="line" smooth="yes"/>
			<point x="503.499" y="697"/>
			<point x="502.867" y="700"/>
			<point x="497.867" y="700" type="curve" smooth="yes"/>
			<point x="492.867" y="700" type="line"/>
			<point x="413.627" y="470" type="line"/>
			<point x="242.627" y="470" type="line"/>
			<point x="321.867" y="700" type="line"/>
			<point x="317.867" y="700" type="line" smooth="yes"/>
			<point x="312.867" y="700"/>
			<point x="309.499" y="697"/>
			<point x="307.885" y="692" type="curve" smooth="yes"/>
			<point x="231.627" y="470" type="line"/>
			<point x="100.627" y="470" type="line" smooth="yes"/>
			<point x="95.627" y="470"/>
			<point x="93.381" y="468"/>
			<point x="92.89" y="464" type="curve" smooth="yes"/>
			<point x="92.521" y="461" type="line"/>
			<point x="229.521" y="461" type="line"/>
			<point x="153.263" y="239" type="line"/>
			<point x="37.263" y="239" type="line"/>
			<point x="36.895" y="236" type="line" smooth="yes"/>
			<point x="36.404" y="232"/>
			<point x="38.158" y="230"/>
			<point x="43.158" y="230" type="curve" smooth="yes"/>
			<point x="151.158" y="230" type="line"/>
		</contour>
		<contour>
			<point x="164.263" y="239" type="line"/>
			<point x="240.521" y="461" type="line"/>
			<point x="411.521" y="461" type="line"/>
			<point x="335.263" y="239" type="line"/>
		</contour>
	</outline>
</glyph>
<glyph name="percent" format="2">
	<advance width="746"/>
	<unicode hex="0025"/>
	<note>
		percent
	</note>
	<outline>
		<contour>
			<point x="363.239" y="532" type="curve"/>
			<point x="363.239" y="532" type="line"/>
			<point x="376.991" y="644"/>
			<point x="328.849" y="708"/>
			<point x="244.849" y="708" type="curve" smooth="yes"/>
			<point x="160.849" y="708"/>
			<point x="96.991" y="644"/>
			<point x="83.239" y="532" type="curve" smooth="yes"/>
			<point x="69.61" y="421"/>
			<point x="117.752" y="357"/>
			<point x="201.752" y="357" type="curve" smooth="yes"/>
			<point x="285.752" y="357"/>
			<point x="349.61" y="421"/>
		</contour>
		<contour>
			<point x="352.239" y="532" type="curve"/>
			<point x="352.239" y="532" type="line"/>
			<point x="339.224" y="426"/>
			<point x="280.857" y="366"/>
			<point x="202.857" y="366" type="curve" smooth="yes"/>
			<point x="125.857" y="366"/>
			<point x="81.101" y="425"/>
			<point x="94.239" y="532" type="curve" smooth="yes"/>
			<point x="107.5" y="640"/>
			<point x="166.744" y="699"/>
			<point x="243.744" y="699" type="curve" smooth="yes"/>
			<point x="321.744" y="699"/>
			<point x="365.5" y="640"/>
		</contour>
		<contour>
			<point x="85.918" y="0" type="line"/>
			<point x="92.918" y="0" type="line" smooth="yes"/>
			<point x="96.918" y="0"/>
			<point x="100.041" y="1"/>
			<point x="101.409" y="4" type="curve"/>
			<point x="680.867" y="700" type="line"/>
			<point x="673.867" y="700" type="line" smooth="yes"/>
			<point x="670.867" y="700"/>
			<point x="667.744" y="699"/>
			<point x="665.376" y="696" type="curve" smooth="yes"/>
			<point x="85.918" y="0" type="line"/>
		</contour>
		<contour>
			<point x="688.423" y="167" type="curve"/>
			<point x="688.423" y="167" type="line"/>
			<point x="702.175" y="279"/>
			<point x="654.033" y="343"/>
			<point x="570.033" y="343" type="curve" smooth="yes"/>
			<point x="486.033" y="343"/>
			<point x="422.175" y="279"/>
			<point x="408.423" y="167" type="curve" smooth="yes"/>
			<point x="394.794" y="56"/>
			<point x="442.936" y="-8"/>
			<point x="526.936" y="-8" type="curve" smooth="yes"/>
			<point x="610.936" y="-8"/>
			<point x="674.794" y="56"/>
		</contour>
		<contour>
			<point x="677.423" y="167" type="curve"/>
			<point x="677.423" y="167" type="line"/>
			<point x="664.408" y="61"/>
			<point x="606.041" y="1"/>
			<point x="528.041" y="1" type="curve" smooth="yes"/>
			<point x="451.041" y="1"/>
			<point x="406.285" y="60"/>
			<point x="419.423" y="167" type="curve" smooth="yes"/>
			<point x="432.684" y="275"/>
			<point x="491.928" y="334"/>
			<point x="568.928" y="334" type="curve" smooth="yes"/>
			<point x="646.928" y="334"/>
			<point x="690.684" y="275"/>
		</contour>
	</outline>
</glyph>
<glyph name="ampersand" format="2">
	<advance width="666"/>
	<unicode hex="0026"/>
	<note>
		ampersand
	</note>
	<outline>
		<contour>
			<point x="203.936" y="-8" type="curve" smooth="yes"/>
			<point x="313.936" y="-8"/>
			<point x="409.303" y="52"/>
			<point x="477.125" y="132" type="curve"/>
			<point x="591.532" y="5" type="line" smooth="yes"/>
			<point x="597.918" y="0"/>
			<point x="600.918" y="0"/>
			<point x="605.918" y="0" type="curve" smooth="yes"/>
			<point x="613.918" y="0" type="line"/>
			<point x="484.23" y="141" type="line"/>
			<point x="531.229" y="198"/>
			<point x="560.087" y="262"/>
			<point x="567.104" y="311" type="curve"/>
			<point x="563.104" y="311" type="line" smooth="yes"/>
			<point x="558.104" y="311"/>
			<point x="556.735" y="308"/>
			<point x="555.122" y="303" type="curve"/>
			<point x="544.228" y="255"/>
			<point x="518.352" y="199"/>
			<point x="477.09" y="148" type="curve"/>
			<point x="267.085" y="376" type="line" smooth="yes"/>
			<point x="209.82" y="439"/>
			<point x="182.573" y="494"/>
			<point x="190.063" y="555" type="curve" smooth="yes"/>
			<point x="200.5" y="640"/>
			<point x="272.621" y="698"/>
			<point x="362.621" y="698" type="curve" smooth="yes"/>
			<point x="446.621" y="698"/>
			<point x="492.518" y="632"/>
			<point x="489.624" y="584" type="curve" smooth="yes"/>
			<point x="489.642" y="576"/>
			<point x="493.642" y="576"/>
			<point x="496.642" y="576" type="curve" smooth="yes"/>
			<point x="499.642" y="576" type="line"/>
			<point x="508.482" y="648"/>
			<point x="439.849" y="708"/>
			<point x="363.849" y="708" type="curve" smooth="yes"/>
			<point x="267.849" y="708"/>
			<point x="189.114" y="645"/>
			<point x="178.063" y="555" type="curve" smooth="yes"/>
			<point x="170.328" y="492"/>
			<point x="196.189" y="442"/>
			<point x="240.681" y="389" type="curve"/>
			<point x="135.384" y="354"/>
			<point x="44.561" y="274"/>
			<point x="32.037" y="172" type="curve" smooth="yes"/>
			<point x="18.408" y="61"/>
			<point x="103.936" y="-8"/>
		</contour>
		<contour>
			<point x="205.163" y="2" type="curve" smooth="yes"/>
			<point x="118.163" y="2"/>
			<point x="30.776" y="64"/>
			<point x="44.037" y="172" type="curve"/>
			<point x="44.037" y="172" type="line"/>
			<point x="55.701" y="267"/>
			<point x="143.892" y="350"/>
			<point x="247.699" y="381" type="curve"/>
			<point x="469.985" y="139" type="line"/>
			<point x="407.53" y="62"/>
			<point x="311.163" y="2"/>
		</contour>
	</outline>
</glyph>
<glyph name="quotesingle" format="2">
	<advance width="150"/>
	<unicode hex="0027"/>
	<note>
		quotesingle
	</note>
	<outline>
		<contour>
			<point x="102.995" y="473" type="curve" smooth="yes"/>
			<point x="105.995" y="473"/>
			<point x="107.118" y="474"/>
			<point x="107.486" y="477" type="curve" smooth="yes"/>
			<point x="117.818" y="553" type="line"/>
			<point x="135.867" y="700" type="line"/>
			<point x="125.867" y="700" type="line"/>
			<point x="107.818" y="553" type="line"/>
			<point x="99.486" y="477" type="line" smooth="yes"/>
			<point x="99.118" y="474"/>
			<point x="99.995" y="473"/>
		</contour>
	</outline>
</glyph>
<glyph name="parenleft" format="2">
	<advance width="230"/>
	<unicode hex="0028"/>
	<note>
		parenleft
	</note>
	<outline>
		<contour>
			<point x="143.184" y="-120" type="curve"/>
			<point x="148.552" y="-117" type="line" smooth="yes"/>
			<point x="149.675" y="-116"/>
			<point x="150.798" y="-115"/>
			<point x="150.92" y="-114" type="curve" smooth="yes"/>
			<point x="151.043" y="-113"/>
			<point x="150.289" y="-111"/>
			<point x="149.534" y="-109" type="curve" smooth="yes"/>
			<point x="77.742" y="23"/>
			<point x="50.686" y="161"/>
			<point x="69.718" y="316" type="curve" smooth="yes"/>
			<point x="88.749" y="471"/>
			<point x="149.694" y="609"/>
			<point x="253.901" y="741" type="curve" smooth="yes"/>
			<point x="255.147" y="743"/>
			<point x="256.392" y="745"/>
			<point x="256.515" y="746" type="curve" smooth="yes"/>
			<point x="256.638" y="747"/>
			<point x="255.761" y="748"/>
			<point x="254.883" y="749" type="curve" smooth="yes"/>
			<point x="250.252" y="752" type="line"/>
			<point x="188.552" y="673"/>
			<point x="144.834" y="602"/>
			<point x="115.116" y="531" type="curve" smooth="yes"/>
			<point x="85.399" y="460"/>
			<point x="67.927" y="391"/>
			<point x="58.718" y="316" type="curve" smooth="yes"/>
			<point x="49.509" y="241"/>
			<point x="50.037" y="172"/>
			<point x="62.442" y="102" type="curve" smooth="yes"/>
			<point x="74.847" y="32"/>
			<point x="100.884" y="-41"/>
		</contour>
	</outline>
</glyph>
<glyph name="parenright" format="2">
	<advance width="230"/>
	<unicode hex="0029"/>
	<note>
		parenright
	</note>
	<outline>
		<contour>
			<point x="-2.816" y="-120" type="line"/>
			<point x="58.884" y="-41"/>
			<point x="102.847" y="32"/>
			<point x="132.442" y="102" type="curve" smooth="yes"/>
			<point x="162.037" y="172"/>
			<point x="179.509" y="241"/>
			<point x="188.718" y="316" type="curve" smooth="yes"/>
			<point x="197.927" y="391"/>
			<point x="197.399" y="460"/>
			<point x="185.116" y="531" type="curve" smooth="yes"/>
			<point x="172.834" y="602"/>
			<point x="146.552" y="673"/>
			<point x="104.252" y="752" type="curve"/>
			<point x="98.883" y="749" type="line" smooth="yes"/>
			<point x="97.761" y="748"/>
			<point x="96.638" y="747"/>
			<point x="96.515" y="746" type="curve" smooth="yes"/>
			<point x="96.392" y="745"/>
			<point x="97.147" y="743"/>
			<point x="97.901" y="741" type="curve" smooth="yes"/>
			<point x="169.694" y="609"/>
			<point x="196.749" y="471"/>
			<point x="177.718" y="316" type="curve" smooth="yes"/>
			<point x="158.686" y="161"/>
			<point x="97.742" y="23"/>
			<point x="-6.466" y="-109" type="curve" smooth="yes"/>
			<point x="-7.711" y="-111"/>
			<point x="-8.957" y="-113"/>
			<point x="-9.08" y="-114" type="curve" smooth="yes"/>
			<point x="-9.202" y="-115"/>
			<point x="-8.325" y="-116"/>
			<point x="-7.448" y="-117" type="curve" smooth="yes"/>
		</contour>
	</outline>
</glyph>
<glyph name="asterisk" format="2">
	<advance width="389"/>
	<unicode hex="002A"/>
	<note>
		asterisk
	</note>
	<outline>
		<contour>
			<point x="215.767" y="463" type="line"/>
			<point x="225.767" y="463" type="line"/>
			<point x="225.767" y="463" type="line"/>
			<point x="239.764" y="577" type="line" smooth="yes"/>
			<point x="240.747" y="585"/>
			<point x="240.992" y="587"/>
			<point x="239.466" y="599" type="curve"/>
			<point x="242.975" y="595"/>
			<point x="253.992" y="587"/>
			<point x="255.747" y="585" type="curve"/>
			<point x="350.502" y="526" type="line"/>
			<point x="356.608" y="535" type="line"/>
			<point x="261.852" y="594" type="line" smooth="yes"/>
			<point x="259.097" y="596"/>
			<point x="251.466" y="599"/>
			<point x="242.834" y="602" type="curve"/>
			<point x="254.202" y="605"/>
			<point x="256.325" y="606"/>
			<point x="263.816" y="610" type="curve" smooth="yes"/>
			<point x="372.061" y="669" type="line"/>
			<point x="368.166" y="678" type="line"/>
			<point x="259.921" y="619" type="line" smooth="yes"/>
			<point x="252.43" y="615"/>
			<point x="250.185" y="613"/>
			<point x="240.08" y="604" type="curve"/>
			<point x="244.062" y="612"/>
			<point x="244.799" y="618"/>
			<point x="245.904" y="627" type="curve" smooth="yes"/>
			<point x="259.901" y="741" type="line"/>
			<point x="249.901" y="741" type="line"/>
			<point x="235.904" y="627" type="line" smooth="yes"/>
			<point x="235.535" y="624"/>
			<point x="236.43" y="615"/>
			<point x="237.08" y="604" type="curve"/>
			<point x="233.571" y="608"/>
			<point x="223.799" y="618"/>
			<point x="220.921" y="619" type="curve"/>
			<point x="126.166" y="678" type="line"/>
			<point x="120.061" y="669" type="line"/>
			<point x="214.816" y="610" type="line" smooth="yes"/>
			<point x="217.571" y="608"/>
			<point x="224.325" y="606"/>
			<point x="234.834" y="602" type="curve"/>
			<point x="231.711" y="601"/>
			<point x="219.22" y="597"/>
			<point x="212.852" y="594" type="curve" smooth="yes"/>
			<point x="104.608" y="535" type="line"/>
			<point x="108.502" y="526" type="line"/>
			<point x="216.747" y="585" type="line" smooth="yes"/>
			<point x="222.115" y="588"/>
			<point x="229.729" y="593"/>
			<point x="236.466" y="599" type="curve"/>
			<point x="233.361" y="590"/>
			<point x="230.501" y="583"/>
			<point x="229.764" y="577" type="curve" smooth="yes"/>
		</contour>
	</outline>
</glyph>
<glyph name="plus" format="2">
	<advance width="573"/>
	<unicode hex="002B"/>
	<note>
		plus
	</note>
	<outline>
		<contour>
			<point x="321.519" y="575" type="line"/>
			<point x="292.665" y="340" type="line"/>
			<point x="67.665" y="340" type="line"/>
			<point x="66.437" y="330" type="line"/>
			<point x="291.437" y="330" type="line"/>
			<point x="262.46" y="94" type="line"/>
			<point x="272.46" y="94" type="line"/>
			<point x="301.437" y="330" type="line"/>
			<point x="527.437" y="330" type="line"/>
			<point x="528.665" y="340" type="line"/>
			<point x="302.665" y="340" type="line"/>
			<point x="331.519" y="575" type="line"/>
			<point x="321.519" y="575" type="line"/>
		</contour>
	</outline>
</glyph>
<glyph name="comma" format="2">
	<advance width="172"/>
	<unicode hex="002C"/>
	<note>
		comma
	</note>
	<outline>
		<contour>
			<point x="13.306" y="-119" type="line"/>
			<point x="52.727" y="-83"/>
			<point x="82.743" y="-34"/>
			<point x="89.128" y="18" type="curve" smooth="yes"/>
			<point x="92.198" y="43"/>
			<point x="81.917" y="57"/>
			<point x="62.917" y="57" type="curve" smooth="yes"/>
			<point x="45.917" y="57"/>
			<point x="31.075" y="42"/>
			<point x="29.11" y="26" type="curve" smooth="yes"/>
			<point x="27.023" y="9"/>
			<point x="37.427" y="-4"/>
			<point x="53.427" y="-4" type="curve" smooth="yes"/>
			<point x="63.427" y="-4"/>
			<point x="71.795" y="-1"/>
			<point x="77.654" y="6" type="curve"/>
			<point x="71.27" y="-46"/>
			<point x="43.709" y="-75"/>
			<point x="14.411" y="-110" type="curve"/>
			<point x="12.166" y="-112"/>
			<point x="10.92" y="-114"/>
			<point x="10.798" y="-115" type="curve" smooth="yes"/>
			<point x="10.675" y="-116"/>
			<point x="11.552" y="-117"/>
			<point x="12.429" y="-118" type="curve" smooth="yes"/>
		</contour>
	</outline>
</glyph>
<glyph name="hyphen" format="2">
	<advance width="358"/>
	<unicode hex="002D"/>
	<note>
		hyphen
	</note>
	<outline>
		<contour>
			<point x="74.403" y="289" type="line"/>
			<point x="294.403" y="289" type="line"/>
			<point x="295.63" y="299" type="line"/>
			<point x="75.63" y="299" type="line"/>
			<point x="74.403" y="289" type="line"/>
		</contour>
	</outline>
</glyph>
<glyph name="period" format="2">
	<advance width="175"/>
	<unicode hex="002E"/>
	<note>
		period
	</note>
	<outline>
		<contour>
			<point x="55.936" y="-8" type="curve" smooth="yes"/>
			<point x="74.936" y="-8"/>
			<point x="90.777" y="7"/>
			<point x="92.865" y="24" type="curve" smooth="yes"/>
			<point x="95.198" y="43"/>
			<point x="82.917" y="57"/>
			<point x="63.917" y="57" type="curve" smooth="yes"/>
			<point x="46.917" y="57"/>
			<point x="30.198" y="43"/>
			<point x="27.865" y="24" type="curve" smooth="yes"/>
			<point x="25.777" y="7"/>
			<point x="38.936" y="-8"/>
		</contour>
	</outline>
</glyph>
<glyph name="slash" format="2">
	<advance width="390"/>
	<unicode hex="002F"/>
	<note>
		slash
	</note>
	<outline>
		<contour>
			<point x="-7.871" y="-39" type="line"/>
			<point x="-3.871" y="-39" type="line" smooth="yes"/>
			<point x="0.129" y="-39"/>
			<point x="6.252" y="-38"/>
			<point x="7.866" y="-33" type="curve"/>
			<point x="420.323" y="720" type="line"/>
			<point x="415.323" y="720" type="line" smooth="yes"/>
			<point x="410.323" y="720"/>
			<point x="407.077" y="718"/>
			<point x="404.586" y="714" type="curve" smooth="yes"/>
		</contour>
	</outline>
</glyph>
<glyph name="zero" format="2">
	<advance width="578"/>
	<unicode hex="0030"/>
	<note>
		zero
	</note>
	<outline>
		<contour>
			<point x="549.892" y="350" type="curve"/>
			<point x="549.892" y="350" type="line"/>
			<point x="564.995" y="473"/>
			<point x="547.923" y="562"/>
			<point x="510.167" y="621" type="curve" smooth="yes"/>
			<point x="472.411" y="680"/>
			<point x="413.849" y="708"/>
			<point x="345.849" y="708" type="curve" smooth="yes"/>
			<point x="278.849" y="708"/>
			<point x="212.411" y="680"/>
			<point x="161.167" y="621" type="curve" smooth="yes"/>
			<point x="108.923" y="562"/>
			<point x="68.995" y="473"/>
			<point x="53.892" y="350" type="curve" smooth="yes"/>
			<point x="38.79" y="227"/>
			<point x="56.985" y="139"/>
			<point x="94.741" y="80" type="curve" smooth="yes"/>
			<point x="131.496" y="21"/>
			<point x="191.058" y="-7"/>
			<point x="258.058" y="-7" type="curve" smooth="yes"/>
			<point x="326.058" y="-7"/>
			<point x="391.496" y="21"/>
			<point x="443.741" y="80" type="curve" smooth="yes"/>
			<point x="495.985" y="139"/>
			<point x="534.79" y="227"/>
		</contour>
		<contour>
			<point x="536.892" y="350" type="curve"/>
			<point x="536.892" y="350" type="line"/>
			<point x="522.158" y="230"/>
			<point x="485.476" y="143"/>
			<point x="435.6" y="87" type="curve" smooth="yes"/>
			<point x="385.601" y="30"/>
			<point x="323.286" y="3"/>
			<point x="259.286" y="3" type="curve" smooth="yes"/>
			<point x="195.286" y="3"/>
			<point x="139.601" y="30"/>
			<point x="103.6" y="87" type="curve" smooth="yes"/>
			<point x="67.476" y="143"/>
			<point x="51.158" y="230"/>
			<point x="65.892" y="350" type="curve" smooth="yes"/>
			<point x="80.627" y="470"/>
			<point x="118.309" y="557"/>
			<point x="168.308" y="614" type="curve" smooth="yes"/>
			<point x="218.306" y="671"/>
			<point x="280.621" y="698"/>
			<point x="344.621" y="698" type="curve" smooth="yes"/>
			<point x="408.621" y="698"/>
			<point x="464.306" y="671"/>
			<point x="500.308" y="614" type="curve" smooth="yes"/>
			<point x="536.309" y="557"/>
			<point x="551.627" y="470"/>
		</contour>
	</outline>
</glyph>
<glyph name="one" format="2">
	<advance width="577"/>
	<unicode hex="0031"/>
	<note>
		one
	</note>
	<outline>
		<contour>
			<point x="94.918" y="0" type="line"/>
			<point x="442.918" y="0" type="line"/>
			<point x="443.409" y="4" type="line" smooth="yes"/>
			<point x="443.777" y="7"/>
			<point x="441.146" y="10"/>
			<point x="438.146" y="10" type="curve" smooth="yes"/>
			<point x="278.514" y="13" type="line"/>
			<point x="363.358" y="704" type="line"/>
			<point x="356.358" y="704" type="line"/>
			<point x="137.625" y="527" type="line"/>
			<point x="140.134" y="523" type="line" smooth="yes"/>
			<point x="140.889" y="521"/>
			<point x="142.889" y="521"/>
			<point x="144.889" y="521" type="curve" smooth="yes"/>
			<point x="146.889" y="521"/>
			<point x="149.011" y="522"/>
			<point x="150.134" y="523" type="curve" smooth="yes"/>
			<point x="351.271" y="687" type="line"/>
			<point x="349.166" y="678"/>
			<point x="346.815" y="667"/>
			<point x="345.71" y="658" type="curve" smooth="yes"/>
			<point x="266.514" y="13" type="line"/>
			<point x="102.146" y="10" type="line" smooth="yes"/>
			<point x="99.146" y="10"/>
			<point x="95.777" y="7"/>
			<point x="95.409" y="4" type="curve" smooth="yes"/>
		</contour>
	</outline>
</glyph>
<glyph name="two" format="2">
	<advance width="582"/>
	<unicode hex="0032"/>
	<note>
		two
	</note>
	<outline>
		<contour>
			<point x="39.918" y="0" type="line"/>
			<point x="477.918" y="0" type="line"/>
			<point x="479.268" y="11" type="line"/>
			<point x="112.268" y="11" type="line" smooth="yes"/>
			<point x="89.268" y="11"/>
			<point x="72.146" y="10"/>
			<point x="57.023" y="9" type="curve"/>
			<point x="334.965" y="261" type="line" smooth="yes"/>
			<point x="428.278" y="345"/>
			<point x="510.119" y="417"/>
			<point x="523.38" y="525" type="curve" smooth="yes"/>
			<point x="538.482" y="648"/>
			<point x="457.849" y="708"/>
			<point x="352.849" y="708" type="curve" smooth="yes"/>
			<point x="242.849" y="708"/>
			<point x="155.5" y="640"/>
			<point x="124.502" y="526" type="curve"/>
			<point x="126.502" y="526"/>
			<point x="129.502" y="526"/>
			<point x="129.502" y="526" type="curve" smooth="yes"/>
			<point x="133.502" y="526"/>
			<point x="136.748" y="528"/>
			<point x="138.485" y="534" type="curve" smooth="yes"/>
			<point x="166.518" y="632"/>
			<point x="250.621" y="698"/>
			<point x="351.621" y="698" type="curve" smooth="yes"/>
			<point x="449.621" y="698"/>
			<point x="525.5" y="640"/>
			<point x="511.38" y="525" type="curve" smooth="yes"/>
			<point x="499.101" y="425"/>
			<point x="418.77" y="349"/>
			<point x="328.824" y="268" type="curve" smooth="yes"/>
			<point x="45.391" y="12" type="line" smooth="yes"/>
			<point x="44.268" y="11"/>
			<point x="40.9" y="8"/>
			<point x="40.409" y="4" type="curve" smooth="yes"/>
		</contour>
		<contour>
			<point x="464.532" y="5" type="line"/>
			<point x="479.268" y="11" type="line"/>
			<point x="490.81" y="105" type="line"/>
			<point x="484.81" y="105" type="line" smooth="yes"/>
			<point x="481.81" y="105"/>
			<point x="479.319" y="101"/>
			<point x="478.951" y="98" type="curve" smooth="yes"/>
			<point x="464.532" y="5" type="line"/>
		</contour>
	</outline>
</glyph>
<glyph name="three" format="2">
	<advance width="609"/>
	<unicode hex="0033"/>
	<note>
		three
	</note>
	<outline>
		<contour>
			<point x="269.936" y="-8" type="curve" smooth="yes"/>
			<point x="392.936" y="-8"/>
			<point x="498.741" y="80"/>
			<point x="511.633" y="185" type="curve" smooth="yes"/>
			<point x="523.789" y="284"/>
			<point x="466.261" y="353"/>
			<point x="353.243" y="361" type="curve"/>
			<point x="439.962" y="375"/>
			<point x="522.943" y="440"/>
			<point x="534.362" y="533" type="curve" smooth="yes"/>
			<point x="548.851" y="651"/>
			<point x="469.849" y="708"/>
			<point x="366.849" y="708" type="curve" smooth="yes"/>
			<point x="255.849" y="708"/>
			<point x="168.254" y="638"/>
			<point x="138.502" y="526" type="curve"/>
			<point x="141.502" y="526"/>
			<point x="143.502" y="526"/>
			<point x="143.502" y="526" type="curve" smooth="yes"/>
			<point x="147.502" y="526"/>
			<point x="149.871" y="529"/>
			<point x="151.485" y="534" type="curve" smooth="yes"/>
			<point x="179.518" y="632"/>
			<point x="263.621" y="698"/>
			<point x="365.621" y="698" type="curve" smooth="yes"/>
			<point x="463.621" y="698"/>
			<point x="535.991" y="644"/>
			<point x="522.362" y="533" type="curve" smooth="yes"/>
			<point x="509.715" y="430"/>
			<point x="419.225" y="369"/>
			<point x="299.611" y="364" type="curve"/>
			<point x="298.629" y="356" type="line"/>
			<point x="443.629" y="356"/>
			<point x="512.525" y="290"/>
			<point x="499.633" y="185" type="curve" smooth="yes"/>
			<point x="488.46" y="94"/>
			<point x="398.163" y="2"/>
			<point x="271.163" y="2" type="curve" smooth="yes"/>
			<point x="159.163" y="2"/>
			<point x="101.548" y="54"/>
			<point x="84.318" y="158" type="curve" smooth="yes"/>
			<point x="84.3" y="166"/>
			<point x="81.791" y="170"/>
			<point x="76.791" y="170" type="curve" smooth="yes"/>
			<point x="74.791" y="170"/>
			<point x="72.668" y="169"/>
			<point x="70.546" y="168" type="curve"/>
			<point x="83.425" y="53"/>
			<point x="143.936" y="-8"/>
		</contour>
	</outline>
</glyph>
<glyph name="four" format="2">
	<advance width="593"/>
	<unicode hex="0034"/>
	<note>
		four
	</note>
	<outline>
		<contour>
			<point x="359.918" y="0" type="line"/>
			<point x="371.918" y="0" type="line"/>
			<point x="398.439" y="216" type="line"/>
			<point x="538.439" y="216" type="line" smooth="yes"/>
			<point x="543.439" y="216"/>
			<point x="546.685" y="218"/>
			<point x="547.176" y="222" type="curve" smooth="yes"/>
			<point x="547.667" y="226" type="line"/>
			<point x="399.667" y="226" type="line"/>
			<point x="457.99" y="701" type="line"/>
			<point x="457.99" y="701" type="line"/>
			<point x="450.99" y="701" type="line"/>
			<point x="30.544" y="225" type="line"/>
			<point x="31.053" y="221" type="line" smooth="yes"/>
			<point x="31.685" y="218"/>
			<point x="32.439" y="216"/>
			<point x="39.439" y="216" type="curve" smooth="yes"/>
			<point x="386.439" y="216" type="line"/>
		</contour>
		<contour>
			<point x="44.667" y="226" type="line"/>
			<point x="444.288" y="679" type="line"/>
			<point x="442.92" y="676"/>
			<point x="442.552" y="673"/>
			<point x="442.183" y="670" type="curve"/>
			<point x="387.667" y="226" type="line"/>
		</contour>
	</outline>
</glyph>
<glyph name="five" format="2">
	<advance width="574"/>
	<unicode hex="0035"/>
	<note>
		five
	</note>
	<outline>
		<contour>
			<point x="522.867" y="700" type="line"/>
			<point x="222.867" y="700" type="line"/>
			<point x="133.646" y="405" type="line"/>
			<point x="142.154" y="401" type="line"/>
			<point x="196.751" y="414"/>
			<point x="244.61" y="421"/>
			<point x="284.61" y="421" type="curve" smooth="yes"/>
			<point x="422.61" y="421"/>
			<point x="482.033" y="343"/>
			<point x="467.422" y="224" type="curve" smooth="yes"/>
			<point x="450.6" y="87"/>
			<point x="346.409" y="4"/>
			<point x="220.409" y="4" type="curve" smooth="yes"/>
			<point x="165.409" y="4"/>
			<point x="77.18" y="51"/>
			<point x="65.18" y="51" type="curve" smooth="yes"/>
			<point x="62.18" y="51"/>
			<point x="60.057" y="50"/>
			<point x="58.811" y="48" type="curve" smooth="yes"/>
			<point x="55.32" y="44" type="line"/>
			<point x="90.005" y="17"/>
			<point x="153.936" y="-8"/>
			<point x="218.936" y="-8" type="curve" smooth="yes"/>
			<point x="347.936" y="-8"/>
			<point x="462.863" y="81"/>
			<point x="480.299" y="223" type="curve" smooth="yes"/>
			<point x="495.892" y="350"/>
			<point x="426.838" y="431"/>
			<point x="285.838" y="431" type="curve" smooth="yes"/>
			<point x="245.838" y="431"/>
			<point x="200.101" y="425"/>
			<point x="147.505" y="412" type="curve"/>
			<point x="231.516" y="689" type="line"/>
			<point x="514.516" y="689" type="line" smooth="yes"/>
			<point x="518.516" y="689"/>
			<point x="521.885" y="692"/>
			<point x="522.253" y="695" type="curve" smooth="yes"/>
			<point x="522.867" y="700" type="line"/>
		</contour>
	</outline>
</glyph>
<glyph name="six" format="2">
	<advance width="571"/>
	<unicode hex="0036"/>
	<note>
		six
	</note>
	<outline>
		<contour>
			<point x="250.936" y="-8" type="curve" smooth="yes"/>
			<point x="380.936" y="-8"/>
			<point x="484.372" y="77"/>
			<point x="499.72" y="202" type="curve" smooth="yes"/>
			<point x="514.7" y="324"/>
			<point x="443.137" y="409"/>
			<point x="317.137" y="409" type="curve" smooth="yes"/>
			<point x="235.137" y="409"/>
			<point x="149.857" y="366"/>
			<point x="107.139" y="295" type="curve"/>
			<point x="126.559" y="331"/>
			<point x="154.348" y="370"/>
			<point x="196.242" y="418" type="curve" smooth="yes"/>
			<point x="439.867" y="700" type="line"/>
			<point x="427.867" y="700" type="line" smooth="yes"/>
			<point x="426.867" y="700"/>
			<point x="424.744" y="699"/>
			<point x="423.499" y="697" type="curve" smooth="yes"/>
			<point x="186.856" y="423" type="line" smooth="yes"/>
			<point x="108.928" y="334"/>
			<point x="75.333" y="264"/>
			<point x="69.316" y="215" type="curve" smooth="yes"/>
			<point x="52.495" y="78"/>
			<point x="125.936" y="-8"/>
		</contour>
		<contour>
			<point x="252.163" y="2" type="curve" smooth="yes"/>
			<point x="134.163" y="2"/>
			<point x="65.846" y="89"/>
			<point x="80.334" y="207" type="curve" smooth="yes"/>
			<point x="92.244" y="304"/>
			<point x="190.909" y="399"/>
			<point x="316.909" y="399" type="curve" smooth="yes"/>
			<point x="434.909" y="399"/>
			<point x="502.577" y="323"/>
			<point x="487.72" y="202" type="curve" smooth="yes"/>
			<point x="473.232" y="84"/>
			<point x="380.163" y="2"/>
		</contour>
	</outline>
</glyph>
<glyph name="seven" format="2">
	<advance width="585"/>
	<unicode hex="0037"/>
	<note>
		seven
	</note>
	<outline>
		<contour>
			<point x="143.918" y="0" type="line"/>
			<point x="149.918" y="0" type="line" smooth="yes"/>
			<point x="154.918" y="0"/>
			<point x="159.163" y="2"/>
			<point x="161.654" y="6" type="curve" smooth="yes"/>
			<point x="593.271" y="687" type="line" smooth="yes"/>
			<point x="594.639" y="690"/>
			<point x="595.885" y="692"/>
			<point x="596.13" y="694" type="curve" smooth="yes"/>
			<point x="596.867" y="700" type="line"/>
			<point x="139.867" y="700" type="line"/>
			<point x="139.253" y="695" type="line" smooth="yes"/>
			<point x="138.762" y="691"/>
			<point x="140.516" y="689"/>
			<point x="144.516" y="689" type="curve" smooth="yes"/>
			<point x="581.516" y="689" type="line"/>
			<point x="580.271" y="687"/>
			<point x="578.025" y="685"/>
			<point x="576.657" y="682" type="curve" smooth="yes"/>
		</contour>
		<contour>
			<point x="138.025" y="685" type="line"/>
			<point x="147.025" y="685" type="line"/>
			<point x="148.499" y="697" type="line"/>
			<point x="139.499" y="697" type="line"/>
		</contour>
		<contour>
			<point x="153.253" y="695" type="line"/>
			<point x="138.516" y="689" type="line"/>
			<point x="126.975" y="595" type="line"/>
			<point x="132.975" y="595" type="line" smooth="yes"/>
			<point x="135.975" y="595"/>
			<point x="138.466" y="599"/>
			<point x="138.834" y="602" type="curve" smooth="yes"/>
		</contour>
	</outline>
</glyph>
<glyph name="eight" format="2">
	<advance width="576"/>
	<unicode hex="0038"/>
	<note>
		eight
	</note>
	<outline>
		<contour>
			<point x="256.936" y="-8" type="curve"/>
			<point x="384.936" y="-8"/>
			<point x="485.653" y="63"/>
			<point x="499.896" y="179" type="curve" smooth="yes"/>
			<point x="513.894" y="293"/>
			<point x="446.77" y="349"/>
			<point x="349.857" y="366" type="curve"/>
			<point x="441.821" y="382"/>
			<point x="507.048" y="449"/>
			<point x="517.485" y="534" type="curve" smooth="yes"/>
			<point x="529.886" y="635"/>
			<point x="462.849" y="708"/>
			<point x="344.849" y="708" type="curve" smooth="yes"/>
			<point x="227.849" y="708"/>
			<point x="141.886" y="635"/>
			<point x="129.485" y="534" type="curve" smooth="yes"/>
			<point x="119.048" y="449"/>
			<point x="167.821" y="382"/>
			<point x="255.857" y="366" type="curve"/>
			<point x="157.77" y="349"/>
			<point x="73.771" y="292"/>
			<point x="59.896" y="179" type="curve" smooth="yes"/>
			<point x="45.53" y="62"/>
			<point x="130.936" y="-8"/>
		</contour>
		<contour>
			<point x="258.163" y="2" type="curve"/>
			<point x="139.163" y="2"/>
			<point x="58.513" y="70"/>
			<point x="71.896" y="179" type="curve" smooth="yes"/>
			<point x="86.262" y="296"/>
			<point x="182.12" y="360"/>
			<point x="302.12" y="360" type="curve" smooth="yes"/>
			<point x="419.12" y="360"/>
			<point x="502.753" y="300"/>
			<point x="487.896" y="179" type="curve" smooth="yes"/>
			<point x="474.513" y="70"/>
			<point x="378.163" y="2"/>
		</contour>
		<contour>
			<point x="303.348" y="370" type="curve"/>
			<point x="189.348" y="370"/>
			<point x="130.311" y="443"/>
			<point x="141.485" y="534" type="curve" smooth="yes"/>
			<point x="153.395" y="631"/>
			<point x="233.621" y="698"/>
			<point x="343.621" y="698" type="curve" smooth="yes"/>
			<point x="454.621" y="698"/>
			<point x="517.395" y="631"/>
			<point x="505.485" y="534" type="curve" smooth="yes"/>
			<point x="494.311" y="443"/>
			<point x="419.348" y="370"/>
		</contour>
	</outline>
</glyph>
<glyph name="nine" format="2">
	<advance width="555"/>
	<unicode hex="0039"/>
	<note>
		nine
	</note>
	<outline>
		<contour>
			<point x="150.918" y="0" type="line"/>
			<point x="160.918" y="0" type="line" smooth="yes"/>
			<point x="163.918" y="0"/>
			<point x="164.918" y="0"/>
			<point x="167.286" y="3" type="curve" smooth="yes"/>
			<point x="397.894" y="293" type="line" smooth="yes"/>
			<point x="457.103" y="368"/>
			<point x="503.592" y="429"/>
			<point x="511.573" y="494" type="curve" smooth="yes"/>
			<point x="527.29" y="622"/>
			<point x="454.849" y="708"/>
			<point x="336.849" y="708" type="curve" smooth="yes"/>
			<point x="215.849" y="708"/>
			<point x="111.535" y="624"/>
			<point x="97.047" y="506" type="curve" smooth="yes"/>
			<point x="82.804" y="390"/>
			<point x="152.613" y="307"/>
			<point x="273.613" y="307" type="curve" smooth="yes"/>
			<point x="355.613" y="307"/>
			<point x="436.015" y="351"/>
			<point x="479.733" y="422" type="curve"/>
			<point x="458.944" y="383"/>
			<point x="428.524" y="347"/>
			<point x="389.508" y="298" type="curve" smooth="yes"/>
		</contour>
		<contour>
			<point x="273.84" y="317" type="curve" smooth="yes"/>
			<point x="162.84" y="317"/>
			<point x="95.049" y="392"/>
			<point x="109.047" y="506" type="curve" smooth="yes"/>
			<point x="123.167" y="621"/>
			<point x="217.621" y="698"/>
			<point x="335.621" y="698" type="curve" smooth="yes"/>
			<point x="445.621" y="698"/>
			<point x="514.43" y="615"/>
			<point x="500.433" y="501" type="curve" smooth="yes"/>
			<point x="489.137" y="409"/>
			<point x="395.84" y="317"/>
		</contour>
	</outline>
</glyph>
<glyph name="colon" format="2">
	<advance width="175"/>
	<unicode hex="003A"/>
	<note>
		colon
	</note>
	<outline>
		<contour>
			<point x="27.865" y="24" type="curve"/>
			<point x="27.865" y="24" type="line"/>
			<point x="25.777" y="7"/>
			<point x="38.936" y="-8"/>
			<point x="55.936" y="-8" type="curve" smooth="yes"/>
			<point x="74.936" y="-8"/>
			<point x="90.777" y="7"/>
			<point x="92.865" y="24" type="curve" smooth="yes"/>
			<point x="95.198" y="43"/>
			<point x="82.917" y="57"/>
			<point x="63.917" y="57" type="curve" smooth="yes"/>
			<point x="46.917" y="57"/>
			<point x="30.198" y="43"/>
		</contour>
		<contour>
			<point x="79.311" y="443" type="curve"/>
			<point x="79.311" y="443" type="line"/>
			<point x="77.224" y="426"/>
			<point x="90.382" y="411"/>
			<point x="107.382" y="411" type="curve" smooth="yes"/>
			<point x="126.382" y="411"/>
			<point x="142.224" y="426"/>
			<point x="144.311" y="443" type="curve" smooth="yes"/>
			<point x="146.644" y="462"/>
			<point x="134.363" y="476"/>
			<point x="115.363" y="476" type="curve" smooth="yes"/>
			<point x="98.363" y="476"/>
			<point x="81.644" y="462"/>
		</contour>
	</outline>
</glyph>
<glyph name="semicolon" format="2">
	<advance width="180"/>
	<unicode hex="003B"/>
	<note>
		semicolon
	</note>
	<outline>
		<contour>
			<point x="112.382" y="411" type="curve" smooth="yes"/>
			<point x="131.382" y="411"/>
			<point x="147.224" y="426"/>
			<point x="149.311" y="443" type="curve" smooth="yes"/>
			<point x="151.644" y="462"/>
			<point x="139.363" y="476"/>
			<point x="120.363" y="476" type="curve" smooth="yes"/>
			<point x="103.363" y="476"/>
			<point x="86.644" y="462"/>
			<point x="84.311" y="443" type="curve" smooth="yes"/>
			<point x="82.224" y="426"/>
			<point x="95.382" y="411"/>
		</contour>
		<contour>
			<point x="13.306" y="-119" type="line"/>
			<point x="52.727" y="-83"/>
			<point x="82.743" y="-34"/>
			<point x="89.128" y="18" type="curve" smooth="yes"/>
			<point x="92.198" y="43"/>
			<point x="81.917" y="57"/>
			<point x="62.917" y="57" type="curve" smooth="yes"/>
			<point x="45.917" y="57"/>
			<point x="31.075" y="42"/>
			<point x="29.11" y="26" type="curve" smooth="yes"/>
			<point x="27.023" y="9"/>
			<point x="37.427" y="-4"/>
			<point x="53.427" y="-4" type="curve" smooth="yes"/>
			<point x="63.427" y="-4"/>
			<point x="71.795" y="-1"/>
			<point x="77.654" y="6" type="curve"/>
			<point x="71.27" y="-46"/>
			<point x="43.709" y="-75"/>
			<point x="14.411" y="-110" type="curve"/>
			<point x="12.166" y="-112"/>
			<point x="10.92" y="-114"/>
			<point x="10.798" y="-115" type="curve" smooth="yes"/>
			<point x="10.675" y="-116"/>
			<point x="11.552" y="-117"/>
			<point x="12.429" y="-118" type="curve" smooth="yes"/>
		</contour>
	</outline>
</glyph>
<glyph name="less" format="2">
	<advance width="501"/>
	<unicode hex="003C"/>
	<note>
		less
	</note>
	<outline>
		<contour>
			<point x="44.682" y="332" type="line"/>
			<point x="386.844" y="146" type="line"/>
			<point x="387.581" y="152" type="line" smooth="yes"/>
			<point x="387.949" y="155"/>
			<point x="385.441" y="159"/>
			<point x="379.809" y="162" type="curve" smooth="yes"/>
			<point x="77.823" y="325" type="line" smooth="yes"/>
			<point x="70.314" y="329"/>
			<point x="63.682" y="332"/>
			<point x="56.051" y="335" type="curve"/>
			<point x="64.419" y="338"/>
			<point x="71.787" y="341"/>
			<point x="80.278" y="345" type="curve" smooth="yes"/>
			<point x="422.292" y="508" type="line" smooth="yes"/>
			<point x="428.661" y="511"/>
			<point x="432.152" y="515"/>
			<point x="432.643" y="519" type="curve" smooth="yes"/>
			<point x="433.257" y="524" type="line"/>
			<point x="45.419" y="338" type="line"/>
			<point x="44.682" y="332" type="line"/>
		</contour>
	</outline>
</glyph>
<glyph name="equal" format="2">
	<advance width="540"/>
	<unicode hex="003D"/>
	<note>
		equal
	</note>
	<outline>
		<contour>
			<point x="71.842" y="260" type="line"/>
			<point x="471.842" y="260" type="line"/>
			<point x="473.07" y="270" type="line"/>
			<point x="73.07" y="270" type="line"/>
			<point x="71.842" y="260" type="line"/>
		</contour>
		<contour>
			<point x="89.891" y="407" type="line"/>
			<point x="489.891" y="407" type="line"/>
			<point x="491.119" y="417" type="line"/>
			<point x="91.119" y="417" type="line"/>
			<point x="89.891" y="407" type="line"/>
		</contour>
	</outline>
</glyph>
<glyph name="greater" format="2">
	<advance width="450"/>
	<unicode hex="003E"/>
	<note>
		greater
	</note>
	<outline>
		<contour>
			<point x="427.419" y="338" type="line"/>
			<point x="85.257" y="524" type="line"/>
			<point x="84.52" y="518" type="line" smooth="yes"/>
			<point x="84.152" y="515"/>
			<point x="86.661" y="511"/>
			<point x="92.292" y="508" type="curve" smooth="yes"/>
			<point x="394.278" y="345" type="line" smooth="yes"/>
			<point x="401.787" y="341"/>
			<point x="408.419" y="338"/>
			<point x="416.051" y="335" type="curve"/>
			<point x="407.682" y="332"/>
			<point x="400.314" y="329"/>
			<point x="391.823" y="325" type="curve" smooth="yes"/>
			<point x="49.809" y="162" type="line" smooth="yes"/>
			<point x="43.441" y="159"/>
			<point x="39.949" y="155"/>
			<point x="39.458" y="151" type="curve" smooth="yes"/>
			<point x="38.844" y="146" type="line"/>
			<point x="426.682" y="332" type="line"/>
			<point x="427.419" y="338" type="line"/>
		</contour>
	</outline>
</glyph>
<glyph name="question" format="2">
	<advance width="384"/>
	<unicode hex="003F"/>
	<note>
		question
	</note>
	<outline>
		<contour>
			<point x="166.141" y="238" type="line"/>
			<point x="174.141" y="238" type="line"/>
			<point x="187.7" y="324" type="line" smooth="yes"/>
			<point x="192.997" y="359"/>
			<point x="242.435" y="387"/>
			<point x="284.996" y="416" type="curve" smooth="yes"/>
			<point x="334.171" y="450"/>
			<point x="376.819" y="496"/>
			<point x="385.414" y="566" type="curve" smooth="yes"/>
			<point x="396.219" y="654"/>
			<point x="326.849" y="708"/>
			<point x="242.849" y="708" type="curve" smooth="yes"/>
			<point x="177.849" y="708"/>
			<point x="123.166" y="678"/>
			<point x="83.5" y="640" type="curve"/>
			<point x="86.132" y="637" type="line" smooth="yes"/>
			<point x="87.886" y="635"/>
			<point x="88.763" y="634"/>
			<point x="91.763" y="634" type="curve" smooth="yes"/>
			<point x="97.763" y="634"/>
			<point x="149.621" y="698"/>
			<point x="241.621" y="698" type="curve" smooth="yes"/>
			<point x="319.621" y="698"/>
			<point x="383.359" y="647"/>
			<point x="373.414" y="566" type="curve" smooth="yes"/>
			<point x="365.064" y="498"/>
			<point x="321.539" y="453"/>
			<point x="272.487" y="420" type="curve" smooth="yes"/>
			<point x="230.049" y="392"/>
			<point x="181.489" y="363"/>
			<point x="176.823" y="325" type="curve" smooth="yes"/>
			<point x="176.7" y="324"/>
			<point x="176.7" y="324"/>
			<point x="176.577" y="323" type="curve"/>
		</contour>
		<contour>
			<point x="134.936" y="-8" type="curve" smooth="yes"/>
			<point x="153.936" y="-8"/>
			<point x="169.777" y="7"/>
			<point x="171.865" y="24" type="curve" smooth="yes"/>
			<point x="174.198" y="43"/>
			<point x="161.917" y="57"/>
			<point x="142.917" y="57" type="curve" smooth="yes"/>
			<point x="125.917" y="57"/>
			<point x="109.198" y="43"/>
			<point x="106.865" y="24" type="curve" smooth="yes"/>
			<point x="104.777" y="7"/>
			<point x="117.936" y="-8"/>
		</contour>
	</outline>
</glyph>
<glyph name="at" format="2">
	<advance width="781"/>
	<unicode hex="0040"/>
	<note>
		at
	</note>
	<outline>
		<contour>
			<point x="377.429" y="-118" type="curve" smooth="yes"/>
			<point x="482.429" y="-118"/>
			<point x="573.499" y="-93"/>
			<point x="655.884" y="-41" type="curve"/>
			<point x="653.498" y="-36" type="line" smooth="yes"/>
			<point x="652.743" y="-34"/>
			<point x="651.866" y="-33"/>
			<point x="648.866" y="-33" type="curve" smooth="yes"/>
			<point x="647.866" y="-33"/>
			<point x="645.866" y="-33"/>
			<point x="644.743" y="-34" type="curve" smooth="yes"/>
			<point x="562.481" y="-85"/>
			<point x="475.78" y="-107"/>
			<point x="378.78" y="-107" type="curve" smooth="yes"/>
			<point x="279.78" y="-107"/>
			<point x="191.709" y="-75"/>
			<point x="132.444" y="-12" type="curve" smooth="yes"/>
			<point x="72.303" y="52"/>
			<point x="41.722" y="145"/>
			<point x="56.578" y="266" type="curve" smooth="yes"/>
			<point x="69.103" y="368"/>
			<point x="118.381" y="468"/>
			<point x="197.099" y="539" type="curve" smooth="yes"/>
			<point x="268.957" y="603"/>
			<point x="359.868" y="643"/>
			<point x="455.868" y="643" type="curve" smooth="yes"/>
			<point x="540.868" y="643"/>
			<point x="616.921" y="619"/>
			<point x="670.659" y="568" type="curve" smooth="yes"/>
			<point x="723.397" y="517"/>
			<point x="750.943" y="440"/>
			<point x="738.051" y="335" type="curve" smooth="yes"/>
			<point x="721.966" y="204"/>
			<point x="640.81" y="105"/>
			<point x="546.81" y="105" type="curve" smooth="yes"/>
			<point x="502.81" y="105"/>
			<point x="474.389" y="126"/>
			<point x="481.756" y="186" type="curve" smooth="yes"/>
			<point x="484.334" y="207"/>
			<point x="491.649" y="234"/>
			<point x="504.947" y="269" type="curve" smooth="yes"/>
			<point x="569.575" y="437" type="line"/>
			<point x="550.925" y="448"/>
			<point x="521.416" y="452"/>
			<point x="493.416" y="452" type="curve" smooth="yes"/>
			<point x="363.416" y="452"/>
			<point x="244.91" y="342"/>
			<point x="229.316" y="215" type="curve" smooth="yes"/>
			<point x="221.458" y="151"/>
			<point x="247.951" y="98"/>
			<point x="316.951" y="98" type="curve" smooth="yes"/>
			<point x="376.951" y="98"/>
			<point x="432.125" y="132"/>
			<point x="476.58" y="209" type="curve"/>
			<point x="458.353" y="142"/>
			<point x="474.582" y="95"/>
			<point x="544.582" y="95" type="curve" smooth="yes"/>
			<point x="646.582" y="95"/>
			<point x="732.352" y="199"/>
			<point x="749.051" y="335" type="curve" smooth="yes"/>
			<point x="757.891" y="407"/>
			<point x="747.135" y="466"/>
			<point x="724.029" y="514" type="curve" smooth="yes"/>
			<point x="678.325" y="606"/>
			<point x="572.096" y="653"/>
			<point x="457.096" y="653" type="curve" smooth="yes"/>
			<point x="358.096" y="653"/>
			<point x="263.185" y="613"/>
			<point x="187.835" y="545" type="curve" smooth="yes"/>
			<point x="112.486" y="477"/>
			<point x="59.453" y="379"/>
			<point x="45.578" y="266" type="curve" smooth="yes"/>
			<point x="30.353" y="142"/>
			<point x="61.566" y="46"/>
			<point x="122.585" y="-19" type="curve" smooth="yes"/>
			<point x="182.604" y="-84"/>
			<point x="273.429" y="-118"/>
		</contour>
		<contour>
			<point x="320.179" y="108" type="curve"/>
			<point x="260.179" y="108"/>
			<point x="233.949" y="155"/>
			<point x="241.316" y="215" type="curve" smooth="yes"/>
			<point x="255.805" y="333"/>
			<point x="366.189" y="442"/>
			<point x="492.189" y="442" type="curve" smooth="yes"/>
			<point x="521.189" y="442"/>
			<point x="536.697" y="438"/>
			<point x="556.083" y="433" type="curve"/>
			<point x="494.192" y="271" type="line" smooth="yes"/>
			<point x="450.072" y="156"/>
			<point x="389.179" y="108"/>
		</contour>
	</outline>
</glyph>
<glyph name="A" format="2">
	<advance width="760"/>
	<unicode hex="0041"/>
	<anchor x="635.163" y="2" name="ogonek"/>
	<anchor x="349.918" y="0" name="bottom"/>
	<anchor x="435.867" y="700" name="top"/>
	<note>
		A
	</note>
	<outline>
		<contour>
			<point x="52.918" y="0" type="line"/>
			<point x="60.918" y="0" type="line" smooth="yes"/>
			<point x="64.918" y="0"/>
			<point x="67.163" y="2"/>
			<point x="68.532" y="5" type="curve"/>
			<point x="423.324" y="663" type="line" smooth="yes"/>
			<point x="425.938" y="668"/>
			<point x="432.411" y="680"/>
			<point x="433.902" y="684" type="curve"/>
			<point x="434.411" y="680"/>
			<point x="437.938" y="668"/>
			<point x="439.324" y="663" type="curve" smooth="yes"/>
			<point x="632.532" y="5" type="line"/>
			<point x="633.163" y="2"/>
			<point x="634.918" y="0"/>
			<point x="637.918" y="0" type="curve" smooth="yes"/>
			<point x="646.918" y="0" type="line"/>
			<point x="440.867" y="700" type="line"/>
			<point x="430.867" y="700" type="line"/>
		</contour>
		<contour>
			<point x="58.918" y="0" type="line"/>
			<point x="71.918" y="0" type="line"/>
			<point x="73.268" y="11" type="line"/>
			<point x="60.268" y="11" type="line"/>
		</contour>
		<contour>
			<point x="194.614" y="250" type="line"/>
			<point x="565.614" y="250" type="line"/>
			<point x="564.842" y="260" type="line"/>
			<point x="197.842" y="260" type="line"/>
		</contour>
		<contour>
			<point x="625.918" y="0" type="line"/>
			<point x="638.918" y="0" type="line"/>
			<point x="640.268" y="11" type="line"/>
			<point x="627.268" y="11" type="line"/>
		</contour>
		<contour>
			<point x="-14.082" y="0" type="line"/>
			<point x="70.918" y="0" type="line"/>
			<point x="71.391" y="12" type="line"/>
			<point x="-5.854" y="10" type="line" smooth="yes"/>
			<point x="-8.854" y="10"/>
			<point x="-13.1" y="8"/>
			<point x="-13.468" y="5" type="curve" smooth="yes"/>
		</contour>
		<contour>
			<point x="68.918" y="0" type="line"/>
			<point x="153.918" y="0" type="line"/>
			<point x="154.532" y="5" type="line" smooth="yes"/>
			<point x="154.9" y="8"/>
			<point x="151.146" y="10"/>
			<point x="148.146" y="10" type="curve" smooth="yes"/>
			<point x="71.391" y="12" type="line"/>
		</contour>
		<contour>
			<point x="545.918" y="0" type="line"/>
			<point x="630.918" y="0" type="line"/>
			<point x="631.391" y="12" type="line"/>
			<point x="554.146" y="10" type="line" smooth="yes"/>
			<point x="551.146" y="10"/>
			<point x="546.9" y="8"/>
			<point x="546.532" y="5" type="curve" smooth="yes"/>
		</contour>
		<contour>
			<point x="628.918" y="0" type="line"/>
			<point x="713.918" y="0" type="line"/>
			<point x="714.532" y="5" type="line" smooth="yes"/>
			<point x="714.9" y="8"/>
			<point x="711.146" y="10"/>
			<point x="708.146" y="10" type="curve" smooth="yes"/>
			<point x="631.391" y="12" type="line"/>
		</contour>
	</outline>
</glyph>
<glyph name="B" format="2">
	<advance width="600"/>
	<unicode hex="0042"/>
	<anchor x="355.867" y="700" name="top"/>
	<anchor x="269.918" y="0" name="bottom"/>
	<note>
		B
	</note>
	<outline>
		<contour>
			<point x="93.918" y="0" type="line"/>
			<point x="302.918" y="0" type="line" smooth="yes"/>
			<point x="442.918" y="0"/>
			<point x="537.53" y="62"/>
			<point x="552.51" y="184" type="curve" smooth="yes"/>
			<point x="565.034" y="286"/>
			<point x="494.77" y="349"/>
			<point x="380.752" y="357" type="curve"/>
			<point x="472.103" y="368"/>
			<point x="551.066" y="441"/>
			<point x="561.502" y="526" type="curve" smooth="yes"/>
			<point x="575.377" y="639"/>
			<point x="510.867" y="700"/>
			<point x="361.867" y="700" type="curve" smooth="yes"/>
			<point x="179.867" y="700" type="line"/>
		</contour>
		<contour>
			<point x="107.146" y="10" type="line"/>
			<point x="148.892" y="350" type="line"/>
			<point x="346.892" y="350" type="line" smooth="yes"/>
			<point x="472.892" y="350"/>
			<point x="553.525" y="290"/>
			<point x="540.51" y="184" type="curve" smooth="yes"/>
			<point x="526.144" y="67"/>
			<point x="436.146" y="10"/>
			<point x="304.146" y="10" type="curve" smooth="yes"/>
		</contour>
		<contour>
			<point x="150.12" y="360" type="line"/>
			<point x="190.639" y="690" type="line"/>
			<point x="360.639" y="690" type="line" smooth="yes"/>
			<point x="503.639" y="690"/>
			<point x="563.272" y="630"/>
			<point x="550.502" y="526" type="curve" smooth="yes"/>
			<point x="539.697" y="438"/>
			<point x="459.12" y="360"/>
			<point x="325.12" y="360" type="curve" smooth="yes"/>
		</contour>
		<contour>
			<point x="11.918" y="0" type="line"/>
			<point x="96.918" y="0" type="line"/>
			<point x="97.391" y="12" type="line"/>
			<point x="20.146" y="10" type="line" smooth="yes"/>
			<point x="17.146" y="10"/>
			<point x="12.9" y="8"/>
			<point x="12.532" y="5" type="curve" smooth="yes"/>
		</contour>
		<contour>
			<point x="182.867" y="700" type="line"/>
			<point x="97.867" y="700" type="line"/>
			<point x="97.253" y="695" type="line" smooth="yes"/>
			<point x="96.885" y="692"/>
			<point x="100.639" y="690"/>
			<point x="103.639" y="690" type="curve" smooth="yes"/>
			<point x="180.394" y="688" type="line"/>
		</contour>
	</outline>
</glyph>
<glyph name="C" format="2">
	<advance width="658"/>
	<unicode hex="0043"/>
	<anchor x="428.867" y="700" name="top"/>
	<anchor x="342.918" y="0" name="bottom"/>
	<note>
		C
	</note>
	<outline>
		<contour>
			<point x="341.936" y="-8" type="curve" smooth="yes"/>
			<point x="444.936" y="-8"/>
			<point x="526.479" y="29"/>
			<point x="596.846" y="89" type="curve"/>
			<point x="593.337" y="93" type="line" smooth="yes"/>
			<point x="592.46" y="94"/>
			<point x="591.582" y="95"/>
			<point x="590.582" y="95" type="curve" smooth="yes"/>
			<point x="588.582" y="95"/>
			<point x="587.46" y="94"/>
			<point x="585.214" y="92" type="curve" smooth="yes"/>
			<point x="530.198" y="43"/>
			<point x="448.163" y="2"/>
			<point x="343.163" y="2" type="curve" smooth="yes"/>
			<point x="146.163" y="2"/>
			<point x="43.09" y="148"/>
			<point x="67.892" y="350" type="curve" smooth="yes"/>
			<point x="92.818" y="553"/>
			<point x="230.621" y="698"/>
			<point x="443.621" y="698" type="curve" smooth="yes"/>
			<point x="533.621" y="698"/>
			<point x="612.429" y="672"/>
			<point x="652.5" y="640" type="curve"/>
			<point x="661.377" y="639" type="line"/>
			<point x="662.114" y="645" type="line"/>
			<point x="624.78" y="683"/>
			<point x="531.849" y="708"/>
			<point x="440.849" y="708" type="curve" smooth="yes"/>
			<point x="332.849" y="708"/>
			<point x="247.552" y="673"/>
			<point x="180.816" y="610" type="curve" smooth="yes"/>
			<point x="113.958" y="546"/>
			<point x="69.03" y="457"/>
			<point x="55.892" y="350" type="curve" smooth="yes"/>
			<point x="42.263" y="239"/>
			<point x="66.458" y="151"/>
			<point x="116.846" y="89" type="curve" smooth="yes"/>
			<point x="167.233" y="27"/>
			<point x="241.936" y="-8"/>
		</contour>
		<contour>
			<point x="648.114" y="645" type="line"/>
			<point x="639.695" y="552" type="line" smooth="yes"/>
			<point x="639.327" y="549"/>
			<point x="640.835" y="545"/>
			<point x="643.835" y="545" type="curve" smooth="yes"/>
			<point x="649.835" y="545" type="line"/>
			<point x="661.377" y="639" type="line"/>
			<point x="648.114" y="645" type="line"/>
		</contour>
	</outline>
</glyph>
<glyph name="F" format="2">
	<advance width="566"/>
	<unicode hex="0046"/>
	<note>
		F
	</note>
	<outline>
		<contour>
			<point x="93.918" y="0" type="line"/>
			<point x="105.918" y="0" type="line"/>
			<point x="147.665" y="340" type="line"/>
			<point x="456.665" y="340" type="line"/>
			<point x="458.015" y="351" type="line"/>
			<point x="149.015" y="351" type="line"/>
			<point x="190.516" y="689" type="line"/>
			<point x="587.516" y="689" type="line"/>
			<point x="588.867" y="700" type="line"/>
			<point x="179.867" y="700" type="line"/>
		</contour>
		<contour>
			<point x="574.253" y="695" type="line"/>
			<point x="565.834" y="602" type="line" smooth="yes"/>
			<point x="565.466" y="599"/>
			<point x="566.975" y="595"/>
			<point x="569.975" y="595" type="curve" smooth="yes"/>
			<point x="575.975" y="595" type="line"/>
			<point x="587.516" y="689" type="line"/>
			<point x="574.253" y="695" type="line"/>
		</contour>
		<contour>
			<point x="182.867" y="700" type="line"/>
			<point x="97.867" y="700" type="line"/>
			<point x="97.253" y="695" type="line" smooth="yes"/>
			<point x="96.885" y="692"/>
			<point x="100.639" y="690"/>
			<point x="103.639" y="690" type="curve" smooth="yes"/>
			<point x="180.394" y="688" type="line"/>
		</contour>
		<contour>
			<point x="11.918" y="0" type="line"/>
			<point x="96.918" y="0" type="line"/>
			<point x="97.391" y="12" type="line"/>
			<point x="20.146" y="10" type="line" smooth="yes"/>
			<point x="17.146" y="10"/>
			<point x="12.9" y="8"/>
			<point x="12.532" y="5" type="curve" smooth="yes"/>
		</contour>
		<contour>
			<point x="102.918" y="0" type="line"/>
			<point x="187.918" y="0" type="line"/>
			<point x="188.532" y="5" type="line" smooth="yes"/>
			<point x="188.9" y="8"/>
			<point x="185.146" y="10"/>
			<point x="182.146" y="10" type="curve" smooth="yes"/>
			<point x="105.391" y="12" type="line"/>
		</contour>
	</outline>
</glyph>
<glyph name="G" format="2">
	<advance width="718"/>
	<unicode hex="0047"/>
	<anchor x="443.867" y="700" name="top"/>
	<anchor x="369.918" y="0" name="bottom"/>
	<note>
		G
	</note>
	<outline>
		<contour>
			<point x="345.936" y="-8" type="curve" smooth="yes"/>
			<point x="457.936" y="-8"/>
			<point x="535.128" y="18"/>
			<point x="619.39" y="69" type="curve"/>
			<point x="647.876" y="301" type="line"/>
			<point x="473.876" y="301" type="line"/>
			<point x="473.262" y="296" type="line" smooth="yes"/>
			<point x="472.894" y="293"/>
			<point x="474.648" y="291"/>
			<point x="478.648" y="291" type="curve" smooth="yes"/>
			<point x="635.648" y="291" type="line"/>
			<point x="609.004" y="74" type="line"/>
			<point x="527.11" y="26"/>
			<point x="455.163" y="2"/>
			<point x="347.163" y="2" type="curve" smooth="yes"/>
			<point x="149.163" y="2"/>
			<point x="42.23" y="141"/>
			<point x="67.892" y="350" type="curve" smooth="yes"/>
			<point x="93.923" y="562"/>
			<point x="234.621" y="698"/>
			<point x="443.621" y="698" type="curve" smooth="yes"/>
			<point x="544.621" y="698"/>
			<point x="625.166" y="678"/>
			<point x="676.623" y="641" type="curve"/>
			<point x="686.377" y="639" type="line"/>
			<point x="687.114" y="645" type="line"/>
			<point x="642.148" y="686"/>
			<point x="543.849" y="708"/>
			<point x="444.849" y="708" type="curve" smooth="yes"/>
			<point x="342.849" y="708"/>
			<point x="251.92" y="676"/>
			<point x="181.062" y="612" type="curve" smooth="yes"/>
			<point x="109.958" y="546"/>
			<point x="68.908" y="456"/>
			<point x="55.892" y="350" type="curve" smooth="yes"/>
			<point x="42.141" y="238"/>
			<point x="65.335" y="150"/>
			<point x="115.846" y="89" type="curve" smooth="yes"/>
			<point x="168.865" y="24"/>
			<point x="249.936" y="-8"/>
		</contour>
		<contour>
			<point x="673.114" y="645" type="line"/>
			<point x="664.695" y="552" type="line" smooth="yes"/>
			<point x="664.327" y="549"/>
			<point x="665.835" y="545"/>
			<point x="668.835" y="545" type="curve" smooth="yes"/>
			<point x="674.835" y="545" type="line"/>
			<point x="686.377" y="639" type="line"/>
			<point x="673.114" y="645" type="line"/>
		</contour>
	</outline>
</glyph>
<glyph name="J" format="2">
	<advance width="394"/>
	<unicode hex="004A"/>
	<anchor x="335.867" y="700" name="top"/>
	<note>
		J
	</note>
	<outline>
		<contour>
			<point x="57.936" y="-8" type="curve" smooth="yes"/>
			<point x="178.936" y="-8"/>
			<point x="265.249" y="76"/>
			<point x="283.667" y="226" type="curve" smooth="yes"/>
			<point x="341.867" y="700" type="line"/>
			<point x="329.867" y="700" type="line"/>
			<point x="271.667" y="226" type="line" smooth="yes"/>
			<point x="254.109" y="83"/>
			<point x="173.163" y="2"/>
			<point x="65.163" y="2" type="curve" smooth="yes"/>
			<point x="47.163" y="2"/>
			<point x="31.409" y="4"/>
			<point x="18.777" y="7" type="curve" smooth="yes"/>
			<point x="1.268" y="11"/>
			<point x="-11.24" y="15"/>
			<point x="-18.24" y="15" type="curve" smooth="yes"/>
			<point x="-23.24" y="15"/>
			<point x="-25.486" y="13"/>
			<point x="-26.854" y="10" type="curve" smooth="yes"/>
			<point x="-28.223" y="7" type="line"/>
			<point x="0.549" y="-3"/>
			<point x="27.936" y="-8"/>
		</contour>
		<contour>
			<point x="332.867" y="700" type="line"/>
			<point x="247.867" y="700" type="line"/>
			<point x="247.253" y="695" type="line" smooth="yes"/>
			<point x="246.885" y="692"/>
			<point x="250.639" y="690"/>
			<point x="253.639" y="690" type="curve" smooth="yes"/>
			<point x="330.394" y="688" type="line"/>
		</contour>
		<contour>
			<point x="423.867" y="700" type="line"/>
			<point x="338.867" y="700" type="line"/>
			<point x="338.394" y="688" type="line"/>
			<point x="415.639" y="690" type="line" smooth="yes"/>
			<point x="418.639" y="690"/>
			<point x="422.885" y="692"/>
			<point x="423.253" y="695" type="curve" smooth="yes"/>
		</contour>
	</outline>
</glyph>
<glyph name="K" format="2">
	<advance width="698"/>
	<unicode hex="004B"/>
	<anchor x="399.867" y="700" name="top"/>
	<anchor x="313.918" y="0" name="bottom"/>
	<note>
		K
	</note>
	<outline>
		<contour>
			<point x="93.918" y="0" type="line"/>
			<point x="105.918" y="0" type="line"/>
			<point x="149.138" y="352" type="line"/>
			<point x="196.138" y="352" type="line" smooth="yes"/>
			<point x="220.138" y="352"/>
			<point x="229.77" y="349"/>
			<point x="245.682" y="332" type="curve" smooth="yes"/>
			<point x="549.777" y="7" type="line" smooth="yes"/>
			<point x="554.163" y="2"/>
			<point x="557.918" y="0"/>
			<point x="566.918" y="0" type="curve" smooth="yes"/>
			<point x="571.918" y="0" type="line"/>
			<point x="252.787" y="341" type="line"/>
			<point x="245.892" y="350"/>
			<point x="237.629" y="356"/>
			<point x="225.752" y="357" type="curve"/>
			<point x="239.12" y="360"/>
			<point x="246.611" y="364"/>
			<point x="257.839" y="374" type="curve" smooth="yes"/>
			<point x="637.867" y="700" type="line"/>
			<point x="631.867" y="700" type="line" smooth="yes"/>
			<point x="624.867" y="700"/>
			<point x="621.744" y="699"/>
			<point x="612.885" y="692" type="curve" smooth="yes"/>
			<point x="248.453" y="379" type="line"/>
			<point x="229.611" y="364"/>
			<point x="222.366" y="362"/>
			<point x="197.366" y="362" type="curve" smooth="yes"/>
			<point x="150.366" y="362" type="line"/>
			<point x="191.867" y="700" type="line"/>
			<point x="179.867" y="700" type="line"/>
		</contour>
		<contour>
			<point x="609.271" y="687" type="line"/>
			<point x="631.394" y="688" type="line"/>
			<point x="655.867" y="700" type="line"/>
			<point x="631.867" y="700" type="line"/>
			<point x="618.885" y="692" type="line"/>
		</contour>
		<contour>
			<point x="566.918" y="0" type="line"/>
			<point x="569.391" y="12" type="line"/>
			<point x="545.514" y="13" type="line"/>
		</contour>
		<contour>
			<point x="11.918" y="0" type="line"/>
			<point x="96.918" y="0" type="line"/>
			<point x="97.391" y="12" type="line"/>
			<point x="20.146" y="10" type="line" smooth="yes"/>
			<point x="17.146" y="10"/>
			<point x="12.9" y="8"/>
			<point x="12.532" y="5" type="curve" smooth="yes"/>
		</contour>
		<contour>
			<point x="102.918" y="0" type="line"/>
			<point x="187.918" y="0" type="line"/>
			<point x="188.532" y="5" type="line" smooth="yes"/>
			<point x="188.9" y="8"/>
			<point x="185.146" y="10"/>
			<point x="182.146" y="10" type="curve" smooth="yes"/>
			<point x="105.391" y="12" type="line"/>
		</contour>
		<contour>
			<point x="182.867" y="700" type="line"/>
			<point x="97.867" y="700" type="line"/>
			<point x="97.253" y="695" type="line" smooth="yes"/>
			<point x="96.885" y="692"/>
			<point x="100.639" y="690"/>
			<point x="103.639" y="690" type="curve" smooth="yes"/>
			<point x="180.394" y="688" type="line"/>
		</contour>
		<contour>
			<point x="273.867" y="700" type="line"/>
			<point x="188.867" y="700" type="line"/>
			<point x="188.394" y="688" type="line"/>
			<point x="265.639" y="690" type="line" smooth="yes"/>
			<point x="268.639" y="690"/>
			<point x="272.885" y="692"/>
			<point x="273.253" y="695" type="curve" smooth="yes"/>
		</contour>
		<contour>
			<point x="566.918" y="0" type="line"/>
			<point x="651.918" y="0" type="line"/>
			<point x="652.532" y="5" type="line" smooth="yes"/>
			<point x="652.9" y="8"/>
			<point x="649.146" y="10"/>
			<point x="646.146" y="10" type="curve" smooth="yes"/>
			<point x="569.391" y="12" type="line"/>
		</contour>
		<contour>
			<point x="716.867" y="700" type="line"/>
			<point x="631.867" y="700" type="line"/>
			<point x="631.394" y="688" type="line"/>
			<point x="708.639" y="690" type="line" smooth="yes"/>
			<point x="711.639" y="690"/>
			<point x="715.885" y="692"/>
			<point x="716.253" y="695" type="curve" smooth="yes"/>
		</contour>
		<contour>
			<point x="632.867" y="700" type="line"/>
			<point x="547.867" y="700" type="line"/>
			<point x="547.253" y="695" type="line" smooth="yes"/>
			<point x="546.885" y="692"/>
			<point x="550.639" y="690"/>
			<point x="553.639" y="690" type="curve" smooth="yes"/>
			<point x="630.394" y="688" type="line"/>
		</contour>
	</outline>
</glyph>
<glyph name="L" format="2">
	<advance width="513"/>
	<unicode hex="004C"/>
	<anchor x="143.752" y="357" name="center"/>
	<anchor x="258.918" y="0" name="bottom"/>
	<anchor x="185.867" y="700" name="top"/>
	<note>
		L
	</note>
	<outline>
		<contour>
			<point x="93.918" y="0" type="line"/>
			<point x="472.918" y="0" type="line"/>
			<point x="474.268" y="11" type="line"/>
			<point x="107.268" y="11" type="line"/>
			<point x="191.867" y="700" type="line"/>
			<point x="179.867" y="700" type="line"/>
		</contour>
		<contour>
			<point x="459.532" y="5" type="line"/>
			<point x="474.268" y="11" type="line"/>
			<point x="485.81" y="105" type="line"/>
			<point x="479.81" y="105" type="line" smooth="yes"/>
			<point x="476.81" y="105"/>
			<point x="474.319" y="101"/>
			<point x="473.951" y="98" type="curve" smooth="yes"/>
		</contour>
		<contour>
			<point x="11.918" y="0" type="line"/>
			<point x="96.918" y="0" type="line"/>
			<point x="97.391" y="12" type="line"/>
			<point x="20.146" y="10" type="line" smooth="yes"/>
			<point x="17.146" y="10"/>
			<point x="12.9" y="8"/>
			<point x="12.532" y="5" type="curve" smooth="yes"/>
		</contour>
		<contour>
			<point x="182.867" y="700" type="line"/>
			<point x="97.867" y="700" type="line"/>
			<point x="97.253" y="695" type="line" smooth="yes"/>
			<point x="96.885" y="692"/>
			<point x="100.639" y="690"/>
			<point x="103.639" y="690" type="curve" smooth="yes"/>
			<point x="180.394" y="688" type="line"/>
		</contour>
		<contour>
			<point x="273.867" y="700" type="line"/>
			<point x="188.867" y="700" type="line"/>
			<point x="188.394" y="688" type="line"/>
			<point x="265.639" y="690" type="line" smooth="yes"/>
			<point x="268.639" y="690"/>
			<point x="272.885" y="692"/>
			<point x="273.253" y="695" type="curve" smooth="yes"/>
		</contour>
	</outline>
</glyph>
<glyph name="M" format="2">
	<advance width="907"/>
	<unicode hex="004D"/>
	<anchor x="509.867" y="700" name="top"/>
	<anchor x="423.918" y="0" name="bottom"/>
	<note>
		M
	</note>
	<outline>
		<contour>
			<point x="93.918" y="0" type="line"/>
			<point x="103.918" y="0" type="line"/>
			<point x="186.061" y="669" type="line" smooth="yes"/>
			<point x="186.429" y="672"/>
			<point x="186.675" y="674"/>
			<point x="187.288" y="679" type="curve"/>
			<point x="437.722" y="145" type="line" smooth="yes"/>
			<point x="439.353" y="142"/>
			<point x="441.108" y="140"/>
			<point x="444.108" y="140" type="curve" smooth="yes"/>
			<point x="448.108" y="140" type="line" smooth="yes"/>
			<point x="450.108" y="140"/>
			<point x="452.353" y="142"/>
			<point x="454.722" y="145" type="curve" smooth="yes"/>
			<point x="826.043" y="677" type="line" smooth="yes"/>
			<point x="826.043" y="677"/>
			<point x="825.061" y="669"/>
			<point x="825.061" y="669" type="curve" smooth="yes"/>
			<point x="742.918" y="0" type="line"/>
			<point x="752.918" y="0" type="line"/>
			<point x="838.867" y="700" type="line"/>
			<point x="834.867" y="700" type="line" smooth="yes"/>
			<point x="831.867" y="700"/>
			<point x="829.744" y="699"/>
			<point x="827.376" y="696" type="curve" smooth="yes"/>
			<point x="453.686" y="161" type="line" smooth="yes"/>
			<point x="451.195" y="157"/>
			<point x="448.704" y="153"/>
			<point x="447.335" y="150" type="curve"/>
			<point x="445.827" y="154"/>
			<point x="444.318" y="158"/>
			<point x="442.686" y="161" type="curve" smooth="yes"/>
			<point x="190.376" y="696" type="line" smooth="yes"/>
			<point x="188.744" y="699"/>
			<point x="186.867" y="700"/>
			<point x="183.867" y="700" type="curve" smooth="yes"/>
			<point x="179.867" y="700" type="line"/>
		</contour>
		<contour>
			<point x="11.918" y="0" type="line"/>
			<point x="96.918" y="0" type="line"/>
			<point x="97.391" y="12" type="line"/>
			<point x="20.146" y="10" type="line" smooth="yes"/>
			<point x="17.146" y="10"/>
			<point x="12.9" y="8"/>
			<point x="12.532" y="5" type="curve" smooth="yes"/>
		</contour>
		<contour>
			<point x="100.918" y="0" type="line"/>
			<point x="185.918" y="0" type="line"/>
			<point x="186.532" y="5" type="line" smooth="yes"/>
			<point x="186.9" y="8"/>
			<point x="183.146" y="10"/>
			<point x="180.146" y="10" type="curve" smooth="yes"/>
			<point x="103.391" y="12" type="line"/>
		</contour>
		<contour>
			<point x="182.867" y="700" type="line"/>
			<point x="97.867" y="700" type="line"/>
			<point x="97.253" y="695" type="line" smooth="yes"/>
			<point x="96.885" y="692"/>
			<point x="100.639" y="690"/>
			<point x="103.639" y="690" type="curve" smooth="yes"/>
			<point x="180.394" y="688" type="line"/>
		</contour>
		<contour>
			<point x="660.918" y="0" type="line"/>
			<point x="745.918" y="0" type="line"/>
			<point x="746.391" y="12" type="line"/>
			<point x="669.146" y="10" type="line" smooth="yes"/>
			<point x="666.146" y="10"/>
			<point x="661.9" y="8"/>
			<point x="661.532" y="5" type="curve" smooth="yes"/>
		</contour>
		<contour>
			<point x="749.918" y="0" type="line"/>
			<point x="834.918" y="0" type="line"/>
			<point x="835.532" y="5" type="line" smooth="yes"/>
			<point x="835.9" y="8"/>
			<point x="832.146" y="10"/>
			<point x="829.146" y="10" type="curve" smooth="yes"/>
			<point x="752.391" y="12" type="line"/>
		</contour>
		<contour>
			<point x="920.867" y="700" type="line"/>
			<point x="835.867" y="700" type="line"/>
			<point x="835.394" y="688" type="line"/>
			<point x="912.639" y="690" type="line" smooth="yes"/>
			<point x="915.639" y="690"/>
			<point x="919.885" y="692"/>
			<point x="920.253" y="695" type="curve" smooth="yes"/>
		</contour>
	</outline>
</glyph>
<glyph name="O" format="2">
	<advance width="733"/>
	<unicode hex="004F"/>
	<anchor x="379.892" y="350" name="center"/>
	<anchor x="334.427" y="-4" name="ogonek"/>
	<anchor x="422.867" y="700" name="top"/>
	<anchor x="800.867" y="700" name="topright"/>
	<anchor x="43.867" y="700" name="topleft"/>
	<anchor x="336.918" y="0" name="bottom"/>
	<note>
		O
	</note>
	<outline>
		<contour>
			<point x="335.058" y="-7" type="curve" smooth="yes"/>
			<point x="431.058" y="-7"/>
			<point x="516.356" y="28"/>
			<point x="580.846" y="89" type="curve" smooth="yes"/>
			<point x="645.335" y="150"/>
			<point x="689.263" y="239"/>
			<point x="702.892" y="350" type="curve" smooth="yes"/>
			<point x="716.521" y="461"/>
			<point x="694.572" y="551"/>
			<point x="645.185" y="613" type="curve" smooth="yes"/>
			<point x="595.797" y="675"/>
			<point x="518.849" y="708"/>
			<point x="422.849" y="708" type="curve" smooth="yes"/>
			<point x="327.849" y="708"/>
			<point x="242.675" y="674"/>
			<point x="179.062" y="612" type="curve" smooth="yes"/>
			<point x="114.449" y="550"/>
			<point x="69.521" y="461"/>
			<point x="55.892" y="350" type="curve" smooth="yes"/>
			<point x="42.263" y="239"/>
			<point x="65.335" y="150"/>
			<point x="114.846" y="89" type="curve" smooth="yes"/>
			<point x="163.356" y="28"/>
			<point x="240.058" y="-7"/>
		</contour>
		<contour>
			<point x="336.286" y="3" type="curve" smooth="yes"/>
			<point x="146.286" y="3"/>
			<point x="42.844" y="146"/>
			<point x="67.892" y="350" type="curve" smooth="yes"/>
			<point x="92.695" y="552"/>
			<point x="226.621" y="698"/>
			<point x="421.621" y="698" type="curve" smooth="yes"/>
			<point x="616.621" y="698"/>
			<point x="715.432" y="558"/>
			<point x="689.892" y="350" type="curve" smooth="yes"/>
			<point x="664.722" y="145"/>
			<point x="530.286" y="3"/>
		</contour>
	</outline>
</glyph>
<glyph name="P" format="2">
	<advance width="552"/>
	<unicode hex="0050"/>
	<note>
		P
	</note>
	<outline>
		<contour>
			<point x="93.918" y="0" type="line"/>
			<point x="105.918" y="0" type="line"/>
			<point x="142.753" y="300" type="line"/>
			<point x="288.753" y="300" type="line" smooth="yes"/>
			<point x="425.753" y="300"/>
			<point x="535.699" y="381"/>
			<point x="550.31" y="500" type="curve" smooth="yes"/>
			<point x="566.886" y="635"/>
			<point x="490.867" y="700"/>
			<point x="337.867" y="700" type="curve" smooth="yes"/>
			<point x="179.867" y="700" type="line"/>
		</contour>
		<contour>
			<point x="143.981" y="310" type="line"/>
			<point x="190.639" y="690" type="line"/>
			<point x="336.639" y="690" type="line" smooth="yes"/>
			<point x="487.639" y="690"/>
			<point x="553.658" y="625"/>
			<point x="538.31" y="500" type="curve" smooth="yes"/>
			<point x="524.804" y="390"/>
			<point x="420.981" y="310"/>
			<point x="289.981" y="310" type="curve" smooth="yes"/>
		</contour>
		<contour>
			<point x="11.918" y="0" type="line"/>
			<point x="96.918" y="0" type="line"/>
			<point x="97.391" y="12" type="line"/>
			<point x="20.146" y="10" type="line" smooth="yes"/>
			<point x="17.146" y="10"/>
			<point x="12.9" y="8"/>
			<point x="12.532" y="5" type="curve" smooth="yes"/>
		</contour>
		<contour>
			<point x="182.867" y="700" type="line"/>
			<point x="97.867" y="700" type="line"/>
			<point x="97.253" y="695" type="line" smooth="yes"/>
			<point x="96.885" y="692"/>
			<point x="100.639" y="690"/>
			<point x="103.639" y="690" type="curve" smooth="yes"/>
			<point x="180.394" y="688" type="line"/>
		</contour>
		<contour>
			<point x="102.918" y="0" type="line"/>
			<point x="187.918" y="0" type="line"/>
			<point x="188.532" y="5" type="line" smooth="yes"/>
			<point x="188.9" y="8"/>
			<point x="185.146" y="10"/>
			<point x="182.146" y="10" type="curve" smooth="yes"/>
			<point x="105.391" y="12" type="line"/>
		</contour>
	</outline>
</glyph>
<glyph name="Q" format="2">
	<advance width="735"/>
	<unicode hex="0051"/>
	<note>
		Q
	</note>
	<outline>
		<contour>
			<point x="653.904" y="-163" type="curve" smooth="yes"/>
			<point x="664.904" y="-163" type="line"/>
			<point x="503.97" y="33" type="line"/>
			<point x="615.214" y="92"/>
			<point x="685.211" y="206"/>
			<point x="702.892" y="350" type="curve" smooth="yes"/>
			<point x="716.521" y="461"/>
			<point x="694.572" y="551"/>
			<point x="645.185" y="613" type="curve" smooth="yes"/>
			<point x="595.797" y="675"/>
			<point x="518.849" y="708"/>
			<point x="422.849" y="708" type="curve" smooth="yes"/>
			<point x="327.849" y="708"/>
			<point x="242.675" y="674"/>
			<point x="179.062" y="612" type="curve" smooth="yes"/>
			<point x="114.449" y="550"/>
			<point x="69.521" y="461"/>
			<point x="55.892" y="350" type="curve" smooth="yes"/>
			<point x="42.263" y="239"/>
			<point x="65.335" y="150"/>
			<point x="114.846" y="89" type="curve" smooth="yes"/>
			<point x="163.356" y="28"/>
			<point x="240.058" y="-7"/>
			<point x="335.058" y="-7" type="curve" smooth="yes"/>
			<point x="392.058" y="-7"/>
			<point x="445.532" y="5"/>
			<point x="492.356" y="28" type="curve"/>
			<point x="644.395" y="-159" type="line" smooth="yes"/>
			<point x="647.027" y="-162"/>
			<point x="648.904" y="-163"/>
		</contour>
		<contour>
			<point x="336.286" y="3" type="curve" smooth="yes"/>
			<point x="145.286" y="3"/>
			<point x="42.844" y="146"/>
			<point x="67.892" y="350" type="curve" smooth="yes"/>
			<point x="92.695" y="552"/>
			<point x="226.621" y="698"/>
			<point x="421.621" y="698" type="curve" smooth="yes"/>
			<point x="616.621" y="698"/>
			<point x="715.432" y="558"/>
			<point x="689.892" y="350" type="curve" smooth="yes"/>
			<point x="664.722" y="145"/>
			<point x="531.286" y="3"/>
		</contour>
	</outline>
</glyph>
<glyph name="R" format="2">
	<advance width="669"/>
	<unicode hex="0052"/>
	<anchor x="358.867" y="700" name="top"/>
	<anchor x="272.918" y="0" name="bottom"/>
	<note>
		R
	</note>
	<outline>
		<contour>
			<point x="93.918" y="0" type="line"/>
			<point x="105.918" y="0" type="line"/>
			<point x="147.419" y="338" type="line"/>
			<point x="256.419" y="338" type="line" smooth="yes"/>
			<point x="280.419" y="338"/>
			<point x="293.173" y="336"/>
			<point x="302.209" y="320" type="curve"/>
			<point x="525.654" y="6" type="line" smooth="yes"/>
			<point x="530.041" y="1"/>
			<point x="532.918" y="0"/>
			<point x="537.918" y="0" type="curve" smooth="yes"/>
			<point x="545.918" y="0" type="line"/>
			<point x="312.823" y="325" type="line" smooth="yes"/>
			<point x="307.682" y="332"/>
			<point x="304.051" y="335"/>
			<point x="297.419" y="338" type="curve"/>
			<point x="429.787" y="341"/>
			<point x="533.259" y="410"/>
			<point x="547.38" y="525" type="curve" smooth="yes"/>
			<point x="562.114" y="645"/>
			<point x="488.867" y="700"/>
			<point x="341.867" y="700" type="curve" smooth="yes"/>
			<point x="179.867" y="700" type="line"/>
		</contour>
		<contour>
			<point x="148.647" y="348" type="line"/>
			<point x="190.639" y="690" type="line"/>
			<point x="340.639" y="690" type="line" smooth="yes"/>
			<point x="479.639" y="690"/>
			<point x="549.5" y="640"/>
			<point x="535.38" y="525" type="curve" smooth="yes"/>
			<point x="521.628" y="413"/>
			<point x="423.647" y="348"/>
			<point x="289.647" y="348" type="curve" smooth="yes"/>
		</contour>
		<contour>
			<point x="537.918" y="0" type="line"/>
			<point x="540.391" y="12" type="line"/>
			<point x="521.514" y="13" type="line"/>
		</contour>
		<contour>
			<point x="11.918" y="0" type="line"/>
			<point x="96.918" y="0" type="line"/>
			<point x="97.391" y="12" type="line"/>
			<point x="20.146" y="10" type="line" smooth="yes"/>
			<point x="17.146" y="10"/>
			<point x="12.9" y="8"/>
			<point x="12.532" y="5" type="curve" smooth="yes"/>
		</contour>
		<contour>
			<point x="182.867" y="700" type="line"/>
			<point x="97.867" y="700" type="line"/>
			<point x="97.253" y="695" type="line" smooth="yes"/>
			<point x="96.885" y="692"/>
			<point x="100.639" y="690"/>
			<point x="103.639" y="690" type="curve" smooth="yes"/>
			<point x="180.394" y="688" type="line"/>
		</contour>
		<contour>
			<point x="102.918" y="0" type="line"/>
			<point x="187.918" y="0" type="line"/>
			<point x="188.532" y="5" type="line" smooth="yes"/>
			<point x="188.9" y="8"/>
			<point x="185.146" y="10"/>
			<point x="182.146" y="10" type="curve" smooth="yes"/>
			<point x="105.391" y="12" type="line"/>
		</contour>
		<contour>
			<point x="537.918" y="0" type="line"/>
			<point x="622.918" y="0" type="line"/>
			<point x="623.532" y="5" type="line" smooth="yes"/>
			<point x="623.9" y="8"/>
			<point x="620.146" y="10"/>
			<point x="617.146" y="10" type="curve" smooth="yes"/>
			<point x="540.391" y="12" type="line"/>
		</contour>
	</outline>
</glyph>
<glyph name="S" format="2">
	<advance width="515"/>
	<unicode hex="0053"/>
	<anchor x="313.867" y="700" name="top"/>
	<anchor x="227.918" y="0" name="bottom"/>
	<note>
		S
	</note>
	<outline>
		<contour>
			<point x="213.936" y="-8" type="curve" smooth="yes"/>
			<point x="349.936" y="-8"/>
			<point x="444.495" y="78"/>
			<point x="458.984" y="196" type="curve" smooth="yes"/>
			<point x="471.876" y="301"/>
			<point x="404.296" y="337"/>
			<point x="298.471" y="371" type="curve" smooth="yes"/>
			<point x="198.4" y="403"/>
			<point x="124.066" y="441"/>
			<point x="135.608" y="535" type="curve" smooth="yes"/>
			<point x="147.026" y="628"/>
			<point x="223.621" y="698"/>
			<point x="336.621" y="698" type="curve" smooth="yes"/>
			<point x="399.621" y="698"/>
			<point x="440.92" y="676"/>
			<point x="478.763" y="634" type="curve"/>
			<point x="485.763" y="634" type="line"/>
			<point x="490.377" y="639" type="line"/>
			<point x="451.271" y="687"/>
			<point x="401.849" y="708"/>
			<point x="337.849" y="708" type="curve" smooth="yes"/>
			<point x="217.849" y="708"/>
			<point x="136.763" y="634"/>
			<point x="124.73" y="536" type="curve" smooth="yes"/>
			<point x="113.925" y="448"/>
			<point x="166.891" y="407"/>
			<point x="233.699" y="381" type="curve" smooth="yes"/>
			<point x="332.91" y="342"/>
			<point x="464.437" y="330"/>
			<point x="447.615" y="193" type="curve" smooth="yes"/>
			<point x="433.986" y="82"/>
			<point x="340.163" y="2"/>
			<point x="217.163" y="2" type="curve" smooth="yes"/>
			<point x="136.163" y="2"/>
			<point x="79.829" y="40"/>
			<point x="48.846" y="89" type="curve"/>
			<point x="40.091" y="91" type="line"/>
			<point x="35.109" y="83" type="line"/>
			<point x="77.865" y="24"/>
			<point x="130.936" y="-8"/>
		</contour>
		<contour>
			<point x="477.114" y="645" type="line"/>
			<point x="468.695" y="552" type="line" smooth="yes"/>
			<point x="468.327" y="549"/>
			<point x="469.835" y="545"/>
			<point x="472.835" y="545" type="curve" smooth="yes"/>
			<point x="478.835" y="545" type="line"/>
			<point x="490.377" y="639" type="line"/>
			<point x="477.114" y="645" type="line"/>
		</contour>
		<contour>
			<point x="48.372" y="77" type="line"/>
			<point x="56.791" y="170" type="line" smooth="yes"/>
			<point x="57.16" y="173"/>
			<point x="55.651" y="177"/>
			<point x="52.651" y="177" type="curve" smooth="yes"/>
			<point x="46.651" y="177" type="line"/>
			<point x="35.109" y="83" type="line"/>
			<point x="48.372" y="77" type="line"/>
		</contour>
	</outline>
</glyph>
<glyph name="U" format="2">
	<advance width="722"/>
	<unicode hex="0055"/>
	<anchor x="328.181" y="-6" name="ogonek"/>
	<anchor x="416.867" y="700" name="top"/>
	<anchor x="730.867" y="700" name="topright"/>
	<anchor x="330.918" y="0" name="bottom"/>
	<note>
		U
	</note>
	<outline>
		<contour>
			<point x="329.813" y="-9" type="curve" smooth="yes"/>
			<point x="483.813" y="-9"/>
			<point x="597.67" y="112"/>
			<point x="615.842" y="260" type="curve" smooth="yes"/>
			<point x="669.867" y="700" type="line"/>
			<point x="657.867" y="700" type="line"/>
			<point x="603.842" y="260" type="line" smooth="yes"/>
			<point x="586.161" y="116"/>
			<point x="480.163" y="2"/>
			<point x="331.163" y="2" type="curve" smooth="yes"/>
			<point x="183.163" y="2"/>
			<point x="104.161" y="116"/>
			<point x="121.965" y="261" type="curve" smooth="yes"/>
			<point x="175.867" y="700" type="line"/>
			<point x="163.867" y="700" type="line"/>
			<point x="109.842" y="260" type="line" smooth="yes"/>
			<point x="91.547" y="111"/>
			<point x="175.813" y="-9"/>
		</contour>
		<contour>
			<point x="166.867" y="700" type="line"/>
			<point x="81.867" y="700" type="line"/>
			<point x="81.253" y="695" type="line" smooth="yes"/>
			<point x="80.885" y="692"/>
			<point x="84.639" y="690"/>
			<point x="87.639" y="690" type="curve" smooth="yes"/>
			<point x="164.394" y="688" type="line"/>
		</contour>
		<contour>
			<point x="257.867" y="700" type="line"/>
			<point x="172.867" y="700" type="line"/>
			<point x="172.394" y="688" type="line"/>
			<point x="249.639" y="690" type="line" smooth="yes"/>
			<point x="252.639" y="690"/>
			<point x="256.885" y="692"/>
			<point x="257.253" y="695" type="curve" smooth="yes"/>
		</contour>
		<contour>
			<point x="660.867" y="700" type="line"/>
			<point x="575.867" y="700" type="line"/>
			<point x="575.253" y="695" type="line" smooth="yes"/>
			<point x="574.885" y="692"/>
			<point x="578.639" y="690"/>
			<point x="581.639" y="690" type="curve" smooth="yes"/>
			<point x="658.394" y="688" type="line"/>
		</contour>
		<contour>
			<point x="751.867" y="700" type="line"/>
			<point x="666.867" y="700" type="line"/>
			<point x="666.394" y="688" type="line"/>
			<point x="743.639" y="690" type="line" smooth="yes"/>
			<point x="746.639" y="690"/>
			<point x="750.885" y="692"/>
			<point x="751.253" y="695" type="curve" smooth="yes"/>
		</contour>
	</outline>
</glyph>
<glyph name="V" format="2">
	<advance width="765"/>
	<unicode hex="0056"/>
	<anchor x="438.867" y="700" name="top"/>
	<anchor x="352.918" y="0" name="bottom"/>
	<note>
		V
	</note>
	<outline>
		<contour>
			<point x="346.918" y="0" type="line"/>
			<point x="356.918" y="0" type="line"/>
			<point x="734.867" y="700" type="line"/>
			<point x="726.867" y="700" type="line" smooth="yes"/>
			<point x="723.867" y="700"/>
			<point x="720.621" y="698"/>
			<point x="719.253" y="695" type="curve" smooth="yes"/>
			<point x="364.461" y="37" type="line" smooth="yes"/>
			<point x="359.356" y="28"/>
			<point x="355.619" y="22"/>
			<point x="354.005" y="17" type="curve"/>
			<point x="353.619" y="22"/>
			<point x="351.356" y="28"/>
			<point x="348.461" y="37" type="curve" smooth="yes"/>
			<point x="155.253" y="695" type="line" smooth="yes"/>
			<point x="154.621" y="698"/>
			<point x="152.867" y="700"/>
			<point x="149.867" y="700" type="curve" smooth="yes"/>
			<point x="140.867" y="700" type="line"/>
		</contour>
		<contour>
			<point x="143.885" y="692" type="line"/>
			<point x="159.885" y="692" type="line"/>
			<point x="160.867" y="700" type="line"/>
			<point x="144.867" y="700" type="line"/>
		</contour>
		<contour>
			<point x="713.885" y="692" type="line"/>
			<point x="729.885" y="692" type="line"/>
			<point x="730.867" y="700" type="line"/>
			<point x="714.867" y="700" type="line"/>
		</contour>
		<contour>
			<point x="156.867" y="700" type="line"/>
			<point x="71.867" y="700" type="line"/>
			<point x="71.253" y="695" type="line" smooth="yes"/>
			<point x="70.885" y="692"/>
			<point x="74.639" y="690"/>
			<point x="77.639" y="690" type="curve" smooth="yes"/>
			<point x="154.394" y="688" type="line"/>
		</contour>
		<contour>
			<point x="231.867" y="700" type="line"/>
			<point x="146.867" y="700" type="line"/>
			<point x="146.394" y="688" type="line"/>
			<point x="223.639" y="690" type="line" smooth="yes"/>
			<point x="226.639" y="690"/>
			<point x="230.885" y="692"/>
			<point x="231.253" y="695" type="curve" smooth="yes"/>
		</contour>
		<contour>
			<point x="729.867" y="700" type="line"/>
			<point x="644.867" y="700" type="line"/>
			<point x="644.253" y="695" type="line" smooth="yes"/>
			<point x="643.885" y="692"/>
			<point x="647.639" y="690"/>
			<point x="650.639" y="690" type="curve" smooth="yes"/>
			<point x="727.394" y="688" type="line"/>
		</contour>
		<contour>
			<point x="804.867" y="700" type="line"/>
			<point x="719.867" y="700" type="line"/>
			<point x="719.394" y="688" type="line"/>
			<point x="796.639" y="690" type="line" smooth="yes"/>
			<point x="799.639" y="690"/>
			<point x="803.885" y="692"/>
			<point x="804.253" y="695" type="curve" smooth="yes"/>
		</contour>
	</outline>
</glyph>
<glyph name="W" format="2">
	<advance width="1110"/>
	<unicode hex="0057"/>
	<anchor x="610.867" y="700" name="top"/>
	<anchor x="524.918" y="0" name="bottom"/>
	<note>
		W
	</note>
	<outline>
		<contour>
			<point x="276.918" y="0" type="line"/>
			<point x="286.918" y="0" type="line"/>
			<point x="602.429" y="672" type="line" smooth="yes"/>
			<point x="605.288" y="679"/>
			<point x="607.902" y="684"/>
			<point x="609.394" y="688" type="curve"/>
			<point x="609.902" y="684"/>
			<point x="610.288" y="679"/>
			<point x="611.429" y="672" type="curve" smooth="yes"/>
			<point x="761.918" y="0" type="line"/>
			<point x="771.918" y="0" type="line"/>
			<point x="1079.867" y="700" type="line"/>
			<point x="1071.867" y="700" type="line" smooth="yes"/>
			<point x="1068.867" y="700"/>
			<point x="1065.621" y="698"/>
			<point x="1064.253" y="695" type="curve" smooth="yes"/>
			<point x="780.075" y="42" type="line"/>
			<point x="776.092" y="34"/>
			<point x="771.987" y="25"/>
			<point x="768.76" y="15" type="curve"/>
			<point x="768.865" y="24"/>
			<point x="766.97" y="33"/>
			<point x="765.075" y="42" type="curve" smooth="yes"/>
			<point x="617.253" y="695" type="line"/>
			<point x="616.621" y="698"/>
			<point x="614.867" y="700"/>
			<point x="611.867" y="700" type="curve" smooth="yes"/>
			<point x="608.867" y="700" type="line" smooth="yes"/>
			<point x="605.867" y="700"/>
			<point x="603.621" y="698"/>
			<point x="602.253" y="695" type="curve" smooth="yes"/>
			<point x="295.075" y="42" type="line" smooth="yes"/>
			<point x="293.584" y="38"/>
			<point x="285.128" y="18"/>
			<point x="283.76" y="15" type="curve"/>
			<point x="283.251" y="19"/>
			<point x="282.479" y="29"/>
			<point x="280.075" y="42" type="curve" smooth="yes"/>
			<point x="155.253" y="695" type="line" smooth="yes"/>
			<point x="154.621" y="698"/>
			<point x="152.867" y="700"/>
			<point x="149.867" y="700" type="curve" smooth="yes"/>
			<point x="140.867" y="700" type="line"/>
		</contour>
		<contour>
			<point x="143.867" y="700" type="line"/>
			<point x="142.885" y="692" type="line"/>
			<point x="159.885" y="692" type="line"/>
			<point x="160.867" y="700" type="line"/>
		</contour>
		<contour>
			<point x="1059.867" y="700" type="line"/>
			<point x="1058.762" y="691" type="line"/>
			<point x="1074.762" y="691" type="line"/>
			<point x="1075.867" y="700" type="line"/>
		</contour>
		<contour>
			<point x="156.867" y="700" type="line"/>
			<point x="71.867" y="700" type="line"/>
			<point x="71.253" y="695" type="line" smooth="yes"/>
			<point x="70.885" y="692"/>
			<point x="74.639" y="690"/>
			<point x="77.639" y="690" type="curve" smooth="yes"/>
			<point x="154.394" y="688" type="line"/>
		</contour>
		<contour>
			<point x="231.867" y="700" type="line"/>
			<point x="146.867" y="700" type="line"/>
			<point x="146.394" y="688" type="line"/>
			<point x="223.639" y="690" type="line" smooth="yes"/>
			<point x="226.639" y="690"/>
			<point x="230.885" y="692"/>
			<point x="231.253" y="695" type="curve" smooth="yes"/>
		</contour>
		<contour>
			<point x="1074.867" y="700" type="line"/>
			<point x="989.867" y="700" type="line"/>
			<point x="989.253" y="695" type="line" smooth="yes"/>
			<point x="988.885" y="692"/>
			<point x="992.639" y="690"/>
			<point x="995.639" y="690" type="curve" smooth="yes"/>
			<point x="1072.394" y="688" type="line"/>
		</contour>
		<contour>
			<point x="1149.867" y="700" type="line"/>
			<point x="1064.867" y="700" type="line"/>
			<point x="1064.394" y="688" type="line"/>
			<point x="1141.639" y="690" type="line" smooth="yes"/>
			<point x="1144.639" y="690"/>
			<point x="1148.885" y="692"/>
			<point x="1149.253" y="695" type="curve" smooth="yes"/>
		</contour>
	</outline>
</glyph>
<glyph name="X" format="2">
	<advance width="696"/>
	<unicode hex="0058"/>
	<anchor x="405.867" y="700" name="top"/>
	<anchor x="319.918" y="0" name="bottom"/>
	<note>
		X
	</note>
	<outline>
		<contour>
			<point x="46.918" y="0" type="line"/>
			<point x="57.918" y="0" type="line" smooth="yes"/>
			<point x="59.918" y="0"/>
			<point x="66.532" y="5"/>
			<point x="67.777" y="7" type="curve" smooth="yes"/>
			<point x="356.401" y="346" type="line" smooth="yes"/>
			<point x="358.77" y="349"/>
			<point x="361.138" y="352"/>
			<point x="361.261" y="353" type="curve"/>
			<point x="569.777" y="7" type="line" smooth="yes"/>
			<point x="572.163" y="2"/>
			<point x="573.918" y="0"/>
			<point x="577.918" y="0" type="curve" smooth="yes"/>
			<point x="588.918" y="0" type="line"/>
			<point x="371.12" y="360" type="line"/>
			<point x="662.867" y="700" type="line"/>
			<point x="651.867" y="700" type="line" smooth="yes"/>
			<point x="647.867" y="700"/>
			<point x="645.499" y="697"/>
			<point x="642.007" y="693" type="curve" smooth="yes"/>
			<point x="370.962" y="375" type="line" smooth="yes"/>
			<point x="368.594" y="372"/>
			<point x="366.103" y="368"/>
			<point x="363.734" y="365" type="curve"/>
			<point x="164.007" y="693" type="line" smooth="yes"/>
			<point x="161.499" y="697"/>
			<point x="160.867" y="700"/>
			<point x="155.867" y="700" type="curve" smooth="yes"/>
			<point x="144.867" y="700" type="line"/>
			<point x="353.875" y="358" type="line"/>
		</contour>
		<contour>
			<point x="54.918" y="0" type="line"/>
			<point x="71.918" y="0" type="line"/>
			<point x="73.023" y="9" type="line"/>
			<point x="56.023" y="9" type="line"/>
		</contour>
		<contour>
			<point x="566.918" y="0" type="line"/>
			<point x="581.918" y="0" type="line"/>
			<point x="582.9" y="8" type="line"/>
			<point x="567.9" y="8" type="line"/>
		</contour>
		<contour>
			<point x="150.885" y="692" type="line"/>
			<point x="165.885" y="692" type="line"/>
			<point x="166.867" y="700" type="line"/>
			<point x="151.867" y="700" type="line"/>
		</contour>
		<contour>
			<point x="642.13" y="694" type="line"/>
			<point x="655.13" y="694" type="line"/>
			<point x="655.867" y="700" type="line"/>
			<point x="642.867" y="700" type="line"/>
		</contour>
		<contour>
			<point x="168.867" y="700" type="line"/>
			<point x="83.867" y="700" type="line"/>
			<point x="83.253" y="695" type="line" smooth="yes"/>
			<point x="82.885" y="692"/>
			<point x="86.639" y="690"/>
			<point x="89.639" y="690" type="curve" smooth="yes"/>
			<point x="166.394" y="688" type="line"/>
		</contour>
		<contour>
			<point x="243.867" y="700" type="line"/>
			<point x="158.867" y="700" type="line"/>
			<point x="158.394" y="688" type="line"/>
			<point x="235.639" y="690" type="line" smooth="yes"/>
			<point x="238.639" y="690"/>
			<point x="242.885" y="692"/>
			<point x="243.253" y="695" type="curve" smooth="yes"/>
		</contour>
		<contour>
			<point x="648.867" y="700" type="line"/>
			<point x="563.867" y="700" type="line"/>
			<point x="563.253" y="695" type="line" smooth="yes"/>
			<point x="562.885" y="692"/>
			<point x="566.639" y="690"/>
			<point x="569.639" y="690" type="curve" smooth="yes"/>
			<point x="646.394" y="688" type="line"/>
		</contour>
		<contour>
			<point x="723.867" y="700" type="line"/>
			<point x="638.867" y="700" type="line"/>
			<point x="638.394" y="688" type="line"/>
			<point x="715.639" y="690" type="line" smooth="yes"/>
			<point x="718.639" y="690"/>
			<point x="722.885" y="692"/>
			<point x="723.253" y="695" type="curve" smooth="yes"/>
		</contour>
		<contour>
			<point x="-14.082" y="0" type="line"/>
			<point x="70.918" y="0" type="line"/>
			<point x="71.391" y="12" type="line"/>
			<point x="-5.854" y="10" type="line" smooth="yes"/>
			<point x="-8.854" y="10"/>
			<point x="-13.1" y="8"/>
			<point x="-13.468" y="5" type="curve" smooth="yes"/>
		</contour>
		<contour>
			<point x="60.918" y="0" type="line"/>
			<point x="145.918" y="0" type="line"/>
			<point x="146.532" y="5" type="line" smooth="yes"/>
			<point x="146.9" y="8"/>
			<point x="143.146" y="10"/>
			<point x="140.146" y="10" type="curve" smooth="yes"/>
			<point x="63.391" y="12" type="line"/>
		</contour>
		<contour>
			<point x="564.918" y="0" type="line"/>
			<point x="649.918" y="0" type="line"/>
			<point x="650.532" y="5" type="line" smooth="yes"/>
			<point x="650.9" y="8"/>
			<point x="647.146" y="10"/>
			<point x="644.146" y="10" type="curve" smooth="yes"/>
			<point x="567.391" y="12" type="line"/>
		</contour>
		<contour>
			<point x="489.918" y="0" type="line"/>
			<point x="574.918" y="0" type="line"/>
			<point x="575.391" y="12" type="line"/>
			<point x="498.146" y="10" type="line" smooth="yes"/>
			<point x="495.146" y="10"/>
			<point x="490.9" y="8"/>
			<point x="490.532" y="5" type="curve" smooth="yes"/>
		</contour>
	</outline>
</glyph>
<glyph name="Y" format="2">
	<advance width="700"/>
	<unicode hex="0059"/>
	<anchor x="405.867" y="700" name="top"/>
	<anchor x="319.918" y="0" name="bottom"/>
	<anchor x="138.867" y="700" name="topleft"/>
	<note>
		Y
	</note>
	<outline>
		<contour>
			<point x="313.918" y="0" type="line"/>
			<point x="325.918" y="0" type="line"/>
			<point x="362.508" y="298" type="line"/>
			<point x="672.867" y="700" type="line"/>
			<point x="662.867" y="700" type="line" smooth="yes"/>
			<point x="659.867" y="700"/>
			<point x="657.744" y="699"/>
			<point x="655.376" y="696" type="curve" smooth="yes"/>
			<point x="375.559" y="331" type="line" smooth="yes"/>
			<point x="370.823" y="325"/>
			<point x="361.349" y="313"/>
			<point x="357.613" y="307" type="curve"/>
			<point x="354.595" y="315"/>
			<point x="350.577" y="323"/>
			<point x="346.559" y="331" type="curve" smooth="yes"/>
			<point x="155.376" y="696" type="line" smooth="yes"/>
			<point x="153.744" y="699"/>
			<point x="151.867" y="700"/>
			<point x="148.867" y="700" type="curve" smooth="yes"/>
			<point x="138.867" y="700" type="line"/>
			<point x="350.508" y="298" type="line"/>
		</contour>
		<contour>
			<point x="144.762" y="691" type="line"/>
			<point x="159.762" y="691" type="line"/>
			<point x="160.867" y="700" type="line"/>
			<point x="145.867" y="700" type="line"/>
		</contour>
		<contour>
			<point x="650.762" y="691" type="line"/>
			<point x="664.762" y="691" type="line"/>
			<point x="665.867" y="700" type="line"/>
			<point x="651.867" y="700" type="line"/>
		</contour>
		<contour>
			<point x="156.867" y="700" type="line"/>
			<point x="71.867" y="700" type="line"/>
			<point x="71.253" y="695" type="line" smooth="yes"/>
			<point x="70.885" y="692"/>
			<point x="74.639" y="690"/>
			<point x="77.639" y="690" type="curve" smooth="yes"/>
			<point x="154.394" y="688" type="line"/>
		</contour>
		<contour>
			<point x="231.867" y="700" type="line"/>
			<point x="146.867" y="700" type="line"/>
			<point x="146.394" y="688" type="line"/>
			<point x="223.639" y="690" type="line" smooth="yes"/>
			<point x="226.639" y="690"/>
			<point x="230.885" y="692"/>
			<point x="231.253" y="695" type="curve" smooth="yes"/>
		</contour>
		<contour>
			<point x="664.867" y="700" type="line"/>
			<point x="579.867" y="700" type="line"/>
			<point x="579.253" y="695" type="line" smooth="yes"/>
			<point x="578.885" y="692"/>
			<point x="582.639" y="690"/>
			<point x="585.639" y="690" type="curve" smooth="yes"/>
			<point x="662.394" y="688" type="line"/>
		</contour>
		<contour>
			<point x="739.867" y="700" type="line"/>
			<point x="654.867" y="700" type="line"/>
			<point x="654.394" y="688" type="line"/>
			<point x="731.639" y="690" type="line" smooth="yes"/>
			<point x="734.639" y="690"/>
			<point x="738.885" y="692"/>
			<point x="739.253" y="695" type="curve" smooth="yes"/>
		</contour>
		<contour>
			<point x="231.918" y="0" type="line"/>
			<point x="316.918" y="0" type="line"/>
			<point x="317.391" y="12" type="line"/>
			<point x="240.146" y="10" type="line" smooth="yes"/>
			<point x="237.146" y="10"/>
			<point x="232.9" y="8"/>
			<point x="232.532" y="5" type="curve" smooth="yes"/>
		</contour>
		<contour>
			<point x="322.918" y="0" type="line"/>
			<point x="407.918" y="0" type="line"/>
			<point x="408.532" y="5" type="line" smooth="yes"/>
			<point x="408.9" y="8"/>
			<point x="405.146" y="10"/>
			<point x="402.146" y="10" type="curve" smooth="yes"/>
			<point x="325.391" y="12" type="line"/>
		</contour>
	</outline>
</glyph>
<glyph name="Z" format="2">
	<advance width="578"/>
	<unicode hex="005A"/>
	<anchor x="298.401" y="346" name="center"/>
	<anchor x="255.918" y="0" name="bottom"/>
	<anchor x="341.867" y="700" name="top"/>
	<note>
		Z
	</note>
	<outline>
		<contour>
			<point x="4.918" y="0" type="line"/>
			<point x="511.918" y="0" type="line"/>
			<point x="513.268" y="11" type="line"/>
			<point x="23.268" y="11" type="line"/>
			<point x="593.394" y="688" type="line" smooth="yes"/>
			<point x="596.885" y="692"/>
			<point x="598.253" y="695"/>
			<point x="598.621" y="698" type="curve" smooth="yes"/>
			<point x="598.867" y="700" type="line"/>
			<point x="98.867" y="700" type="line"/>
			<point x="97.516" y="689" type="line"/>
			<point x="580.516" y="689" type="line"/>
			<point x="9.268" y="11" type="line" smooth="yes"/>
			<point x="7.023" y="9"/>
			<point x="5.654" y="6"/>
			<point x="5.163" y="2" type="curve" smooth="yes"/>
		</contour>
		<contour>
			<point x="498.532" y="5" type="line"/>
			<point x="513.268" y="11" type="line"/>
			<point x="524.81" y="105" type="line"/>
			<point x="518.81" y="105" type="line" smooth="yes"/>
			<point x="515.81" y="105"/>
			<point x="513.319" y="101"/>
			<point x="512.951" y="98" type="curve" smooth="yes"/>
		</contour>
		<contour>
			<point x="112.253" y="695" type="line"/>
			<point x="97.516" y="689" type="line"/>
			<point x="85.975" y="595" type="line"/>
			<point x="91.975" y="595" type="line" smooth="yes"/>
			<point x="94.975" y="595"/>
			<point x="97.466" y="599"/>
			<point x="97.834" y="602" type="curve" smooth="yes"/>
		</contour>
	</outline>
</glyph>
<glyph name="bracketleft" format="2">
	<advance width="295"/>
	<unicode hex="005B"/>
	<note>
		bracketleft
	</note>
	<outline>
		<contour>
			<point x="189.061" y="-121" type="line"/>
			<point x="189.429" y="-118" type="line" smooth="yes"/>
			<point x="189.92" y="-114"/>
			<point x="188.166" y="-112"/>
			<point x="183.166" y="-112" type="curve" smooth="yes"/>
			<point x="64.166" y="-112" type="line"/>
			<point x="169.024" y="742" type="line"/>
			<point x="288.024" y="742" type="line" smooth="yes"/>
			<point x="293.024" y="742"/>
			<point x="295.269" y="744"/>
			<point x="295.761" y="748" type="curve" smooth="yes"/>
			<point x="296.129" y="751" type="line"/>
			<point x="159.129" y="751" type="line"/>
			<point x="52.061" y="-121" type="line"/>
			<point x="189.061" y="-121" type="line"/>
		</contour>
	</outline>
</glyph>
<glyph name="backslash" format="2">
	<advance width="388"/>
	<unicode hex="005C"/>
	<note>
		backslash
	</note>
	<outline>
		<contour>
			<point x="312.866" y="-33" type="line"/>
			<point x="315.252" y="-38"/>
			<point x="319.129" y="-39"/>
			<point x="323.129" y="-39" type="curve" smooth="yes"/>
			<point x="327.129" y="-39" type="line"/>
			<point x="99.586" y="714" type="line" smooth="yes"/>
			<point x="98.077" y="718"/>
			<point x="95.323" y="720"/>
			<point x="90.323" y="720" type="curve" smooth="yes"/>
			<point x="85.323" y="720" type="line"/>
			<point x="312.866" y="-33" type="line"/>
		</contour>
	</outline>
</glyph>
<glyph name="bracketright" format="2">
	<advance width="295"/>
	<unicode hex="005D"/>
	<note>
		bracketright
	</note>
	<outline>
		<contour>
			<point x="16.061" y="-121" type="line"/>
			<point x="153.061" y="-121" type="line"/>
			<point x="260.129" y="751" type="line"/>
			<point x="123.129" y="751" type="line"/>
			<point x="122.761" y="748" type="line" smooth="yes"/>
			<point x="122.269" y="744"/>
			<point x="124.357" y="742"/>
			<point x="129.024" y="742" type="curve" smooth="yes"/>
			<point x="248.024" y="742" type="line"/>
			<point x="143.166" y="-112" type="line"/>
			<point x="24.166" y="-112" type="line" smooth="yes"/>
			<point x="19.499" y="-112"/>
			<point x="16.92" y="-114"/>
			<point x="16.429" y="-118" type="curve" smooth="yes"/>
		</contour>
	</outline>
</glyph>
<glyph name="asciicircum" format="2">
	<advance width="424"/>
	<unicode hex="005E"/>
	<note>
		asciicircum
	</note>
	<outline>
		<contour>
			<point x="65.768" y="406" type="line"/>
			<point x="72.768" y="406" type="line" smooth="yes"/>
			<point x="77.768" y="406"/>
			<point x="82.259" y="410"/>
			<point x="83.628" y="413" type="curve" smooth="yes"/>
			<point x="254.692" y="666" type="line" smooth="yes"/>
			<point x="259.552" y="673"/>
			<point x="263.288" y="679"/>
			<point x="266.148" y="686" type="curve"/>
			<point x="266.902" y="684"/>
			<point x="272.815" y="667"/>
			<point x="272.692" y="666" type="curve" smooth="yes"/>
			<point x="381.628" y="413" type="line" smooth="yes"/>
			<point x="384.014" y="408"/>
			<point x="386.768" y="406"/>
			<point x="390.768" y="406" type="curve" smooth="yes"/>
			<point x="397.768" y="406" type="line"/>
			<point x="270.867" y="700" type="line"/>
			<point x="264.867" y="700" type="line"/>
		</contour>
	</outline>
</glyph>
<glyph name="underscore" format="2">
	<advance width="394"/>
	<unicode hex="005F"/>
	<note>
		underscore
	</note>
	<outline>
		<contour>
			<point x="-44.816" y="-120" type="line"/>
			<point x="-46.167" y="-131" type="line"/>
			<point x="347.833" y="-131" type="line"/>
			<point x="349.184" y="-120" type="line"/>
			<point x="-44.816" y="-120" type="line"/>
		</contour>
	</outline>
</glyph>
<glyph name="grave" format="2">
	<advance width="216"/>
	<unicode hex="0060"/>
	<note>
		grave
	</note>
	<outline>
		<contour>
			<point x="106.849" y="708" type="line"/>
			<point x="192.501" y="583" type="line" smooth="yes"/>
			<point x="194.133" y="580"/>
			<point x="197.01" y="579"/>
			<point x="200.01" y="579" type="curve" smooth="yes"/>
			<point x="207.01" y="579" type="line"/>
			<point x="139.499" y="697" type="line"/>
			<point x="135.604" y="706"/>
			<point x="131.849" y="708"/>
			<point x="119.849" y="708" type="curve" smooth="yes"/>
			<point x="106.849" y="708" type="line"/>
		</contour>
	</outline>
</glyph>
<glyph name="a" format="2">
	<advance width="535"/>
	<unicode hex="0061"/>
	<anchor x="442.918" y="0" name="ogonek"/>
	<anchor x="237.918" y="0" name="bottom"/>
	<anchor x="298.082" y="490" name="top"/>
	<note>
		a
	</note>
	<outline>
		<contour>
			<point x="206.181" y="-6" type="curve"/>
			<point x="279.181" y="-6"/>
			<point x="349.338" y="36"/>
			<point x="401.565" y="103" type="curve"/>
			<point x="391.9" y="8" type="line" smooth="yes"/>
			<point x="391.286" y="3"/>
			<point x="392.918" y="0"/>
			<point x="397.918" y="0" type="curve" smooth="yes"/>
			<point x="400.918" y="0" type="line"/>
			<point x="461.082" y="490" type="line"/>
			<point x="458.082" y="490" type="line" smooth="yes"/>
			<point x="453.082" y="490"/>
			<point x="450.714" y="487"/>
			<point x="450.1" y="482" type="curve" smooth="yes"/>
			<point x="439.259" y="410" type="line"/>
			<point x="409.627" y="470"/>
			<point x="359.064" y="498"/>
			<point x="287.064" y="498" type="curve" smooth="yes"/>
			<point x="145.064" y="498"/>
			<point x="58.558" y="388"/>
			<point x="40.877" y="244" type="curve" smooth="yes"/>
			<point x="20.127" y="75"/>
			<point x="78.181" y="-6"/>
		</contour>
		<contour>
			<point x="207.409" y="4" type="curve"/>
			<point x="86.409" y="4"/>
			<point x="32.863" y="81"/>
			<point x="52.877" y="244" type="curve" smooth="yes"/>
			<point x="70.067" y="384"/>
			<point x="149.837" y="488"/>
			<point x="285.837" y="488" type="curve" smooth="yes"/>
			<point x="355.837" y="488"/>
			<point x="403.521" y="461"/>
			<point x="437.418" y="395" type="curve"/>
			<point x="403.529" y="119" type="line"/>
			<point x="349.689" y="47"/>
			<point x="279.409" y="4"/>
		</contour>
		<contour>
			<point x="397.918" y="0" type="line"/>
			<point x="482.918" y="0" type="line"/>
			<point x="483.532" y="5" type="line" smooth="yes"/>
			<point x="483.9" y="8"/>
			<point x="480.146" y="10"/>
			<point x="477.146" y="10" type="curve" smooth="yes"/>
			<point x="400.391" y="12" type="line"/>
		</contour>
	</outline>
</glyph>
<glyph name="b" format="2">
	<advance width="522"/>
	<unicode hex="0062"/>
	<anchor x="319.323" y="720" name="top"/>
	<anchor x="230.918" y="0" name="bottom"/>
	<note>
		b
	</note>
	<outline>
		<contour>
			<point x="235.181" y="-6" type="curve" smooth="yes"/>
			<point x="376.181" y="-6"/>
			<point x="463.81" y="105"/>
			<point x="481.368" y="248" type="curve" smooth="yes"/>
			<point x="502.365" y="419"/>
			<point x="443.064" y="498"/>
			<point x="316.064" y="498" type="curve" smooth="yes"/>
			<point x="244.064" y="498"/>
			<point x="172.908" y="456"/>
			<point x="120.681" y="389" type="curve"/>
			<point x="161.323" y="720" type="line"/>
			<point x="149.323" y="720" type="line"/>
			<point x="64.479" y="29" type="line"/>
			<point x="103.918" y="0"/>
			<point x="163.181" y="-6"/>
		</contour>
		<contour>
			<point x="236.409" y="4" type="curve" smooth="yes"/>
			<point x="167.409" y="4"/>
			<point x="118.146" y="10"/>
			<point x="76.97" y="33" type="curve"/>
			<point x="118.716" y="373" type="line"/>
			<point x="172.557" y="445"/>
			<point x="243.837" y="488"/>
			<point x="314.837" y="488" type="curve" smooth="yes"/>
			<point x="435.837" y="488"/>
			<point x="489.382" y="411"/>
			<point x="469.368" y="248" type="curve" smooth="yes"/>
			<point x="452.424" y="110"/>
			<point x="372.409" y="4"/>
		</contour>
		<contour>
			<point x="152.323" y="720" type="line"/>
			<point x="67.323" y="720" type="line"/>
			<point x="66.709" y="715" type="line" smooth="yes"/>
			<point x="66.34" y="712"/>
			<point x="70.095" y="710"/>
			<point x="73.095" y="710" type="curve" smooth="yes"/>
			<point x="149.849" y="708" type="line"/>
		</contour>
	</outline>
</glyph>
<glyph name="c" format="2">
	<advance width="435"/>
	<unicode hex="0063"/>
	<anchor x="280.082" y="490" name="top"/>
	<anchor x="218.918" y="0" name="bottom"/>
	<note>
		c
	</note>
	<outline>
		<contour>
			<point x="216.181" y="-6" type="curve" smooth="yes"/>
			<point x="288.181" y="-6"/>
			<point x="350.742" y="23"/>
			<point x="379.039" y="58" type="curve"/>
			<point x="377.285" y="60" type="line" smooth="yes"/>
			<point x="375.53" y="62"/>
			<point x="371.53" y="62"/>
			<point x="369.285" y="60" type="curve" smooth="yes"/>
			<point x="331.742" y="23"/>
			<point x="276.409" y="4"/>
			<point x="217.409" y="4" type="curve" smooth="yes"/>
			<point x="96.409" y="4"/>
			<point x="35.073" y="99"/>
			<point x="53" y="245" type="curve" smooth="yes"/>
			<point x="70.804" y="390"/>
			<point x="156.837" y="488"/>
			<point x="284.837" y="488" type="curve" smooth="yes"/>
			<point x="328.837" y="488"/>
			<point x="366.609" y="478"/>
			<point x="401.153" y="458" type="curve"/>
			<point x="410.153" y="458" type="line"/>
			<point x="411.013" y="465" type="line"/>
			<point x="371.837" y="488"/>
			<point x="330.064" y="498"/>
			<point x="286.064" y="498" type="curve" smooth="yes"/>
			<point x="150.064" y="498"/>
			<point x="59.418" y="395"/>
			<point x="41" y="245" type="curve" smooth="yes"/>
			<point x="22.46" y="94"/>
			<point x="86.181" y="-6"/>
		</contour>
		<contour>
			<point x="397.013" y="465" type="line"/>
			<point x="388.594" y="372" type="line" smooth="yes"/>
			<point x="388.225" y="369"/>
			<point x="389.734" y="365"/>
			<point x="392.734" y="365" type="curve" smooth="yes"/>
			<point x="398.734" y="365" type="line"/>
			<point x="410.276" y="459" type="line"/>
			<point x="397.013" y="465" type="line"/>
		</contour>
	</outline>
</glyph>
<glyph name="d" format="2">
	<advance width="535"/>
	<unicode hex="0064"/>
	<anchor x="425" y="245" name="center"/>
	<anchor x="447.323" y="720" name="top"/>
	<anchor x="469.694" y="609" name="topright"/>
	<anchor x="256.918" y="0" name="bottom"/>
	<note>
		d
	</note>
	<outline>
		<contour>
			<point x="206.181" y="-6" type="curve" smooth="yes"/>
			<point x="281.181" y="-6"/>
			<point x="349.338" y="36"/>
			<point x="401.565" y="103" type="curve"/>
			<point x="391.9" y="8" type="line" smooth="yes"/>
			<point x="391.286" y="3"/>
			<point x="392.918" y="0"/>
			<point x="397.918" y="0" type="curve" smooth="yes"/>
			<point x="400.918" y="0" type="line"/>
			<point x="489.323" y="720" type="line"/>
			<point x="477.323" y="720" type="line"/>
			<point x="439.259" y="410" type="line"/>
			<point x="409.627" y="470"/>
			<point x="359.064" y="498"/>
			<point x="287.064" y="498" type="curve" smooth="yes"/>
			<point x="146.064" y="498"/>
			<point x="58.558" y="388"/>
			<point x="40.877" y="244" type="curve" smooth="yes"/>
			<point x="20.127" y="75"/>
			<point x="79.181" y="-6"/>
		</contour>
		<contour>
			<point x="207.409" y="4" type="curve"/>
			<point x="87.409" y="4"/>
			<point x="32.863" y="81"/>
			<point x="52.877" y="244" type="curve" smooth="yes"/>
			<point x="69.944" y="383"/>
			<point x="150.837" y="488"/>
			<point x="285.837" y="488" type="curve" smooth="yes"/>
			<point x="354.837" y="488"/>
			<point x="402.767" y="463"/>
			<point x="437.295" y="394" type="curve"/>
			<point x="403.529" y="119" type="line"/>
			<point x="349.689" y="47"/>
			<point x="280.409" y="4"/>
		</contour>
		<contour>
			<point x="480.323" y="720" type="line"/>
			<point x="395.323" y="720" type="line"/>
			<point x="394.709" y="715" type="line" smooth="yes"/>
			<point x="394.34" y="712"/>
			<point x="398.095" y="710"/>
			<point x="401.095" y="710" type="curve" smooth="yes"/>
			<point x="477.849" y="708" type="line"/>
		</contour>
		<contour>
			<point x="397.918" y="0" type="line"/>
			<point x="482.918" y="0" type="line"/>
			<point x="483.532" y="5" type="line" smooth="yes"/>
			<point x="483.9" y="8"/>
			<point x="480.146" y="10"/>
			<point x="477.146" y="10" type="curve" smooth="yes"/>
			<point x="400.391" y="12" type="line"/>
		</contour>
	</outline>
</glyph>
<glyph name="f" format="2">
	<advance width="351"/>
	<unicode hex="0066"/>
	<anchor x="224.867" y="700" name="top"/>
	<anchor x="74.185" y="-177" name="bottom"/>
	<note>
		f
	</note>
	<outline>
		<contour>
			<point x="88.918" y="0" type="line"/>
			<point x="100.918" y="0" type="line"/>
			<point x="157.276" y="459" type="line"/>
			<point x="332.276" y="459" type="line"/>
			<point x="333.504" y="469" type="line"/>
			<point x="158.504" y="469" type="line"/>
			<point x="167.713" y="544" type="line" smooth="yes"/>
			<point x="180.359" y="647"/>
			<point x="233.499" y="697"/>
			<point x="308.499" y="697" type="curve" smooth="yes"/>
			<point x="323.499" y="697"/>
			<point x="335.376" y="696"/>
			<point x="343.007" y="693" type="curve" smooth="yes"/>
			<point x="353.516" y="689"/>
			<point x="361.394" y="688"/>
			<point x="362.885" y="692" type="curve" smooth="yes"/>
			<point x="364.376" y="696" type="line"/>
			<point x="352.358" y="704"/>
			<point x="329.726" y="707"/>
			<point x="309.726" y="707" type="curve" smooth="yes"/>
			<point x="226.726" y="707"/>
			<point x="168.728" y="650"/>
			<point x="155.713" y="544" type="curve" smooth="yes"/>
			<point x="146.504" y="469" type="line"/>
			<point x="58.504" y="469" type="line"/>
			<point x="58.013" y="465" type="line" smooth="yes"/>
			<point x="57.644" y="462"/>
			<point x="59.521" y="461"/>
			<point x="63.521" y="461" type="curve" smooth="yes"/>
			<point x="145.276" y="459" type="line"/>
		</contour>
		<contour>
			<point x="-20.043" y="-187" type="curve" smooth="yes"/>
			<point x="9.957" y="-187"/>
			<point x="79.676" y="-173"/>
			<point x="90.849" y="-82" type="curve" smooth="yes"/>
			<point x="123.878" y="187" type="line"/>
			<point x="111.878" y="187" type="line"/>
			<point x="78.972" y="-81" type="line" smooth="yes"/>
			<point x="74.429" y="-118"/>
			<point x="53.185" y="-177"/>
			<point x="-15.815" y="-177" type="curve" smooth="yes"/>
			<point x="-49.815" y="-177"/>
			<point x="-52.219" y="-164"/>
			<point x="-57.078" y="-171" type="curve" smooth="yes"/>
			<point x="-60.692" y="-176" type="line"/>
			<point x="-52.306" y="-181"/>
			<point x="-38.043" y="-187"/>
		</contour>
	</outline>
</glyph>
<glyph name="h" format="2">
	<advance width="582"/>
	<unicode hex="0068"/>
	<anchor x="217.589" y="600" name="center"/>
	<anchor x="258.918" y="0" name="bottom"/>
	<anchor x="347.323" y="720" name="top"/>
	<note>
		h
	</note>
	<outline>
		<contour>
			<point x="82.918" y="0" type="line"/>
			<point x="94.918" y="0" type="line"/>
			<point x="140.716" y="373" type="line"/>
			<point x="198.557" y="445"/>
			<point x="269.837" y="488"/>
			<point x="345.837" y="488" type="curve" smooth="yes"/>
			<point x="448.837" y="488"/>
			<point x="487.978" y="424"/>
			<point x="474.472" y="314" type="curve" smooth="yes"/>
			<point x="435.918" y="0" type="line"/>
			<point x="447.918" y="0" type="line"/>
			<point x="486.472" y="314" type="line" smooth="yes"/>
			<point x="500.715" y="430"/>
			<point x="456.064" y="498"/>
			<point x="347.064" y="498" type="curve" smooth="yes"/>
			<point x="271.064" y="498"/>
			<point x="195.785" y="455"/>
			<point x="142.558" y="388" type="curve"/>
			<point x="183.323" y="720" type="line"/>
			<point x="171.323" y="720" type="line"/>
		</contour>
		<contour>
			<point x="444.918" y="0" type="line"/>
			<point x="529.918" y="0" type="line"/>
			<point x="530.532" y="5" type="line" smooth="yes"/>
			<point x="530.9" y="8"/>
			<point x="527.146" y="10"/>
			<point x="524.146" y="10" type="curve" smooth="yes"/>
			<point x="447.391" y="12" type="line"/>
		</contour>
		<contour>
			<point x="174.323" y="720" type="line"/>
			<point x="89.323" y="720" type="line"/>
			<point x="88.709" y="715" type="line" smooth="yes"/>
			<point x="88.34" y="712"/>
			<point x="92.095" y="710"/>
			<point x="95.095" y="710" type="curve" smooth="yes"/>
			<point x="171.849" y="708" type="line"/>
		</contour>
	</outline>
</glyph>
<glyph name="i" format="2">
	<advance width="229"/>
	<unicode hex="0069"/>
	<anchor x="85.163" y="2" name="ogonek"/>
	<anchor x="88.918" y="0" name="bottom"/>
	<anchor x="149.082" y="490" name="top"/>
	<note>
		i
	</note>
	<outline>
		<contour>
			<point x="82.918" y="0" type="line"/>
			<point x="94.918" y="0" type="line"/>
			<point x="155.082" y="490" type="line"/>
			<point x="143.082" y="490" type="line"/>
		</contour>
		<contour>
			<point x="91.918" y="0" type="line"/>
			<point x="176.918" y="0" type="line"/>
			<point x="177.532" y="5" type="line" smooth="yes"/>
			<point x="177.9" y="8"/>
			<point x="174.146" y="10"/>
			<point x="171.146" y="10" type="curve" smooth="yes"/>
			<point x="94.391" y="12" type="line"/>
		</contour>
		<contour>
			<point x="146.082" y="490" type="line"/>
			<point x="61.082" y="490" type="line"/>
			<point x="60.468" y="485" type="line" smooth="yes"/>
			<point x="60.1" y="482"/>
			<point x="63.854" y="480"/>
			<point x="66.854" y="480" type="curve" smooth="yes"/>
			<point x="143.609" y="478" type="line"/>
		</contour>
		<contour>
			<point x="168.114" y="645" type="curve" smooth="yes"/>
			<point x="183.114" y="645"/>
			<point x="197.833" y="659"/>
			<point x="199.429" y="672" type="curve" smooth="yes"/>
			<point x="201.394" y="688"/>
			<point x="189.867" y="700"/>
			<point x="174.867" y="700" type="curve" smooth="yes"/>
			<point x="159.867" y="700"/>
			<point x="145.394" y="688"/>
			<point x="143.429" y="672" type="curve" smooth="yes"/>
			<point x="141.833" y="659"/>
			<point x="153.114" y="645"/>
		</contour>
	</outline>
</glyph>
<glyph name="j" format="2">
	<advance width="183"/>
	<unicode hex="006A"/>
	<anchor x="127.082" y="490" name="top"/>
	<note>
		j
	</note>
	<outline>
		<contour>
			<point x="-48.043" y="-187" type="curve" smooth="yes"/>
			<point x="-18.043" y="-187"/>
			<point x="51.676" y="-173"/>
			<point x="62.849" y="-82" type="curve" smooth="yes"/>
			<point x="133.082" y="490" type="line"/>
			<point x="121.082" y="490" type="line"/>
			<point x="50.972" y="-81" type="line" smooth="yes"/>
			<point x="46.429" y="-118"/>
			<point x="25.185" y="-177"/>
			<point x="-43.815" y="-177" type="curve" smooth="yes"/>
			<point x="-77.815" y="-177"/>
			<point x="-80.219" y="-164"/>
			<point x="-85.078" y="-171" type="curve" smooth="yes"/>
			<point x="-88.692" y="-176" type="line"/>
			<point x="-80.306" y="-181"/>
			<point x="-66.043" y="-187"/>
		</contour>
		<contour>
			<point x="124.082" y="490" type="line"/>
			<point x="39.082" y="490" type="line"/>
			<point x="38.468" y="485" type="line" smooth="yes"/>
			<point x="38.1" y="482"/>
			<point x="41.854" y="480"/>
			<point x="44.854" y="480" type="curve" smooth="yes"/>
			<point x="121.609" y="478" type="line"/>
		</contour>
		<contour>
			<point x="146.114" y="645" type="curve" smooth="yes"/>
			<point x="161.114" y="645"/>
			<point x="175.833" y="659"/>
			<point x="177.429" y="672" type="curve" smooth="yes"/>
			<point x="179.394" y="688"/>
			<point x="167.867" y="700"/>
			<point x="152.867" y="700" type="curve" smooth="yes"/>
			<point x="137.867" y="700"/>
			<point x="123.394" y="688"/>
			<point x="121.429" y="672" type="curve" smooth="yes"/>
			<point x="119.833" y="659"/>
			<point x="131.114" y="645"/>
		</contour>
	</outline>
</glyph>
<glyph name="k" format="2">
	<advance width="569"/>
	<unicode hex="006B"/>
	<anchor x="338.323" y="720" name="top"/>
	<anchor x="249.918" y="0" name="bottom"/>
	<note>
		k
	</note>
	<outline>
		<contour>
			<point x="82.918" y="0" type="line"/>
			<point x="94.918" y="0" type="line"/>
			<point x="126.719" y="259" type="line"/>
			<point x="146.719" y="259" type="line" smooth="yes"/>
			<point x="166.719" y="259"/>
			<point x="172.473" y="257"/>
			<point x="183" y="245" type="curve" smooth="yes"/>
			<point x="399.654" y="6" type="line" smooth="yes"/>
			<point x="404.041" y="1"/>
			<point x="407.918" y="0"/>
			<point x="412.918" y="0" type="curve" smooth="yes"/>
			<point x="421.918" y="0" type="line"/>
			<point x="193.859" y="252" type="line" smooth="yes"/>
			<point x="189.473" y="257"/>
			<point x="183.087" y="262"/>
			<point x="174.456" y="265" type="curve"/>
			<point x="178.578" y="266"/>
			<point x="182.947" y="269"/>
			<point x="187.438" y="273" type="curve" smooth="yes"/>
			<point x="462.082" y="490" type="line"/>
			<point x="453.082" y="490" type="line" smooth="yes"/>
			<point x="445.082" y="490"/>
			<point x="440.714" y="487"/>
			<point x="434.1" y="482" type="curve" smooth="yes"/>
			<point x="175.929" y="277" type="line" smooth="yes"/>
			<point x="164.824" y="268"/>
			<point x="157.824" y="268"/>
			<point x="150.824" y="268" type="curve" smooth="yes"/>
			<point x="127.824" y="268" type="line"/>
			<point x="183.323" y="720" type="line"/>
			<point x="171.323" y="720" type="line"/>
		</contour>
		<contour>
			<point x="428.486" y="477" type="line"/>
			<point x="450.609" y="478" type="line"/>
			<point x="475.082" y="490" type="line"/>
			<point x="451.082" y="490" type="line"/>
			<point x="438.1" y="482" type="line"/>
		</contour>
		<contour>
			<point x="415.918" y="0" type="line"/>
			<point x="418.391" y="12" type="line"/>
			<point x="394.514" y="13" type="line"/>
		</contour>
		<contour>
			<point x="174.323" y="720" type="line"/>
			<point x="89.323" y="720" type="line"/>
			<point x="88.709" y="715" type="line" smooth="yes"/>
			<point x="88.34" y="712"/>
			<point x="92.095" y="710"/>
			<point x="95.095" y="710" type="curve" smooth="yes"/>
			<point x="171.849" y="708" type="line"/>
		</contour>
		<contour>
			<point x="536.082" y="490" type="line"/>
			<point x="451.082" y="490" type="line"/>
			<point x="450.609" y="478" type="line"/>
			<point x="527.854" y="480" type="line" smooth="yes"/>
			<point x="530.854" y="480"/>
			<point x="535.1" y="482"/>
			<point x="535.468" y="485" type="curve" smooth="yes"/>
		</contour>
		<contour>
			<point x="452.082" y="490" type="line"/>
			<point x="367.082" y="490" type="line"/>
			<point x="366.468" y="485" type="line" smooth="yes"/>
			<point x="366.1" y="482"/>
			<point x="369.854" y="480"/>
			<point x="372.854" y="480" type="curve" smooth="yes"/>
			<point x="449.609" y="478" type="line"/>
		</contour>
		<contour>
			<point x="415.918" y="0" type="line"/>
			<point x="500.918" y="0" type="line"/>
			<point x="501.532" y="5" type="line" smooth="yes"/>
			<point x="501.9" y="8"/>
			<point x="498.146" y="10"/>
			<point x="495.146" y="10" type="curve" smooth="yes"/>
			<point x="418.391" y="12" type="line"/>
		</contour>
	</outline>
</glyph>
<glyph name="l" format="2">
	<advance width="229"/>
	<unicode hex="006C"/>
	<anchor x="133.12" y="360" name="center"/>
	<anchor x="177.323" y="720" name="top"/>
	<anchor x="268.323" y="720" name="topright"/>
	<anchor x="88.918" y="0" name="bottom"/>
	<note>
		l
	</note>
	<outline>
		<contour>
			<point x="82.918" y="0" type="line"/>
			<point x="94.918" y="0" type="line"/>
			<point x="183.323" y="720" type="line"/>
			<point x="171.323" y="720" type="line"/>
		</contour>
		<contour>
			<point x="91.918" y="0" type="line"/>
			<point x="176.918" y="0" type="line"/>
			<point x="177.532" y="5" type="line" smooth="yes"/>
			<point x="177.9" y="8"/>
			<point x="174.146" y="10"/>
			<point x="171.146" y="10" type="curve" smooth="yes"/>
			<point x="94.391" y="12" type="line"/>
		</contour>
		<contour>
			<point x="174.323" y="720" type="line"/>
			<point x="89.323" y="720" type="line"/>
			<point x="88.709" y="715" type="line" smooth="yes"/>
			<point x="88.34" y="712"/>
			<point x="92.095" y="710"/>
			<point x="95.095" y="710" type="curve" smooth="yes"/>
			<point x="171.849" y="708" type="line"/>
		</contour>
	</outline>
</glyph>
<glyph name="m" format="2">
	<advance width="828"/>
	<unicode hex="006D"/>
	<anchor x="444.082" y="490" name="top"/>
	<anchor x="383.918" y="0" name="bottom"/>
	<note>
		m
	</note>
	<outline>
		<contour>
			<point x="82.918" y="0" type="line"/>
			<point x="94.918" y="0" type="line"/>
			<point x="140.839" y="374" type="line"/>
			<point x="189.68" y="446"/>
			<point x="248.837" y="488"/>
			<point x="311.837" y="488" type="curve" smooth="yes"/>
			<point x="398.837" y="488"/>
			<point x="431.487" y="420"/>
			<point x="418.472" y="314" type="curve" smooth="yes"/>
			<point x="379.918" y="0" type="line"/>
			<point x="391.918" y="0" type="line"/>
			<point x="430.472" y="314" type="line" smooth="yes"/>
			<point x="443.856" y="423"/>
			<point x="517.837" y="488"/>
			<point x="602.837" y="488" type="curve" smooth="yes"/>
			<point x="691.837" y="488"/>
			<point x="734.347" y="427"/>
			<point x="720.472" y="314" type="curve" smooth="yes"/>
			<point x="681.918" y="0" type="line"/>
			<point x="693.918" y="0" type="line"/>
			<point x="732.472" y="314" type="line" smooth="yes"/>
			<point x="746.592" y="429"/>
			<point x="701.064" y="498"/>
			<point x="604.064" y="498" type="curve" smooth="yes"/>
			<point x="525.064" y="498"/>
			<point x="456.925" y="448"/>
			<point x="430.875" y="358" type="curve"/>
			<point x="430.802" y="447"/>
			<point x="393.064" y="498"/>
			<point x="314.064" y="498" type="curve" smooth="yes"/>
			<point x="250.064" y="498"/>
			<point x="187.785" y="455"/>
			<point x="142.804" y="390" type="curve"/>
			<point x="152.1" y="482" type="line" smooth="yes"/>
			<point x="152.714" y="487"/>
			<point x="151.082" y="490"/>
			<point x="146.082" y="490" type="curve" smooth="yes"/>
			<point x="143.082" y="490" type="line"/>
		</contour>
		<contour>
			<point x="146.082" y="490" type="line"/>
			<point x="61.082" y="490" type="line"/>
			<point x="60.468" y="485" type="line" smooth="yes"/>
			<point x="60.1" y="482"/>
			<point x="63.854" y="480"/>
			<point x="66.854" y="480" type="curve" smooth="yes"/>
			<point x="143.609" y="478" type="line"/>
		</contour>
		<contour>
			<point x="690.918" y="0" type="line"/>
			<point x="775.918" y="0" type="line"/>
			<point x="776.532" y="5" type="line" smooth="yes"/>
			<point x="776.9" y="8"/>
			<point x="773.146" y="10"/>
			<point x="770.146" y="10" type="curve" smooth="yes"/>
			<point x="693.391" y="12" type="line"/>
		</contour>
	</outline>
</glyph>
<glyph name="p" format="2">
	<advance width="544"/>
	<unicode hex="0070"/>
	<anchor x="316.082" y="490" name="top"/>
	<anchor x="255.918" y="0" name="bottom"/>
	<note>
		p
	</note>
	<outline>
		<contour>
			<point x="60.817" y="-180" type="line"/>
			<point x="72.817" y="-180" type="line"/>
			<point x="104.986" y="82" type="line"/>
			<point x="134.742" y="23"/>
			<point x="185.181" y="-6"/>
			<point x="257.181" y="-6" type="curve" smooth="yes"/>
			<point x="398.181" y="-6"/>
			<point x="485.81" y="105"/>
			<point x="503.368" y="248" type="curve" smooth="yes"/>
			<point x="524.365" y="419"/>
			<point x="465.064" y="498"/>
			<point x="338.064" y="498" type="curve" smooth="yes"/>
			<point x="263.064" y="498"/>
			<point x="195.03" y="457"/>
			<point x="142.681" y="389" type="curve"/>
			<point x="152.1" y="482" type="line" smooth="yes"/>
			<point x="152.714" y="487"/>
			<point x="151.082" y="490"/>
			<point x="146.082" y="490" type="curve" smooth="yes"/>
			<point x="143.082" y="490" type="line"/>
		</contour>
		<contour>
			<point x="258.409" y="4" type="curve" smooth="yes"/>
			<point x="189.409" y="4"/>
			<point x="141.479" y="29"/>
			<point x="106.951" y="98" type="curve"/>
			<point x="140.716" y="373" type="line"/>
			<point x="194.557" y="445"/>
			<point x="264.837" y="488"/>
			<point x="336.837" y="488" type="curve" smooth="yes"/>
			<point x="457.837" y="488"/>
			<point x="511.382" y="411"/>
			<point x="491.368" y="248" type="curve" smooth="yes"/>
			<point x="474.424" y="110"/>
			<point x="394.409" y="4"/>
		</contour>
		<contour>
			<point x="146.082" y="490" type="line"/>
			<point x="61.082" y="490" type="line"/>
			<point x="60.468" y="485" type="line" smooth="yes"/>
			<point x="60.1" y="482"/>
			<point x="63.854" y="480"/>
			<point x="66.854" y="480" type="curve" smooth="yes"/>
			<point x="143.609" y="478" type="line"/>
		</contour>
		<contour>
			<point x="-21.183" y="-180" type="line"/>
			<point x="63.817" y="-180" type="line"/>
			<point x="64.29" y="-168" type="line"/>
			<point x="-12.956" y="-170" type="line" smooth="yes"/>
			<point x="-15.956" y="-170"/>
			<point x="-20.201" y="-172"/>
			<point x="-20.57" y="-175" type="curve" smooth="yes"/>
		</contour>
		<contour>
			<point x="69.817" y="-180" type="line"/>
			<point x="154.817" y="-180" type="line"/>
			<point x="155.43" y="-175" type="line" smooth="yes"/>
			<point x="155.799" y="-172"/>
			<point x="152.044" y="-170"/>
			<point x="149.044" y="-170" type="curve" smooth="yes"/>
			<point x="72.29" y="-168" type="line"/>
		</contour>
	</outline>
</glyph>
<glyph name="q" format="2">
	<advance width="535"/>
	<unicode hex="0071"/>
	<note>
		q
	</note>
	<outline>
		<contour>
			<point x="366.817" y="-180" type="line"/>
			<point x="378.817" y="-180" type="line"/>
			<point x="457.767" y="463" type="line"/>
			<point x="418.328" y="492"/>
			<point x="359.064" y="498"/>
			<point x="287.064" y="498" type="curve" smooth="yes"/>
			<point x="146.064" y="498"/>
			<point x="58.435" y="387"/>
			<point x="40.877" y="244" type="curve" smooth="yes"/>
			<point x="19.881" y="73"/>
			<point x="79.181" y="-6"/>
			<point x="206.181" y="-6" type="curve" smooth="yes"/>
			<point x="278.181" y="-6"/>
			<point x="349.338" y="36"/>
			<point x="401.565" y="103" type="curve"/>
		</contour>
		<contour>
			<point x="207.409" y="4" type="curve" smooth="yes"/>
			<point x="86.409" y="4"/>
			<point x="32.863" y="81"/>
			<point x="52.877" y="244" type="curve" smooth="yes"/>
			<point x="69.821" y="382"/>
			<point x="149.837" y="488"/>
			<point x="285.837" y="488" type="curve" smooth="yes"/>
			<point x="354.837" y="488"/>
			<point x="404.1" y="482"/>
			<point x="445.276" y="459" type="curve"/>
			<point x="403.529" y="119" type="line"/>
			<point x="349.689" y="47"/>
			<point x="278.409" y="4"/>
		</contour>
		<contour>
			<point x="284.817" y="-180" type="line"/>
			<point x="369.817" y="-180" type="line"/>
			<point x="370.29" y="-168" type="line"/>
			<point x="293.044" y="-170" type="line" smooth="yes"/>
			<point x="290.044" y="-170"/>
			<point x="285.799" y="-172"/>
			<point x="285.43" y="-175" type="curve" smooth="yes"/>
		</contour>
		<contour>
			<point x="375.817" y="-180" type="line"/>
			<point x="460.817" y="-180" type="line"/>
			<point x="461.43" y="-175" type="line" smooth="yes"/>
			<point x="461.799" y="-172"/>
			<point x="458.044" y="-170"/>
			<point x="455.044" y="-170" type="curve" smooth="yes"/>
			<point x="378.29" y="-168" type="line"/>
		</contour>
	</outline>
</glyph>
<glyph name="r" format="2">
	<advance width="398"/>
	<unicode hex="0072"/>
	<anchor x="251.082" y="490" name="top"/>
	<anchor x="88.918" y="0" name="bottom"/>
	<note>
		r
	</note>
	<outline>
		<contour>
			<point x="82.918" y="0" type="line"/>
			<point x="94.918" y="0" type="line"/>
			<point x="134.454" y="322" type="line"/>
			<point x="179.347" y="427"/>
			<point x="237.714" y="487"/>
			<point x="324.714" y="487" type="curve" smooth="yes"/>
			<point x="356.714" y="487"/>
			<point x="385.24" y="475"/>
			<point x="396.749" y="471" type="curve" smooth="yes"/>
			<point x="399.627" y="470"/>
			<point x="402.872" y="472"/>
			<point x="405.24" y="475" type="curve" smooth="yes"/>
			<point x="407.732" y="479" type="line"/>
			<point x="384.205" y="491"/>
			<point x="358.064" y="498"/>
			<point x="326.064" y="498" type="curve" smooth="yes"/>
			<point x="237.064" y="498"/>
			<point x="175.066" y="441"/>
			<point x="137.401" y="346" type="curve"/>
			<point x="152.1" y="482" type="line" smooth="yes"/>
			<point x="152.714" y="487"/>
			<point x="151.082" y="490"/>
			<point x="146.082" y="490" type="curve" smooth="yes"/>
			<point x="143.082" y="490" type="line"/>
		</contour>
		<contour>
			<point x="146.082" y="490" type="line"/>
			<point x="61.082" y="490" type="line"/>
			<point x="60.468" y="485" type="line" smooth="yes"/>
			<point x="60.1" y="482"/>
			<point x="63.854" y="480"/>
			<point x="66.854" y="480" type="curve" smooth="yes"/>
			<point x="143.609" y="478" type="line"/>
		</contour>
	</outline>
</glyph>
<glyph name="s" format="2">
	<advance width="397"/>
	<unicode hex="0073"/>
	<anchor x="229.082" y="490" name="top"/>
	<anchor x="162.918" y="0" name="bottom"/>
	<note>
		s
	</note>
	<outline>
		<contour>
			<point x="159.936" y="-8" type="curve" smooth="yes"/>
			<point x="254.936" y="-8"/>
			<point x="327.425" y="53"/>
			<point x="337.739" y="137" type="curve" smooth="yes"/>
			<point x="347.562" y="217"/>
			<point x="281.263" y="239"/>
			<point x="209.21" y="263" type="curve" smooth="yes"/>
			<point x="138.034" y="286"/>
			<point x="69.244" y="304"/>
			<point x="77.839" y="374" type="curve" smooth="yes"/>
			<point x="85.575" y="437"/>
			<point x="152.837" y="488"/>
			<point x="231.837" y="488" type="curve" smooth="yes"/>
			<point x="264.837" y="488"/>
			<point x="317.486" y="477"/>
			<point x="346.521" y="461" type="curve"/>
			<point x="356.539" y="453" type="line"/>
			<point x="358.381" y="468" type="line"/>
			<point x="335.732" y="479"/>
			<point x="288.064" y="498"/>
			<point x="233.064" y="498" type="curve" smooth="yes"/>
			<point x="149.064" y="498"/>
			<point x="75.434" y="444"/>
			<point x="66.839" y="374" type="curve" smooth="yes"/>
			<point x="57.508" y="298"/>
			<point x="124.806" y="276"/>
			<point x="197.105" y="254" type="curve" smooth="yes"/>
			<point x="268.404" y="232"/>
			<point x="335.703" y="210"/>
			<point x="326.616" y="136" type="curve" smooth="yes"/>
			<point x="317.285" y="60"/>
			<point x="251.163" y="2"/>
			<point x="161.163" y="2" type="curve" smooth="yes"/>
			<point x="93.163" y="2"/>
			<point x="49.601" y="30"/>
			<point x="32.566" y="46" type="curve"/>
			<point x="22.794" y="56" type="line"/>
			<point x="20.584" y="38" type="line"/>
			<point x="49.128" y="18"/>
			<point x="88.936" y="-8"/>
		</contour>
		<contour>
			<point x="344.258" y="467" type="line"/>
			<point x="335.839" y="374" type="line" smooth="yes"/>
			<point x="335.471" y="371"/>
			<point x="336.98" y="367"/>
			<point x="339.98" y="367" type="curve" smooth="yes"/>
			<point x="345.98" y="367" type="line"/>
			<point x="357.521" y="461" type="line"/>
			<point x="344.258" y="467" type="line"/>
		</contour>
		<contour>
			<point x="34.338" y="36" type="line"/>
			<point x="42.757" y="129" type="line" smooth="yes"/>
			<point x="43.125" y="132"/>
			<point x="41.616" y="136"/>
			<point x="38.616" y="136" type="curve" smooth="yes"/>
			<point x="32.616" y="136" type="line"/>
			<point x="21.075" y="42" type="line"/>
			<point x="34.338" y="36" type="line"/>
		</contour>
	</outline>
</glyph>
<glyph name="t" format="2">
	<advance width="319"/>
	<unicode hex="0074"/>
	<anchor x="163.401" y="346" name="center"/>
	<anchor x="167.552" y="673" name="top"/>
	<anchor x="329.082" y="490" name="topright"/>
	<anchor x="169.918" y="0" name="bottom"/>
	<note>
		t
	</note>
	<outline>
		<contour>
			<point x="166.936" y="-8" type="curve"/>
			<point x="201.936" y="-8"/>
			<point x="247.391" y="12"/>
			<point x="269.706" y="39" type="curve"/>
			<point x="267.952" y="41" type="line" smooth="yes"/>
			<point x="267.075" y="42"/>
			<point x="265.198" y="43"/>
			<point x="264.198" y="43" type="curve" smooth="yes"/>
			<point x="256.198" y="43"/>
			<point x="203.163" y="2"/>
			<point x="168.163" y="2" type="curve" smooth="yes"/>
			<point x="121.163" y="2"/>
			<point x="91.847" y="32"/>
			<point x="99.337" y="93" type="curve" smooth="yes"/>
			<point x="144.276" y="459" type="line"/>
			<point x="311.276" y="459" type="line"/>
			<point x="312.504" y="469" type="line"/>
			<point x="145.504" y="469" type="line"/>
			<point x="170.552" y="673" type="line"/>
			<point x="167.552" y="673" type="line" smooth="yes"/>
			<point x="164.552" y="673"/>
			<point x="162.183" y="670"/>
			<point x="161.692" y="666" type="curve" smooth="yes"/>
			<point x="133.504" y="469" type="line"/>
			<point x="45.258" y="467" type="line"/>
			<point x="44.89" y="464" type="line" smooth="yes"/>
			<point x="44.521" y="461"/>
			<point x="46.276" y="459"/>
			<point x="51.276" y="459" type="curve" smooth="yes"/>
			<point x="132.276" y="459" type="line"/>
			<point x="87.337" y="93" type="line" smooth="yes"/>
			<point x="78.496" y="21"/>
			<point x="109.936" y="-8"/>
		</contour>
	</outline>
</glyph>
<glyph name="u" format="2">
	<advance width="560"/>
	<unicode hex="0075"/>
	<anchor x="461.163" y="2" name="ogonek"/>
	<anchor x="291.082" y="490" name="top"/>
	<anchor x="486.082" y="490" name="topright"/>
	<anchor x="226.918" y="0" name="bottom"/>
	<note>
		u
	</note>
	<outline>
		<contour>
			<point x="221.936" y="-8" type="curve" smooth="yes"/>
			<point x="298.936" y="-8"/>
			<point x="374.461" y="37"/>
			<point x="426.442" y="102" type="curve"/>
			<point x="416.9" y="8" type="line" smooth="yes"/>
			<point x="416.286" y="3"/>
			<point x="417.918" y="0"/>
			<point x="422.918" y="0" type="curve" smooth="yes"/>
			<point x="425.918" y="0" type="line"/>
			<point x="486.082" y="490" type="line"/>
			<point x="474.082" y="490" type="line"/>
			<point x="428.284" y="117" type="line"/>
			<point x="370.443" y="45"/>
			<point x="300.163" y="2"/>
			<point x="223.163" y="2" type="curve" smooth="yes"/>
			<point x="121.163" y="2"/>
			<point x="81.39" y="69"/>
			<point x="94.528" y="176" type="curve" smooth="yes"/>
			<point x="133.082" y="490" type="line"/>
			<point x="121.082" y="490" type="line"/>
			<point x="82.528" y="176" type="line" smooth="yes"/>
			<point x="68.285" y="60"/>
			<point x="112.936" y="-8"/>
		</contour>
		<contour>
			<point x="422.918" y="0" type="line"/>
			<point x="507.918" y="0" type="line"/>
			<point x="508.532" y="5" type="line" smooth="yes"/>
			<point x="508.9" y="8"/>
			<point x="505.146" y="10"/>
			<point x="502.146" y="10" type="curve" smooth="yes"/>
			<point x="425.391" y="12" type="line"/>
		</contour>
		<contour>
			<point x="124.082" y="490" type="line"/>
			<point x="39.082" y="490" type="line"/>
			<point x="38.468" y="485" type="line" smooth="yes"/>
			<point x="38.1" y="482"/>
			<point x="41.854" y="480"/>
			<point x="44.854" y="480" type="curve" smooth="yes"/>
			<point x="121.609" y="478" type="line"/>
		</contour>
		<contour>
			<point x="477.082" y="490" type="line"/>
			<point x="392.082" y="490" type="line"/>
			<point x="391.468" y="485" type="line" smooth="yes"/>
			<point x="391.1" y="482"/>
			<point x="394.854" y="480"/>
			<point x="397.854" y="480" type="curve" smooth="yes"/>
			<point x="474.609" y="478" type="line"/>
		</contour>
	</outline>
</glyph>
<glyph name="v" format="2">
	<advance width="617"/>
	<unicode hex="0076"/>
	<anchor x="339.082" y="490" name="top"/>
	<anchor x="278.918" y="0" name="bottom"/>
	<note>
		v
	</note>
	<outline>
		<contour>
			<point x="273.918" y="0" type="line"/>
			<point x="282.918" y="0" type="line"/>
			<point x="556.082" y="490" type="line"/>
			<point x="549.082" y="490" type="line" smooth="yes"/>
			<point x="546.082" y="490"/>
			<point x="541.837" y="488"/>
			<point x="539.223" y="483" type="curve" smooth="yes"/>
			<point x="289.092" y="34" type="line" smooth="yes"/>
			<point x="285.356" y="28"/>
			<point x="282.742" y="23"/>
			<point x="280.882" y="16" type="curve"/>
			<point x="280.742" y="23"/>
			<point x="278.356" y="28"/>
			<point x="276.092" y="34" type="curve" smooth="yes"/>
			<point x="136.223" y="483" type="line" smooth="yes"/>
			<point x="134.714" y="487"/>
			<point x="133.082" y="490"/>
			<point x="128.082" y="490" type="curve" smooth="yes"/>
			<point x="121.082" y="490" type="line"/>
		</contour>
		<contour>
			<point x="127.1" y="482" type="line"/>
			<point x="143.1" y="482" type="line"/>
			<point x="144.082" y="490" type="line"/>
			<point x="128.082" y="490" type="line"/>
		</contour>
		<contour>
			<point x="534.1" y="482" type="line"/>
			<point x="550.1" y="482" type="line"/>
			<point x="551.082" y="490" type="line"/>
			<point x="535.082" y="490" type="line"/>
		</contour>
		<contour>
			<point x="140.082" y="490" type="line"/>
			<point x="55.082" y="490" type="line"/>
			<point x="54.468" y="485" type="line" smooth="yes"/>
			<point x="54.1" y="482"/>
			<point x="57.854" y="480"/>
			<point x="60.854" y="480" type="curve" smooth="yes"/>
			<point x="137.609" y="478" type="line"/>
		</contour>
		<contour>
			<point x="215.082" y="490" type="line"/>
			<point x="130.082" y="490" type="line"/>
			<point x="129.609" y="478" type="line"/>
			<point x="206.854" y="480" type="line" smooth="yes"/>
			<point x="209.854" y="480"/>
			<point x="214.1" y="482"/>
			<point x="214.468" y="485" type="curve" smooth="yes"/>
		</contour>
		<contour>
			<point x="547.082" y="490" type="line"/>
			<point x="462.082" y="490" type="line"/>
			<point x="461.468" y="485" type="line" smooth="yes"/>
			<point x="461.1" y="482"/>
			<point x="464.854" y="480"/>
			<point x="467.854" y="480" type="curve" smooth="yes"/>
			<point x="544.609" y="478" type="line"/>
		</contour>
		<contour>
			<point x="622.082" y="490" type="line"/>
			<point x="537.082" y="490" type="line"/>
			<point x="536.609" y="478" type="line"/>
			<point x="613.854" y="480" type="line" smooth="yes"/>
			<point x="616.854" y="480"/>
			<point x="621.1" y="482"/>
			<point x="621.468" y="485" type="curve" smooth="yes"/>
		</contour>
	</outline>
</glyph>
<glyph name="x" format="2">
	<advance width="581"/>
	<unicode hex="0078"/>
	<anchor x="321.082" y="490" name="top"/>
	<anchor x="260.918" y="0" name="bottom"/>
	<note>
		x
	</note>
	<outline>
		<contour>
			<point x="68.918" y="0" type="line"/>
			<point x="68.918" y="0" type="line"/>
			<point x="79.918" y="0" type="line" smooth="yes"/>
			<point x="82.918" y="0"/>
			<point x="85.041" y="1"/>
			<point x="89.777" y="7" type="curve" smooth="yes"/>
			<point x="285.018" y="237" type="line" smooth="yes"/>
			<point x="287.386" y="240"/>
			<point x="289.754" y="243"/>
			<point x="289.877" y="244" type="curve"/>
			<point x="432.777" y="7" type="line" smooth="yes"/>
			<point x="435.163" y="2"/>
			<point x="433.918" y="0"/>
			<point x="440.918" y="0" type="curve" smooth="yes"/>
			<point x="451.918" y="0" type="line"/>
			<point x="299.737" y="251" type="line"/>
			<point x="505.082" y="490" type="line"/>
			<point x="494.082" y="490" type="line" smooth="yes"/>
			<point x="490.082" y="490"/>
			<point x="487.714" y="487"/>
			<point x="484.223" y="483" type="curve" smooth="yes"/>
			<point x="297.21" y="263" type="line" smooth="yes"/>
			<point x="296.087" y="262"/>
			<point x="291.105" y="254"/>
			<point x="292.351" y="256" type="curve"/>
			<point x="155.223" y="483" type="line" smooth="yes"/>
			<point x="153.468" y="485"/>
			<point x="152.082" y="490"/>
			<point x="147.082" y="490" type="curve" smooth="yes"/>
			<point x="136.082" y="490" type="line"/>
			<point x="282.491" y="249" type="line"/>
		</contour>
		<contour>
			<point x="147.1" y="482" type="line"/>
			<point x="163.1" y="482" type="line"/>
			<point x="164.082" y="490" type="line"/>
			<point x="148.082" y="490" type="line"/>
		</contour>
		<contour>
			<point x="478.1" y="482" type="line"/>
			<point x="494.1" y="482" type="line"/>
			<point x="495.082" y="490" type="line"/>
			<point x="479.082" y="490" type="line"/>
		</contour>
		<contour>
			<point x="440.9" y="8" type="line"/>
			<point x="424.9" y="8" type="line"/>
			<point x="423.918" y="0" type="line"/>
			<point x="439.918" y="0" type="line"/>
		</contour>
		<contour>
			<point x="95.9" y="8" type="line"/>
			<point x="79.9" y="8" type="line"/>
			<point x="78.918" y="0" type="line"/>
			<point x="94.918" y="0" type="line"/>
		</contour>
		<contour>
			<point x="160.082" y="490" type="line"/>
			<point x="75.082" y="490" type="line"/>
			<point x="74.468" y="485" type="line" smooth="yes"/>
			<point x="74.1" y="482"/>
			<point x="77.854" y="480"/>
			<point x="80.854" y="480" type="curve" smooth="yes"/>
			<point x="157.609" y="478" type="line"/>
		</contour>
		<contour>
			<point x="235.082" y="490" type="line"/>
			<point x="150.082" y="490" type="line"/>
			<point x="149.609" y="478" type="line"/>
			<point x="226.854" y="480" type="line" smooth="yes"/>
			<point x="229.854" y="480"/>
			<point x="234.1" y="482"/>
			<point x="234.468" y="485" type="curve" smooth="yes"/>
		</contour>
		<contour>
			<point x="491.082" y="490" type="line"/>
			<point x="406.082" y="490" type="line"/>
			<point x="405.468" y="485" type="line" smooth="yes"/>
			<point x="405.1" y="482"/>
			<point x="408.854" y="480"/>
			<point x="411.854" y="480" type="curve" smooth="yes"/>
			<point x="488.609" y="478" type="line"/>
		</contour>
		<contour>
			<point x="566.082" y="490" type="line"/>
			<point x="481.082" y="490" type="line"/>
			<point x="480.609" y="478" type="line"/>
			<point x="557.854" y="480" type="line" smooth="yes"/>
			<point x="560.854" y="480"/>
			<point x="565.1" y="482"/>
			<point x="565.468" y="485" type="curve" smooth="yes"/>
		</contour>
		<contour>
			<point x="427.918" y="0" type="line"/>
			<point x="512.918" y="0" type="line"/>
			<point x="513.532" y="5" type="line" smooth="yes"/>
			<point x="513.9" y="8"/>
			<point x="510.146" y="10"/>
			<point x="507.146" y="10" type="curve" smooth="yes"/>
			<point x="430.391" y="12" type="line"/>
		</contour>
		<contour>
			<point x="82.918" y="0" type="line"/>
			<point x="167.918" y="0" type="line"/>
			<point x="168.532" y="5" type="line" smooth="yes"/>
			<point x="168.9" y="8"/>
			<point x="165.146" y="10"/>
			<point x="162.146" y="10" type="curve" smooth="yes"/>
			<point x="85.391" y="12" type="line"/>
		</contour>
		<contour>
			<point x="7.918" y="0" type="line"/>
			<point x="92.918" y="0" type="line"/>
			<point x="93.391" y="12" type="line"/>
			<point x="16.146" y="10" type="line" smooth="yes"/>
			<point x="13.146" y="10"/>
			<point x="8.9" y="8"/>
			<point x="8.532" y="5" type="curve" smooth="yes"/>
		</contour>
		<contour>
			<point x="352.918" y="0" type="line"/>
			<point x="437.918" y="0" type="line"/>
			<point x="438.391" y="12" type="line"/>
			<point x="361.146" y="10" type="line" smooth="yes"/>
			<point x="358.146" y="10"/>
			<point x="353.9" y="8"/>
			<point x="353.532" y="5" type="curve" smooth="yes"/>
		</contour>
	</outline>
</glyph>
<glyph name="z" format="2">
	<advance width="459"/>
	<unicode hex="007A"/>
	<anchor x="261.082" y="490" name="top"/>
	<anchor x="200.918" y="0" name="bottom"/>
	<note>
		z
	</note>
	<outline>
		<contour>
			<point x="17.918" y="0" type="line"/>
			<point x="375.918" y="0" type="line"/>
			<point x="377.146" y="10" type="line"/>
			<point x="36.146" y="10" type="line"/>
			<point x="436.732" y="479" type="line" smooth="yes"/>
			<point x="439.1" y="482"/>
			<point x="440.223" y="483"/>
			<point x="440.468" y="485" type="curve" smooth="yes"/>
			<point x="441.082" y="490" type="line"/>
			<point x="95.082" y="490" type="line"/>
			<point x="93.854" y="480" type="line"/>
			<point x="423.854" y="480" type="line"/>
			<point x="22.146" y="10" type="line" smooth="yes"/>
			<point x="19.777" y="7"/>
			<point x="18.654" y="6"/>
			<point x="18.286" y="3" type="curve" smooth="yes"/>
		</contour>
		<contour>
			<point x="108.591" y="486" type="line"/>
			<point x="93.854" y="480" type="line"/>
			<point x="82.313" y="386" type="line"/>
			<point x="88.313" y="386" type="line" smooth="yes"/>
			<point x="91.313" y="386"/>
			<point x="93.804" y="390"/>
			<point x="94.172" y="393" type="curve" smooth="yes"/>
			<point x="108.591" y="486" type="line"/>
		</contour>
		<contour>
			<point x="362.409" y="4" type="line"/>
			<point x="377.146" y="10" type="line"/>
			<point x="388.687" y="104" type="line"/>
			<point x="382.687" y="104" type="line" smooth="yes"/>
			<point x="379.687" y="104"/>
			<point x="377.196" y="100"/>
			<point x="376.828" y="97" type="curve" smooth="yes"/>
			<point x="362.409" y="4" type="line"/>
		</contour>
	</outline>
</glyph>
<glyph name="braceleft" format="2">
	<advance width="324"/>
	<unicode hex="007B"/>
	<note>
		braceleft
	</note>
	<outline>
		<contour>
			<point x="195.061" y="-121" type="curve" smooth="yes"/>
			<point x="223.061" y="-121" type="line"/>
			<point x="223.552" y="-117" type="line" smooth="yes"/>
			<point x="223.92" y="-114"/>
			<point x="222.166" y="-112"/>
			<point x="218.166" y="-112" type="curve" smooth="yes"/>
			<point x="196.166" y="-112" type="line" smooth="yes"/>
			<point x="133.166" y="-112"/>
			<point x="93.182" y="-63"/>
			<point x="101.9" y="8" type="curve" smooth="yes"/>
			<point x="110.372" y="77"/>
			<point x="154.686" y="161"/>
			<point x="163.281" y="231" type="curve" smooth="yes"/>
			<point x="169.052" y="278"/>
			<point x="137.858" y="309"/>
			<point x="100.595" y="315" type="curve"/>
			<point x="139.332" y="321"/>
			<point x="178.138" y="352"/>
			<point x="183.909" y="399" type="curve" smooth="yes"/>
			<point x="192.749" y="471"/>
			<point x="168.572" y="551"/>
			<point x="177.29" y="622" type="curve" smooth="yes"/>
			<point x="186.007" y="693"/>
			<point x="238.024" y="742"/>
			<point x="301.024" y="742" type="curve" smooth="yes"/>
			<point x="323.024" y="742" type="line" smooth="yes"/>
			<point x="327.024" y="742"/>
			<point x="329.269" y="744"/>
			<point x="329.638" y="747" type="curve" smooth="yes"/>
			<point x="330.129" y="751" type="line"/>
			<point x="302.129" y="751" type="line" smooth="yes"/>
			<point x="232.129" y="751"/>
			<point x="175.253" y="695"/>
			<point x="166.29" y="622" type="curve" smooth="yes"/>
			<point x="157.081" y="547"/>
			<point x="182.118" y="474"/>
			<point x="172.909" y="399" type="curve" smooth="yes"/>
			<point x="167.384" y="354"/>
			<point x="126.209" y="320"/>
			<point x="77.209" y="320" type="curve"/>
			<point x="75.981" y="310" type="line"/>
			<point x="124.981" y="310"/>
			<point x="157.806" y="276"/>
			<point x="152.281" y="231" type="curve" smooth="yes"/>
			<point x="143.195" y="157"/>
			<point x="99.863" y="81"/>
			<point x="90.9" y="8" type="curve" smooth="yes"/>
			<point x="81.937" y="-65"/>
			<point x="125.061" y="-121"/>
		</contour>
	</outline>
</glyph>
<glyph name="braceright" format="2">
	<advance width="324"/>
	<unicode hex="007D"/>
	<note>
		braceright
	</note>
	<outline>
		<contour>
			<point x="146.129" y="751" type="curve" smooth="yes"/>
			<point x="118.129" y="751" type="line"/>
			<point x="117.638" y="747" type="line" smooth="yes"/>
			<point x="117.269" y="744"/>
			<point x="119.024" y="742"/>
			<point x="123.024" y="742" type="curve" smooth="yes"/>
			<point x="145.024" y="742" type="line" smooth="yes"/>
			<point x="208.024" y="742"/>
			<point x="248.007" y="693"/>
			<point x="239.29" y="622" type="curve" smooth="yes"/>
			<point x="230.818" y="553"/>
			<point x="186.504" y="469"/>
			<point x="177.909" y="399" type="curve" smooth="yes"/>
			<point x="172.138" y="352"/>
			<point x="203.332" y="321"/>
			<point x="240.595" y="315" type="curve"/>
			<point x="201.858" y="309"/>
			<point x="163.052" y="278"/>
			<point x="157.281" y="231" type="curve" smooth="yes"/>
			<point x="148.441" y="159"/>
			<point x="172.618" y="79"/>
			<point x="163.9" y="8" type="curve" smooth="yes"/>
			<point x="155.182" y="-63"/>
			<point x="103.166" y="-112"/>
			<point x="40.166" y="-112" type="curve" smooth="yes"/>
			<point x="18.166" y="-112" type="line" smooth="yes"/>
			<point x="14.166" y="-112"/>
			<point x="11.92" y="-114"/>
			<point x="11.552" y="-117" type="curve" smooth="yes"/>
			<point x="11.061" y="-121" type="line"/>
			<point x="39.061" y="-121" type="line" smooth="yes"/>
			<point x="109.061" y="-121"/>
			<point x="165.937" y="-65"/>
			<point x="174.9" y="8" type="curve" smooth="yes"/>
			<point x="184.109" y="83"/>
			<point x="159.072" y="156"/>
			<point x="168.281" y="231" type="curve" smooth="yes"/>
			<point x="173.806" y="276"/>
			<point x="214.981" y="310"/>
			<point x="263.981" y="310" type="curve"/>
			<point x="265.209" y="320" type="line"/>
			<point x="216.209" y="320"/>
			<point x="183.384" y="354"/>
			<point x="188.909" y="399" type="curve" smooth="yes"/>
			<point x="197.995" y="473"/>
			<point x="241.327" y="549"/>
			<point x="250.29" y="622" type="curve" smooth="yes"/>
			<point x="259.253" y="695"/>
			<point x="216.129" y="751"/>
		</contour>
	</outline>
</glyph>
<glyph name="asciitilde" format="2">
	<advance width="560"/>
	<unicode hex="007E"/>
	<note>
		asciitilde
	</note>
	<outline>
		<contour>
			<point x="390.333" y="264" type="curve"/>
			<point x="390.333" y="264" type="line"/>
			<point x="326.333" y="264"/>
			<point x="251.173" y="336"/>
			<point x="183.173" y="336" type="curve" smooth="yes"/>
			<point x="121.173" y="336"/>
			<point x="75.034" y="286"/>
			<point x="67.667" y="226" type="curve"/>
			<point x="77.667" y="226" type="line"/>
			<point x="87.666" y="283"/>
			<point x="125.946" y="326"/>
			<point x="181.946" y="326" type="curve" smooth="yes"/>
			<point x="243.946" y="326"/>
			<point x="327.105" y="254"/>
			<point x="389.105" y="254" type="curve" smooth="yes"/>
			<point x="453.105" y="254"/>
			<point x="497.244" y="304"/>
			<point x="504.611" y="364" type="curve"/>
			<point x="494.611" y="364" type="line"/>
			<point x="487.858" y="309"/>
			<point x="445.333" y="264"/>
		</contour>
	</outline>
</glyph>
<glyph name="exclamdown" format="2">
	<advance width="241"/>
	<unicode hex="00A1"/>
	<note>
		exclamdown
	</note>
	<outline>
		<contour>
			<point x="77.817" y="-180" type="line"/>
			<point x="112.073" y="99" type="line" smooth="yes"/>
			<point x="115.511" y="127"/>
			<point x="127.754" y="243"/>
			<point x="130.684" y="275" type="curve"/>
			<point x="122.684" y="275" type="line"/>
			<point x="117.018" y="237"/>
			<point x="102.248" y="133"/>
			<point x="98.073" y="99" type="curve" smooth="yes"/>
			<point x="63.817" y="-180" type="line"/>
			<point x="77.817" y="-180" type="line"/>
		</contour>
		<contour>
			<point x="116.135" y="466" type="curve"/>
			<point x="116.135" y="466" type="line"/>
			<point x="114.048" y="449"/>
			<point x="127.083" y="433"/>
			<point x="144.083" y="433" type="curve" smooth="yes"/>
			<point x="163.083" y="433"/>
			<point x="179.048" y="449"/>
			<point x="181.135" y="466" type="curve" smooth="yes"/>
			<point x="183.468" y="485"/>
			<point x="171.064" y="498"/>
			<point x="152.064" y="498" type="curve" smooth="yes"/>
			<point x="135.064" y="498"/>
			<point x="118.468" y="485"/>
		</contour>
	</outline>
</glyph>
<glyph name="cent" format="2">
	<advance width="435"/>
	<unicode hex="00A2"/>
	<anchor x="280.082" y="490" name="top"/>
	<anchor x="218.918" y="0" name="bottom"/>
	<note>
		cent
	</note>
	<outline>
		<contour>
			<point x="190.465" y="-134" type="line"/>
			<point x="195.465" y="-134" type="line" smooth="yes"/>
			<point x="199.465" y="-134"/>
			<point x="201.833" y="-131"/>
			<point x="202.447" y="-126" type="curve" smooth="yes"/>
			<point x="319.167" y="621" type="line"/>
			<point x="314.167" y="621" type="line" smooth="yes"/>
			<point x="310.167" y="621"/>
			<point x="307.799" y="618"/>
			<point x="307.185" y="613" type="curve" smooth="yes"/>
		</contour>
		<contour>
			<point x="216.181" y="-6" type="curve" smooth="yes"/>
			<point x="288.181" y="-6"/>
			<point x="350.742" y="23"/>
			<point x="379.039" y="58" type="curve"/>
			<point x="377.285" y="60" type="line" smooth="yes"/>
			<point x="375.53" y="62"/>
			<point x="371.53" y="62"/>
			<point x="369.285" y="60" type="curve" smooth="yes"/>
			<point x="331.742" y="23"/>
			<point x="276.409" y="4"/>
			<point x="217.409" y="4" type="curve" smooth="yes"/>
			<point x="96.409" y="4"/>
			<point x="35.073" y="99"/>
			<point x="53" y="245" type="curve" smooth="yes"/>
			<point x="70.804" y="390"/>
			<point x="156.837" y="488"/>
			<point x="284.837" y="488" type="curve" smooth="yes"/>
			<point x="328.837" y="488"/>
			<point x="366.609" y="478"/>
			<point x="401.153" y="458" type="curve"/>
			<point x="410.153" y="458" type="line"/>
			<point x="411.013" y="465" type="line"/>
			<point x="371.837" y="488"/>
			<point x="330.064" y="498"/>
			<point x="286.064" y="498" type="curve" smooth="yes"/>
			<point x="150.064" y="498"/>
			<point x="59.418" y="395"/>
			<point x="41" y="245" type="curve" smooth="yes"/>
			<point x="22.46" y="94"/>
			<point x="86.181" y="-6"/>
		</contour>
		<contour>
			<point x="397.013" y="465" type="line"/>
			<point x="388.594" y="372" type="line" smooth="yes"/>
			<point x="388.225" y="369"/>
			<point x="389.734" y="365"/>
			<point x="392.734" y="365" type="curve" smooth="yes"/>
			<point x="398.734" y="365" type="line"/>
			<point x="410.276" y="459" type="line"/>
			<point x="397.013" y="465" type="line"/>
		</contour>
	</outline>
</glyph>
<glyph name="sterling" format="2">
	<advance width="604"/>
	<unicode hex="00A3"/>
	<note>
		sterling
	</note>
	<outline>
		<contour>
			<point x="30.918" y="0" type="line"/>
			<point x="525.918" y="0" type="line"/>
			<point x="527.268" y="11" type="line"/>
			<point x="68.268" y="11" type="line" smooth="yes"/>
			<point x="63.268" y="11"/>
			<point x="57.268" y="11"/>
			<point x="50.146" y="10" type="curve"/>
			<point x="105.215" y="35"/>
			<point x="142.863" y="81"/>
			<point x="150.722" y="145" type="curve" smooth="yes"/>
			<point x="172.7" y="324" type="line"/>
			<point x="422.7" y="324" type="line" smooth="yes"/>
			<point x="426.7" y="324"/>
			<point x="428.946" y="326"/>
			<point x="429.314" y="329" type="curve" smooth="yes"/>
			<point x="429.928" y="334" type="line"/>
			<point x="173.928" y="334" type="line"/>
			<point x="193.696" y="495" type="line" smooth="yes"/>
			<point x="208.308" y="614"/>
			<point x="283.499" y="697"/>
			<point x="401.499" y="697" type="curve" smooth="yes"/>
			<point x="492.499" y="697"/>
			<point x="523.464" y="656"/>
			<point x="547.589" y="600" type="curve" smooth="yes"/>
			<point x="549.22" y="597"/>
			<point x="550.975" y="595"/>
			<point x="552.975" y="595" type="curve" smooth="yes"/>
			<point x="553.975" y="595"/>
			<point x="553.975" y="595"/>
			<point x="554.975" y="595" type="curve" smooth="yes"/>
			<point x="556.975" y="595"/>
			<point x="558.975" y="595"/>
			<point x="561.097" y="596" type="curve"/>
			<point x="540.201" y="662"/>
			<point x="495.726" y="707"/>
			<point x="402.726" y="707" type="curve" smooth="yes"/>
			<point x="276.726" y="707"/>
			<point x="197.167" y="621"/>
			<point x="181.696" y="495" type="curve" smooth="yes"/>
			<point x="161.928" y="334" type="line"/>
			<point x="65.928" y="334" type="line" smooth="yes"/>
			<point x="62.928" y="334"/>
			<point x="58.682" y="332"/>
			<point x="58.191" y="328" type="curve" smooth="yes"/>
			<point x="57.7" y="324" type="line"/>
			<point x="160.7" y="324" type="line"/>
			<point x="138.722" y="145" type="line" smooth="yes"/>
			<point x="129.881" y="73"/>
			<point x="86.092" y="34"/>
			<point x="32.268" y="11" type="curve"/>
		</contour>
		<contour>
			<point x="512.532" y="5" type="line"/>
			<point x="527.268" y="11" type="line"/>
			<point x="538.81" y="105" type="line"/>
			<point x="532.81" y="105" type="line" smooth="yes"/>
			<point x="529.81" y="105"/>
			<point x="527.319" y="101"/>
			<point x="526.951" y="98" type="curve" smooth="yes"/>
		</contour>
	</outline>
</glyph>
<glyph name="currency" format="2">
	<advance width="523"/>
	<unicode hex="00A4"/>
	<note>
		currency
	</note>
	<outline>
		<contour>
			<point x="109.051" y="335" type="curve"/>
			<point x="109.051" y="335" type="line"/>
			<point x="103.648" y="291"/>
			<point x="115.982" y="253"/>
			<point x="140.176" y="222" type="curve"/>
			<point x="51.476" y="143" type="line"/>
			<point x="57.616" y="136" type="line"/>
			<point x="146.316" y="215" type="line"/>
			<point x="173.878" y="187"/>
			<point x="209.791" y="170"/>
			<point x="253.791" y="170" type="curve" smooth="yes"/>
			<point x="297.791" y="170"/>
			<point x="338.878" y="187"/>
			<point x="373.316" y="215" type="curve"/>
			<point x="441.616" y="136" type="line"/>
			<point x="449.476" y="143" type="line"/>
			<point x="381.176" y="222" type="line"/>
			<point x="412.737" y="251"/>
			<point x="434.648" y="291"/>
			<point x="440.051" y="335" type="curve" smooth="yes"/>
			<point x="445.453" y="379"/>
			<point x="433.487" y="420"/>
			<point x="409.048" y="449" type="curve"/>
			<point x="496.625" y="527" type="line"/>
			<point x="490.485" y="534" type="line"/>
			<point x="402.908" y="456" type="line"/>
			<point x="377.346" y="484"/>
			<point x="338.433" y="501"/>
			<point x="294.433" y="501" type="curve" smooth="yes"/>
			<point x="250.433" y="501"/>
			<point x="208.346" y="484"/>
			<point x="175.908" y="456" type="curve"/>
			<point x="106.485" y="534" type="line"/>
			<point x="98.625" y="527" type="line"/>
			<point x="168.048" y="449" type="line"/>
			<point x="136.242" y="418"/>
			<point x="114.453" y="379"/>
		</contour>
		<contour>
			<point x="119.051" y="335" type="curve"/>
			<point x="119.051" y="335" type="line"/>
			<point x="129.61" y="421"/>
			<point x="209.205" y="491"/>
			<point x="293.205" y="491" type="curve" smooth="yes"/>
			<point x="379.205" y="491"/>
			<point x="440.61" y="421"/>
			<point x="430.051" y="335" type="curve" smooth="yes"/>
			<point x="419.737" y="251"/>
			<point x="341.019" y="180"/>
			<point x="255.019" y="180" type="curve" smooth="yes"/>
			<point x="171.019" y="180"/>
			<point x="108.737" y="251"/>
		</contour>
	</outline>
</glyph>
<glyph name="yen" format="2">
	<advance width="486"/>
	<unicode hex="00A5"/>
	<note>
		yen
	</note>
	<outline>
		<contour>
			<point x="49.016" y="294" type="line"/>
			<point x="243.016" y="294" type="line"/>
			<point x="235.158" y="230" type="line"/>
			<point x="41.158" y="230" type="line"/>
			<point x="39.93" y="220" type="line"/>
			<point x="233.93" y="220" type="line"/>
			<point x="206.918" y="0" type="line"/>
			<point x="218.918" y="0" type="line"/>
			<point x="245.93" y="220" type="line"/>
			<point x="439.93" y="220" type="line"/>
			<point x="441.158" y="230" type="line"/>
			<point x="247.158" y="230" type="line"/>
			<point x="255.016" y="294" type="line"/>
			<point x="449.016" y="294" type="line"/>
			<point x="450.244" y="304" type="line"/>
			<point x="260.244" y="304" type="line"/>
			<point x="525.867" y="700" type="line"/>
			<point x="515.867" y="700" type="line" smooth="yes"/>
			<point x="512.867" y="700"/>
			<point x="510.744" y="699"/>
			<point x="508.376" y="696" type="curve"/>
			<point x="259.332" y="321" type="line" smooth="yes"/>
			<point x="255.718" y="316"/>
			<point x="254.227" y="312"/>
			<point x="250.613" y="307" type="curve"/>
			<point x="250.227" y="312"/>
			<point x="248.718" y="316"/>
			<point x="245.332" y="321" type="curve"/>
			<point x="88.376" y="696" type="line" smooth="yes"/>
			<point x="87.744" y="699"/>
			<point x="84.867" y="700"/>
			<point x="81.867" y="700" type="curve" smooth="yes"/>
			<point x="71.867" y="700" type="line"/>
			<point x="241.244" y="304" type="line"/>
			<point x="50.244" y="304" type="line"/>
			<point x="49.016" y="294" type="line"/>
		</contour>
	</outline>
</glyph>
<glyph name="brokenbar" format="2">
	<advance width="204"/>
	<unicode hex="00A6"/>
	<note>
		brokenbar
	</note>
	<outline>
		<contour>
			<point x="112.348" y="370" type="line"/>
			<point x="122.348" y="370" type="line"/>
			<point x="169.129" y="751" type="line"/>
			<point x="159.129" y="751" type="line"/>
			<point x="112.348" y="370" type="line"/>
		</contour>
		<contour>
			<point x="44.817" y="-180" type="line"/>
			<point x="54.817" y="-180" type="line"/>
			<point x="101.597" y="201" type="line"/>
			<point x="91.597" y="201" type="line"/>
			<point x="44.817" y="-180" type="line"/>
		</contour>
	</outline>
</glyph>
<glyph name="section" format="2">
	<advance width="436"/>
	<unicode hex="00A7"/>
	<note>
		section
	</note>
	<outline>
		<contour>
			<point x="175.568" y="-68" type="curve" smooth="yes"/>
			<point x="280.568" y="-68"/>
			<point x="345.181" y="-6"/>
			<point x="354.881" y="73" type="curve" smooth="yes"/>
			<point x="361.266" y="125"/>
			<point x="339.581" y="152"/>
			<point x="306.773" y="178" type="curve"/>
			<point x="358.72" y="202"/>
			<point x="395.509" y="241"/>
			<point x="402.508" y="298" type="curve" smooth="yes"/>
			<point x="412.821" y="382"/>
			<point x="346.119" y="417"/>
			<point x="272.416" y="452" type="curve" smooth="yes"/>
			<point x="209.1" y="482"/>
			<point x="131.783" y="512"/>
			<point x="140.624" y="584" type="curve" smooth="yes"/>
			<point x="148.359" y="647"/>
			<point x="215.621" y="698"/>
			<point x="298.621" y="698" type="curve" smooth="yes"/>
			<point x="362.621" y="698"/>
			<point x="401.815" y="667"/>
			<point x="416.219" y="654" type="curve"/>
			<point x="418.096" y="653"/>
			<point x="420.342" y="655"/>
			<point x="421.587" y="657" type="curve" smooth="yes"/>
			<point x="422.833" y="659" type="line"/>
			<point x="390.253" y="695"/>
			<point x="343.849" y="708"/>
			<point x="299.849" y="708" type="curve" smooth="yes"/>
			<point x="210.849" y="708"/>
			<point x="138.219" y="654"/>
			<point x="129.624" y="584" type="curve" smooth="yes"/>
			<point x="124.099" y="539"/>
			<point x="147.17" y="507"/>
			<point x="183.346" y="484" type="curve"/>
			<point x="111.153" y="458"/>
			<point x="72.242" y="418"/>
			<point x="65.734" y="365" type="curve" smooth="yes"/>
			<point x="56.157" y="287"/>
			<point x="127.105" y="254"/>
			<point x="206.685" y="218" type="curve" smooth="yes"/>
			<point x="286.265" y="182"/>
			<point x="353.581" y="152"/>
			<point x="343.635" y="71" type="curve" smooth="yes"/>
			<point x="334.795" y="-1"/>
			<point x="271.796" y="-58"/>
			<point x="177.796" y="-58" type="curve" smooth="yes"/>
			<point x="124.796" y="-58"/>
			<point x="83.006" y="-40"/>
			<point x="47.181" y="-6" type="curve" smooth="yes"/>
			<point x="44.549" y="-3"/>
			<point x="41.427" y="-4"/>
			<point x="39.181" y="-6" type="curve" smooth="yes"/>
			<point x="35.813" y="-9" type="line"/>
			<point x="68.515" y="-44"/>
			<point x="109.568" y="-68"/>
		</contour>
		<contour>
			<point x="297.51" y="184" type="curve"/>
			<point x="267.211" y="206"/>
			<point x="182.754" y="243"/>
			<point x="149.842" y="260" type="curve" smooth="yes"/>
			<point x="104.789" y="284"/>
			<point x="70.718" y="316"/>
			<point x="76.98" y="367" type="curve" smooth="yes"/>
			<point x="82.505" y="412"/>
			<point x="117.171" y="450"/>
			<point x="191.609" y="478" type="curve"/>
			<point x="221.399" y="460"/>
			<point x="302.978" y="424"/>
			<point x="328.259" y="410" type="curve" smooth="yes"/>
			<point x="364.804" y="390"/>
			<point x="398.015" y="351"/>
			<point x="391.139" y="295" type="curve" smooth="yes"/>
			<point x="385.246" y="247"/>
			<point x="353.457" y="208"/>
		</contour>
	</outline>
</glyph>
<glyph name="dieresis" format="2">
	<advance width="294"/>
	<unicode hex="00A8"/>
	<note>
		dieresis
	</note>
	<outline>
		<contour>
			<point x="141.5" y="640" type="curve"/>
			<point x="141.5" y="640" type="line"/>
			<point x="143.464" y="656"/>
			<point x="131.938" y="668"/>
			<point x="116.938" y="668" type="curve" smooth="yes"/>
			<point x="101.938" y="668"/>
			<point x="87.464" y="656"/>
			<point x="85.5" y="640" type="curve" smooth="yes"/>
			<point x="83.904" y="627"/>
			<point x="95.185" y="613"/>
			<point x="110.185" y="613" type="curve" smooth="yes"/>
			<point x="125.185" y="613"/>
			<point x="139.904" y="627"/>
		</contour>
		<contour>
			<point x="305.5" y="640" type="curve"/>
			<point x="305.5" y="640" type="line"/>
			<point x="307.464" y="656"/>
			<point x="295.938" y="668"/>
			<point x="280.938" y="668" type="curve" smooth="yes"/>
			<point x="265.938" y="668"/>
			<point x="251.464" y="656"/>
			<point x="249.5" y="640" type="curve" smooth="yes"/>
			<point x="247.904" y="627"/>
			<point x="259.185" y="613"/>
			<point x="274.185" y="613" type="curve" smooth="yes"/>
			<point x="289.185" y="613"/>
			<point x="303.904" y="627"/>
		</contour>
	</outline>
</glyph>
<glyph name="copyright" format="2">
	<advance width="800"/>
	<unicode hex="00A9"/>
	<note>
		copyright
	</note>
	<outline>
		<contour>
			<point x="211.892" y="350" type="curve" smooth="yes"/>
			<point x="203.911" y="285"/>
			<point x="217.035" y="229"/>
			<point x="249.124" y="189" type="curve" smooth="yes"/>
			<point x="281.213" y="149"/>
			<point x="329.634" y="128"/>
			<point x="389.634" y="128" type="curve" smooth="yes"/>
			<point x="453.634" y="128"/>
			<point x="505.458" y="151"/>
			<point x="549.124" y="189" type="curve"/>
			<point x="544.615" y="193" type="line" smooth="yes"/>
			<point x="543.738" y="194"/>
			<point x="543.861" y="195"/>
			<point x="542.861" y="195" type="curve" smooth="yes"/>
			<point x="540.861" y="195"/>
			<point x="539.738" y="194"/>
			<point x="538.615" y="193" type="curve" smooth="yes"/>
			<point x="503.809" y="162"/>
			<point x="457.862" y="138"/>
			<point x="391.862" y="138" type="curve" smooth="yes"/>
			<point x="270.862" y="138"/>
			<point x="208.913" y="228"/>
			<point x="223.892" y="350" type="curve" smooth="yes"/>
			<point x="239.24" y="475"/>
			<point x="324.045" y="563"/>
			<point x="453.045" y="563" type="curve" smooth="yes"/>
			<point x="507.045" y="563"/>
			<point x="553.081" y="547"/>
			<point x="575.994" y="530" type="curve"/>
			<point x="571.118" y="474" type="line" smooth="yes"/>
			<point x="570.872" y="472"/>
			<point x="572.504" y="469"/>
			<point x="574.504" y="469" type="curve" smooth="yes"/>
			<point x="580.504" y="469" type="line"/>
			<point x="588.485" y="534" type="line"/>
			<point x="565.186" y="556"/>
			<point x="510.273" y="573"/>
			<point x="451.273" y="573" type="curve" smooth="yes"/>
			<point x="385.273" y="573"/>
			<point x="331.572" y="551"/>
			<point x="289.783" y="512" type="curve" smooth="yes"/>
			<point x="247.872" y="472"/>
			<point x="219.996" y="416"/>
		</contour>
		<contour>
			<point x="369.058" y="-7" type="curve" smooth="yes"/>
			<point x="566.058" y="-7"/>
			<point x="745.704" y="153"/>
			<point x="769.892" y="350" type="curve" smooth="yes"/>
			<point x="794.081" y="547"/>
			<point x="653.726" y="707"/>
			<point x="456.726" y="707" type="curve" smooth="yes"/>
			<point x="259.726" y="707"/>
			<point x="80.081" y="547"/>
			<point x="55.892" y="350" type="curve" smooth="yes"/>
			<point x="31.704" y="153"/>
			<point x="172.058" y="-7"/>
		</contour>
		<contour>
			<point x="370.532" y="5" type="curve" smooth="yes"/>
			<point x="179.532" y="5"/>
			<point x="43.563" y="160"/>
			<point x="67.015" y="351" type="curve" smooth="yes"/>
			<point x="90.344" y="541"/>
			<point x="264.376" y="696"/>
			<point x="455.376" y="696" type="curve" smooth="yes"/>
			<point x="645.376" y="696"/>
			<point x="781.344" y="541"/>
			<point x="758.015" y="351" type="curve" smooth="yes"/>
			<point x="734.563" y="160"/>
			<point x="560.532" y="5"/>
		</contour>
	</outline>
</glyph>
<glyph name="ordfeminine" format="2">
	<advance width="289.5"/>
	<unicode hex="00AA"/>
	<anchor x="215.141" y="1" name="ogonek"/>
	<anchor x="103.018" y="0" name="bottom"/>
	<anchor x="144.011" y="285" name="top"/>
	<note>
		ordfeminine
	</note>
	<outline>
		<contour>
			<point x="123.482" y="411" type="curve" smooth="yes"/>
			<point x="169.482" y="411"/>
			<point x="203.692" y="429"/>
			<point x="244.235" y="466" type="curve"/>
			<point x="240.71" y="421" type="line" smooth="yes"/>
			<point x="240.465" y="419"/>
			<point x="241.096" y="416"/>
			<point x="245.096" y="416" type="curve" smooth="yes"/>
			<point x="248.096" y="416" type="line"/>
			<point x="271.18" y="604" type="line" smooth="yes"/>
			<point x="278.792" y="666"/>
			<point x="256.704" y="706"/>
			<point x="197.704" y="706" type="curve" smooth="yes"/>
			<point x="157.704" y="706"/>
			<point x="127.739" y="690"/>
			<point x="96.056" y="660" type="curve"/>
			<point x="97.687" y="657" type="line" smooth="yes"/>
			<point x="98.442" y="655"/>
			<point x="101.564" y="656"/>
			<point x="103.81" y="658" type="curve" smooth="yes"/>
			<point x="131.511" y="680"/>
			<point x="160.599" y="697"/>
			<point x="196.599" y="697" type="curve" smooth="yes"/>
			<point x="247.599" y="697"/>
			<point x="267.178" y="661"/>
			<point x="260.18" y="604" type="curve" smooth="yes"/>
			<point x="255.882" y="569" type="line"/>
			<point x="191.637" y="567"/>
			<point x="142.532" y="558"/>
			<point x="111.813" y="544" type="curve" smooth="yes"/>
			<point x="78.971" y="529"/>
			<point x="62.392" y="508"/>
			<point x="59.323" y="483" type="curve" smooth="yes"/>
			<point x="53.552" y="436"/>
			<point x="85.482" y="411"/>
		</contour>
		<contour>
			<point x="126.587" y="420" type="curve" smooth="yes"/>
			<point x="92.587" y="420"/>
			<point x="64.289" y="442"/>
			<point x="69.323" y="483" type="curve" smooth="yes"/>
			<point x="75.339" y="532"/>
			<point x="138.409" y="557"/>
			<point x="254.777" y="560" type="curve"/>
			<point x="244.34" y="475" type="line"/>
			<point x="209.534" y="444"/>
			<point x="177.587" y="420"/>
		</contour>
		<contour>
			<point x="245.096" y="416" type="line"/>
			<point x="295.096" y="416" type="line"/>
			<point x="295.71" y="421" type="line" smooth="yes"/>
			<point x="295.956" y="423"/>
			<point x="293.078" y="424"/>
			<point x="291.078" y="424" type="curve" smooth="yes"/>
			<point x="247.324" y="426" type="line"/>
		</contour>
	</outline>
</glyph>
<glyph name="guillemotleft" format="2">
	<advance width="414"/>
	<unicode hex="00AB"/>
	<note>
		guillemotleft
	</note>
	<outline>
		<contour>
			<point x="180.39" y="69" type="line"/>
			<point x="183.635" y="71" type="line" smooth="yes"/>
			<point x="185.799" y="72.333"/>
			<point x="187.045" y="74.333"/>
			<point x="187.372" y="77" type="curve" smooth="yes"/>
			<point x="187.618" y="79"/>
			<point x="186.863" y="81"/>
			<point x="186.109" y="83" type="curve" smooth="yes"/>
			<point x="103.877" y="244" type="line" smooth="yes"/>
			<point x="100.614" y="250"/>
			<point x="98.064" y="253.667"/>
			<point x="96.228" y="255" type="curve"/>
			<point x="97.643" y="255.667"/>
			<point x="101.719" y="259"/>
			<point x="106.578" y="266" type="curve" smooth="yes"/>
			<point x="228.347" y="427" type="line" smooth="yes"/>
			<point x="230.715" y="430"/>
			<point x="230.92" y="431.667"/>
			<point x="231.083" y="433" type="curve" smooth="yes"/>
			<point x="231.411" y="435.667"/>
			<point x="230.657" y="437.667"/>
			<point x="228.82" y="439" type="curve" smooth="yes"/>
			<point x="226.066" y="441" type="line"/>
			<point x="86.351" y="256" type="line"/>
			<point x="86.105" y="254" type="line"/>
			<point x="180.39" y="69" type="line"/>
		</contour>
		<contour>
			<point x="290.39" y="69" type="line"/>
			<point x="293.635" y="71" type="line" smooth="yes"/>
			<point x="295.758" y="72"/>
			<point x="297.004" y="74"/>
			<point x="297.372" y="77" type="curve" smooth="yes"/>
			<point x="297.618" y="79"/>
			<point x="296.863" y="81"/>
			<point x="296.109" y="83" type="curve" smooth="yes"/>
			<point x="213.877" y="244" type="line" smooth="yes"/>
			<point x="210.614" y="250"/>
			<point x="208.105" y="254"/>
			<point x="206.228" y="255" type="curve"/>
			<point x="207.351" y="256"/>
			<point x="211.719" y="259"/>
			<point x="216.578" y="266" type="curve" smooth="yes"/>
			<point x="338.347" y="427" type="line" smooth="yes"/>
			<point x="340.715" y="430"/>
			<point x="340.961" y="432"/>
			<point x="341.083" y="433" type="curve" smooth="yes"/>
			<point x="341.452" y="436"/>
			<point x="340.697" y="438"/>
			<point x="338.82" y="439" type="curve" smooth="yes"/>
			<point x="336.066" y="441" type="line"/>
			<point x="196.351" y="256" type="line"/>
			<point x="196.105" y="254" type="line"/>
			<point x="290.39" y="69" type="line"/>
		</contour>
	</outline>
</glyph>
<glyph name="logicalnot" format="2">
	<advance width="559"/>
	<unicode hex="00AC"/>
	<note>
		logicalnot
	</note>
	<outline>
		<contour>
			<point x="97.437" y="330" type="line"/>
			<point x="487.437" y="330" type="line"/>
			<point x="469.019" y="180" type="line"/>
			<point x="480.019" y="180" type="line"/>
			<point x="499.665" y="340" type="line"/>
			<point x="98.665" y="340" type="line"/>
			<point x="97.437" y="330" type="line"/>
		</contour>
	</outline>
</glyph>
<glyph name="registered" format="2">
	<advance width="800"/>
	<unicode hex="00AE"/>
	<anchor x="416.329" y="435" name="top"/>
	<anchor x="362.918" y="0" name="bottom"/>
	<note>
		registered
	</note>
	<outline>
		<contour>
			<point x="216.108" y="140" type="line"/>
			<point x="329.108" y="140" type="line"/>
			<point x="329.722" y="145" type="line" smooth="yes"/>
			<point x="329.967" y="147"/>
			<point x="327.213" y="149"/>
			<point x="325.213" y="149" type="curve" smooth="yes"/>
			<point x="279.458" y="151" type="line"/>
			<point x="303.524" y="347" type="line"/>
			<point x="369.524" y="347" type="line" smooth="yes"/>
			<point x="382.524" y="347"/>
			<point x="391.401" y="346"/>
			<point x="398.173" y="336" type="curve" smooth="yes"/>
			<point x="532.722" y="145" type="line" smooth="yes"/>
			<point x="535.23" y="141"/>
			<point x="538.108" y="140"/>
			<point x="542.108" y="140" type="curve" smooth="yes"/>
			<point x="595.108" y="140" type="line"/>
			<point x="595.722" y="145" type="line" smooth="yes"/>
			<point x="595.967" y="147"/>
			<point x="594.213" y="149"/>
			<point x="592.213" y="149" type="curve" smooth="yes"/>
			<point x="543.458" y="151" type="line"/>
			<point x="409.542" y="339" type="line" smooth="yes"/>
			<point x="407.033" y="343"/>
			<point x="403.401" y="346"/>
			<point x="399.647" y="348" type="curve"/>
			<point x="480.015" y="351"/>
			<point x="543.418" y="395"/>
			<point x="552.013" y="465" type="curve" smooth="yes"/>
			<point x="561.221" y="540"/>
			<point x="514.519" y="575"/>
			<point x="422.519" y="575" type="curve" smooth="yes"/>
			<point x="269.519" y="575" type="line"/>
			<point x="268.905" y="570" type="line" smooth="yes"/>
			<point x="268.659" y="568"/>
			<point x="270.414" y="566"/>
			<point x="273.414" y="566" type="curve" smooth="yes"/>
			<point x="318.168" y="564" type="line"/>
			<point x="267.458" y="151" type="line"/>
			<point x="222.213" y="149" type="line" smooth="yes"/>
			<point x="220.213" y="149"/>
			<point x="216.967" y="147"/>
			<point x="216.722" y="145" type="curve" smooth="yes"/>
		</contour>
		<contour>
			<point x="304.752" y="357" type="line"/>
			<point x="330.291" y="565" type="line"/>
			<point x="421.291" y="565" type="line" smooth="yes"/>
			<point x="506.291" y="565"/>
			<point x="548.485" y="534"/>
			<point x="540.013" y="465" type="curve" smooth="yes"/>
			<point x="531.663" y="397"/>
			<point x="472.752" y="357"/>
			<point x="390.752" y="357" type="curve" smooth="yes"/>
		</contour>
		<contour>
			<point x="369.058" y="-7" type="curve" smooth="yes"/>
			<point x="566.058" y="-7"/>
			<point x="745.704" y="153"/>
			<point x="769.892" y="350" type="curve" smooth="yes"/>
			<point x="794.081" y="547"/>
			<point x="653.726" y="707"/>
			<point x="456.726" y="707" type="curve" smooth="yes"/>
			<point x="259.726" y="707"/>
			<point x="80.081" y="547"/>
			<point x="55.892" y="350" type="curve" smooth="yes"/>
			<point x="31.704" y="153"/>
			<point x="172.058" y="-7"/>
		</contour>
		<contour>
			<point x="370.532" y="5" type="curve" smooth="yes"/>
			<point x="179.532" y="5"/>
			<point x="43.563" y="160"/>
			<point x="67.015" y="351" type="curve" smooth="yes"/>
			<point x="90.344" y="541"/>
			<point x="264.376" y="696"/>
			<point x="455.376" y="696" type="curve" smooth="yes"/>
			<point x="645.376" y="696"/>
			<point x="781.344" y="541"/>
			<point x="758.015" y="351" type="curve" smooth="yes"/>
			<point x="734.563" y="160"/>
			<point x="560.532" y="5"/>
		</contour>
	</outline>
</glyph>
<glyph name="macron" format="2">
	<advance width="360"/>
	<unicode hex="00AF"/>
	<note>
		macron
	</note>
	<outline>
		<contour>
			<point x="97.886" y="635" type="line"/>
			<point x="357.886" y="635" type="line"/>
			<point x="359.114" y="645" type="line"/>
			<point x="99.114" y="645" type="line"/>
		</contour>
	</outline>
</glyph>
<glyph name="degree" format="2">
	<advance width="338"/>
	<unicode hex="00B0"/>
	<note>
		degree
	</note>
	<outline>
		<contour>
			<point x="68.905" y="570" type="curve"/>
			<point x="68.905" y="570" type="line"/>
			<point x="59.451" y="493"/>
			<point x="114.838" y="431"/>
			<point x="191.838" y="431" type="curve" smooth="yes"/>
			<point x="268.838" y="431"/>
			<point x="339.451" y="493"/>
			<point x="348.905" y="570" type="curve" smooth="yes"/>
			<point x="358.482" y="648"/>
			<point x="302.849" y="708"/>
			<point x="225.849" y="708" type="curve" smooth="yes"/>
			<point x="148.849" y="708"/>
			<point x="78.482" y="648"/>
		</contour>
		<contour>
			<point x="80.905" y="570" type="curve"/>
			<point x="80.905" y="570" type="line"/>
			<point x="89.623" y="641"/>
			<point x="153.621" y="698"/>
			<point x="224.621" y="698" type="curve" smooth="yes"/>
			<point x="296.621" y="698"/>
			<point x="345.745" y="642"/>
			<point x="336.905" y="570" type="curve" smooth="yes"/>
			<point x="328.187" y="499"/>
			<point x="264.189" y="442"/>
			<point x="193.189" y="442" type="curve" smooth="yes"/>
			<point x="123.189" y="442"/>
			<point x="72.31" y="500"/>
		</contour>
	</outline>
</glyph>
<glyph name="twosuperior" format="2">
	<advance width="326.8"/>
	<unicode hex="00B2"/>
	<note>
		twosuperior
	</note>
	<outline>
		<contour>
			<point x="74.171" y="450" type="line"/>
			<point x="300.171" y="450" type="line"/>
			<point x="301.399" y="460" type="line"/>
			<point x="119.399" y="460" type="line" smooth="yes"/>
			<point x="108.399" y="460"/>
			<point x="97.276" y="459"/>
			<point x="89.153" y="458" type="curve"/>
			<point x="227.501" y="583" type="line" smooth="yes"/>
			<point x="274.781" y="626"/>
			<point x="316.201" y="662"/>
			<point x="323.077" y="718" type="curve" smooth="yes"/>
			<point x="330.69" y="780"/>
			<point x="289.619" y="812"/>
			<point x="235.619" y="812" type="curve" smooth="yes"/>
			<point x="177.619" y="812"/>
			<point x="133.321" y="777"/>
			<point x="117.077" y="718" type="curve"/>
			<point x="120.077" y="718"/>
			<point x="122.077" y="718"/>
			<point x="122.077" y="718" type="curve" smooth="yes"/>
			<point x="126.077" y="718"/>
			<point x="127.2" y="719"/>
			<point x="128.691" y="723" type="curve" smooth="yes"/>
			<point x="142.585" y="771"/>
			<point x="184.514" y="803"/>
			<point x="233.514" y="803" type="curve" smooth="yes"/>
			<point x="282.514" y="803"/>
			<point x="319.953" y="774"/>
			<point x="313.077" y="718" type="curve" smooth="yes"/>
			<point x="307.429" y="672"/>
			<point x="273.886" y="635"/>
			<point x="221.115" y="588" type="curve" smooth="yes"/>
			<point x="78.276" y="459" type="line" smooth="yes"/>
			<point x="77.153" y="458"/>
			<point x="74.908" y="456"/>
			<point x="74.662" y="454" type="curve" smooth="yes"/>
		</contour>
		<contour>
			<point x="290.908" y="456" type="line"/>
			<point x="301.399" y="460" type="line"/>
			<point x="307.17" y="507" type="line"/>
			<point x="302.17" y="507" type="line" smooth="yes"/>
			<point x="300.17" y="507"/>
			<point x="298.924" y="505"/>
			<point x="298.678" y="503" type="curve" smooth="yes"/>
			<point x="290.908" y="456" type="line"/>
		</contour>
	</outline>
</glyph>
<glyph name="threesuperior" format="2">
	<advance width="342"/>
	<unicode hex="00B3"/>
	<note>
		threesuperior
	</note>
	<outline>
		<contour>
			<point x="192.68" y="446" type="curve" smooth="yes"/>
			<point x="256.68" y="446"/>
			<point x="309.082" y="490"/>
			<point x="315.713" y="544" type="curve" smooth="yes"/>
			<point x="321.483" y="591"/>
			<point x="295.658" y="625"/>
			<point x="241.518" y="632" type="curve"/>
			<point x="283.5" y="640"/>
			<point x="321.429" y="672"/>
			<point x="326.954" y="717" type="curve" smooth="yes"/>
			<point x="334.199" y="776"/>
			<point x="293.759" y="805"/>
			<point x="241.759" y="805" type="curve" smooth="yes"/>
			<point x="185.759" y="805"/>
			<point x="140.585" y="771"/>
			<point x="125.463" y="713" type="curve"/>
			<point x="131.34" y="712" type="line" smooth="yes"/>
			<point x="134.34" y="712"/>
			<point x="136.586" y="714"/>
			<point x="137.954" y="717" type="curve" smooth="yes"/>
			<point x="153.971" y="766"/>
			<point x="191.532" y="795"/>
			<point x="240.532" y="795" type="curve" smooth="yes"/>
			<point x="287.532" y="795"/>
			<point x="322.339" y="769"/>
			<point x="315.832" y="716" type="curve" smooth="yes"/>
			<point x="309.938" y="668"/>
			<point x="270.132" y="637"/>
			<point x="206.763" y="634" type="curve"/>
			<point x="205.781" y="626" type="line"/>
			<point x="276.781" y="626"/>
			<point x="310.22" y="597"/>
			<point x="303.59" y="543" type="curve" smooth="yes"/>
			<point x="298.31" y="500"/>
			<point x="255.785" y="455"/>
			<point x="193.785" y="455" type="curve" smooth="yes"/>
			<point x="127.785" y="455"/>
			<point x="111.573" y="494"/>
			<point x="104.485" y="534" type="curve" smooth="yes"/>
			<point x="103.853" y="537"/>
			<point x="101.099" y="539"/>
			<point x="97.853" y="537" type="curve" smooth="yes"/>
			<point x="91.485" y="534" type="line"/>
			<point x="99.837" y="488"/>
			<point x="118.68" y="446"/>
		</contour>
	</outline>
</glyph>
<glyph name="acute" format="2">
	<advance width="216"/>
	<unicode hex="00B4"/>
	<note>
		acute
	</note>
	<outline>
		<contour>
			<point x="209.849" y="708" type="line"/>
			<point x="198.849" y="708"/>
			<point x="195.604" y="706"/>
			<point x="187.499" y="697" type="curve" smooth="yes"/>
			<point x="91.01" y="579" type="line"/>
			<point x="98.01" y="579" type="line" smooth="yes"/>
			<point x="101.01" y="579"/>
			<point x="104.133" y="580"/>
			<point x="106.501" y="583" type="curve" smooth="yes"/>
			<point x="222.849" y="708" type="line"/>
			<point x="209.849" y="708" type="line"/>
		</contour>
	</outline>
</glyph>
<glyph name="mu" format="2">
	<advance width="560"/>
	<unicode hex="00B5"/>
	<anchor x="461.163" y="2" name="ogonek"/>
	<anchor x="291.082" y="490" name="top"/>
	<anchor x="486.082" y="490" name="topright"/>
	<anchor x="226.918" y="0" name="bottom"/>
	<note>
		mu
	</note>
	<outline>
		<contour>
			<point x="28.817" y="-180" type="curve" smooth="yes"/>
			<point x="34.817" y="-180" type="line"/>
			<point x="57.532" y="5" type="line" smooth="yes"/>
			<point x="61.829" y="40"/>
			<point x="67.705" y="96"/>
			<point x="77.597" y="201" type="curve" smooth="yes"/>
			<point x="105.082" y="490" type="line"/>
			<point x="23.553" y="-174" type="line" smooth="yes"/>
			<point x="23.062" y="-178"/>
			<point x="24.817" y="-180"/>
		</contour>
		<contour>
			<point x="221.936" y="-8" type="curve" smooth="yes"/>
			<point x="298.936" y="-8"/>
			<point x="374.461" y="37"/>
			<point x="426.442" y="102" type="curve"/>
			<point x="416.9" y="8" type="line" smooth="yes"/>
			<point x="416.286" y="3"/>
			<point x="417.918" y="0"/>
			<point x="422.918" y="0" type="curve" smooth="yes"/>
			<point x="425.918" y="0" type="line"/>
			<point x="486.082" y="490" type="line"/>
			<point x="474.082" y="490" type="line"/>
			<point x="428.284" y="117" type="line"/>
			<point x="370.443" y="45"/>
			<point x="300.163" y="2"/>
			<point x="223.163" y="2" type="curve" smooth="yes"/>
			<point x="121.163" y="2"/>
			<point x="81.39" y="69"/>
			<point x="94.528" y="176" type="curve" smooth="yes"/>
			<point x="133.082" y="490" type="line"/>
			<point x="121.082" y="490" type="line"/>
			<point x="82.528" y="176" type="line" smooth="yes"/>
			<point x="68.285" y="60"/>
			<point x="112.936" y="-8"/>
		</contour>
		<contour>
			<point x="422.918" y="0" type="line"/>
			<point x="507.918" y="0" type="line"/>
			<point x="508.532" y="5" type="line" smooth="yes"/>
			<point x="508.9" y="8"/>
			<point x="505.146" y="10"/>
			<point x="502.146" y="10" type="curve" smooth="yes"/>
			<point x="425.391" y="12" type="line"/>
		</contour>
		<contour>
			<point x="124.082" y="490" type="line"/>
			<point x="39.082" y="490" type="line"/>
			<point x="38.468" y="485" type="line" smooth="yes"/>
			<point x="38.1" y="482"/>
			<point x="41.854" y="480"/>
			<point x="44.854" y="480" type="curve" smooth="yes"/>
			<point x="121.609" y="478" type="line"/>
		</contour>
		<contour>
			<point x="477.082" y="490" type="line"/>
			<point x="392.082" y="490" type="line"/>
			<point x="391.468" y="485" type="line" smooth="yes"/>
			<point x="391.1" y="482"/>
			<point x="394.854" y="480"/>
			<point x="397.854" y="480" type="curve" smooth="yes"/>
			<point x="474.609" y="478" type="line"/>
		</contour>
	</outline>
</glyph>
<glyph name="paragraph" format="2">
	<advance width="672"/>
	<unicode hex="00B6"/>
	<note>
		paragraph
	</note>
	<outline>
		<contour>
			<point x="208.867" y="-90" type="line"/>
			<point x="220.867" y="-90" type="line"/>
			<point x="316.516" y="689" type="line"/>
			<point x="502.516" y="689" type="line"/>
			<point x="406.867" y="-90" type="line"/>
			<point x="418.867" y="-90" type="line"/>
			<point x="514.516" y="689" type="line"/>
			<point x="629.516" y="689" type="line"/>
			<point x="630.867" y="700" type="line"/>
			<point x="305.867" y="700" type="line" smooth="yes"/>
			<point x="176.683" y="700"/>
			<point x="80.99" y="643.99"/>
			<point x="67.976" y="538" type="curve" smooth="yes"/>
			<point x="55.191" y="433.876"/>
			<point x="136.336" y="366"/>
			<point x="264.857" y="366" type="curve"/>
		</contour>
	</outline>
</glyph>
<glyph name="periodcentered" format="2">
	<advance width="198"/>
	<unicode hex="00B7"/>
	<note>
		periodcentered
	</note>
	<outline>
		<contour>
			<point x="75.139" y="295" type="curve"/>
			<point x="75.139" y="295" type="line"/>
			<point x="73.297" y="280"/>
			<point x="85.578" y="266"/>
			<point x="100.578" y="266" type="curve" smooth="yes"/>
			<point x="117.578" y="266"/>
			<point x="133.297" y="280"/>
			<point x="135.139" y="295" type="curve" smooth="yes"/>
			<point x="137.227" y="312"/>
			<point x="124.946" y="326"/>
			<point x="107.946" y="326" type="curve" smooth="yes"/>
			<point x="92.946" y="326"/>
			<point x="77.227" y="312"/>
		</contour>
	</outline>
</glyph>
<glyph name="onesuperior" format="2">
	<advance width="336.9"/>
	<unicode hex="00B9"/>
	<note>
		onesuperior
	</note>
	<outline>
		<contour>
			<point x="109.271" y="450" type="line"/>
			<point x="289.271" y="450" type="line"/>
			<point x="289.762" y="454" type="line" smooth="yes"/>
			<point x="290.008" y="456"/>
			<point x="288.253" y="458"/>
			<point x="286.253" y="458" type="curve" smooth="yes"/>
			<point x="207.499" y="460" type="line"/>
			<point x="250.473" y="810" type="line"/>
			<point x="242.473" y="810" type="line"/>
			<point x="130.3" y="719" type="line"/>
			<point x="131.932" y="716" type="line" smooth="yes"/>
			<point x="133.563" y="713"/>
			<point x="137.563" y="713"/>
			<point x="140.932" y="716" type="curve" smooth="yes"/>
			<point x="238.632" y="795" type="line"/>
			<point x="238.018" y="790"/>
			<point x="236.404" y="785"/>
			<point x="235.79" y="780" type="curve" smooth="yes"/>
			<point x="196.499" y="460" type="line"/>
			<point x="114.253" y="458" type="line" smooth="yes"/>
			<point x="112.253" y="458"/>
			<point x="110.008" y="456"/>
			<point x="109.762" y="454" type="curve" smooth="yes"/>
		</contour>
	</outline>
</glyph>
<glyph name="ordmasculine" format="2">
	<advance width="324.4"/>
	<unicode hex="00BA"/>
	<note>
		ordmasculine
	</note>
	<outline>
		<contour>
			<point x="219.304" y="706" type="curve"/>
			<point x="219.304" y="706" type="line"/>
			<point x="133.304" y="706"/>
			<point x="78.182" y="648"/>
			<point x="67.254" y="559" type="curve" smooth="yes"/>
			<point x="56.449" y="471"/>
			<point x="97.328" y="413"/>
			<point x="183.328" y="413" type="curve" smooth="yes"/>
			<point x="269.328" y="413"/>
			<point x="323.449" y="471"/>
			<point x="334.254" y="559" type="curve" smooth="yes"/>
			<point x="345.182" y="648"/>
			<point x="305.304" y="706"/>
		</contour>
		<contour>
			<point x="184.31" y="421" type="curve"/>
			<point x="184.31" y="421" type="line"/>
			<point x="102.31" y="421"/>
			<point x="67.063" y="476"/>
			<point x="77.254" y="559" type="curve" smooth="yes"/>
			<point x="87.445" y="642"/>
			<point x="136.321" y="698"/>
			<point x="218.321" y="698" type="curve" smooth="yes"/>
			<point x="300.321" y="698"/>
			<point x="334.445" y="642"/>
			<point x="324.254" y="559" type="curve" smooth="yes"/>
			<point x="314.063" y="476"/>
			<point x="266.31" y="421"/>
		</contour>
	</outline>
</glyph>
<glyph name="guillemotright" format="2">
	<advance width="414"/>
	<unicode hex="00BB"/>
	<note>
		guillemotright
	</note>
	<outline>
		<contour>
			<point x="234.066" y="441" type="line"/>
			<point x="230.82" y="439" type="line" smooth="yes"/>
			<point x="228.657" y="437.667"/>
			<point x="227.411" y="435.667"/>
			<point x="227.083" y="433" type="curve" smooth="yes"/>
			<point x="226.838" y="431"/>
			<point x="227.592" y="429"/>
			<point x="228.347" y="427" type="curve" smooth="yes"/>
			<point x="310.578" y="266" type="line" smooth="yes"/>
			<point x="313.842" y="260"/>
			<point x="316.392" y="256.333"/>
			<point x="318.228" y="255" type="curve"/>
			<point x="316.813" y="254.333"/>
			<point x="312.737" y="251"/>
			<point x="307.877" y="244" type="curve" smooth="yes"/>
			<point x="186.109" y="83" type="line" smooth="yes"/>
			<point x="183.741" y="80"/>
			<point x="183.536" y="78.333"/>
			<point x="183.372" y="77" type="curve" smooth="yes"/>
			<point x="183.045" y="74.333"/>
			<point x="183.799" y="72.333"/>
			<point x="185.635" y="71" type="curve" smooth="yes"/>
			<point x="188.39" y="69" type="line"/>
			<point x="328.105" y="254" type="line"/>
			<point x="328.351" y="256" type="line"/>
			<point x="234.066" y="441" type="line"/>
		</contour>
		<contour>
			<point x="124.066" y="441" type="line"/>
			<point x="120.82" y="439" type="line" smooth="yes"/>
			<point x="118.697" y="438"/>
			<point x="117.452" y="436"/>
			<point x="117.083" y="433" type="curve" smooth="yes"/>
			<point x="116.838" y="431"/>
			<point x="117.592" y="429"/>
			<point x="118.347" y="427" type="curve" smooth="yes"/>
			<point x="200.578" y="266" type="line" smooth="yes"/>
			<point x="203.842" y="260"/>
			<point x="206.351" y="256"/>
			<point x="208.228" y="255" type="curve"/>
			<point x="207.105" y="254"/>
			<point x="202.737" y="251"/>
			<point x="197.877" y="244" type="curve" smooth="yes"/>
			<point x="76.109" y="83" type="line" smooth="yes"/>
			<point x="73.741" y="80"/>
			<point x="73.495" y="78"/>
			<point x="73.372" y="77" type="curve" smooth="yes"/>
			<point x="73.004" y="74"/>
			<point x="73.758" y="72"/>
			<point x="75.635" y="71" type="curve" smooth="yes"/>
			<point x="78.39" y="69" type="line"/>
			<point x="218.105" y="254" type="line"/>
			<point x="218.351" y="256" type="line"/>
			<point x="124.066" y="441" type="line"/>
		</contour>
	</outline>
</glyph>
